{
classes = (
{
automatic = 1;
code = "A Aacute Abreve Acircumflex Adieresis Agrave Amacron Aogonek Aring Aringacute Atilde AE AEacute B C Cacute Ccaron Ccedilla Ccircumflex Cdotaccent D Eth Dcaron Dcroat E Eacute Ebreve Ecaron Ecircumflex Edieresis Edotaccent Egrave Emacron Eogonek F G Gbreve Gcircumflex Gcommaaccent Gdotaccent H Hbar Hcircumflex I IJ Iacute Ibreve Icircumflex Idieresis Idotaccent Igrave Imacron Iogonek Itilde J Jcircumflex K Kcommaaccent L Lacute Lcaron Lcommaaccent Ldot Lslash M N Nacute Ncaron Ncommaaccent Eng Ntilde O Oacute Obreve Ocircumflex Odieresis Ograve Ohungarumlaut Omacron Oslash Oslashacute Otilde OE P Thorn Q R Racute Rcaron Rcommaaccent S Sacute Scaron Scedilla Scircumflex Scommaaccent T Tbar Tcaron Tcedilla Tcommaaccent U Uacute Ubreve Ucircumflex Udieresis Ugrave Uhungarumlaut Umacron Uogonek Uring Utilde V W Wacute Wcircumflex Wdieresis Wgrave X Y Yacute Ycircumflex Ydieresis Ygrave Z Zacute Zcaron Zdotaccent Delta Omega";
name = Uppercase;
},
{
automatic = 1;
code = "iMatra-deva iMatra-deva.0 iMatra-deva.1 iMatra-deva.10 iMatra-deva.11 iMatra-deva.12 iMatra-deva.13 iMatra-deva.14 iMatra-deva.15 iMatra-deva.16 iMatra-deva.17 iMatra-deva.18 iMatra-deva.19 iMatra-deva.2 iMatra-deva.3 iMatra-deva.4 iMatra-deva.5 iMatra-deva.6 iMatra-deva.7 iMatra-deva.8 iMatra-deva.9";
name = DevaIMatras;
},
{
automatic = 1;
code = "iMatra_reph-deva iMatra_reph-deva.0 iMatra_reph-deva.1 iMatra_reph-deva.10 iMatra_reph-deva.11 iMatra_reph-deva.12 iMatra_reph-deva.13 iMatra_reph-deva.14 iMatra_reph-deva.15 iMatra_reph-deva.16 iMatra_reph-deva.17 iMatra_reph-deva.18 iMatra_reph-deva.19 iMatra_reph-deva.2 iMatra_reph-deva.3 iMatra_reph-deva.4 iMatra_reph-deva.5 iMatra_reph-deva.6 iMatra_reph-deva.7 iMatra_reph-deva.8 iMatra_reph-deva.9";
name = DevaIMatraRephs;
},
{
automatic = 1;

glyphs = (
{
glyphname = A;
layers = (
{
anchors = (
{
name = ogonek;
position = "{965, 18}";
},
{
name = top;
position = "{537, 1241}";
}
);
layerId = "3CB5DA74-10A0-4C7B-8F49-8E762609D01C";
name = Bold;
paths = (
{
closed = 1;
nodes = (
"670 1241 LINE",
"399 1241 LINE",
"0 0 LINE",
"225 0 LINE",
"299 244 LINE",
"758 244 LINE",
"834 0 LINE",
"1069 0 LINE"
);
},
{
closed = 1;
nodes = (
"532 1034 LINE",
"532 1034 OFFCURVE",
"549 930 OFFCURVE",
"569 866 CURVE SMOOTH",
"694 451 LINE",
"362 451 LINE",
"489 866 LINE SMOOTH",
"508 924 OFFCURVE",
"524 1034 OFFCURVE",
"524 1034 CURVE"
);
}
);
width = 1071;
}
);
unicode = 0041;
},
{
glyphname = Aacute;
layers = (
{
layerId = "3CB5DA74-10A0-4C7B-8F49-8E762609D01C";
name = Bold;
paths = (
{
closed = 1;
nodes = (
"670 1241 LINE",
"399 1241 LINE",
"0 0 LINE",
"225 0 LINE",
"299 244 LINE",
"758 244 LINE",
"834 0 LINE",
"1069 0 LINE"
);
},
{
closed = 1;
nodes = (
"532 1034 LINE",
"532 1034 OFFCURVE",
"549 930 OFFCURVE",
"569 866 CURVE SMOOTH",
"694 451 LINE",
"362 451 LINE",
"489 866 LINE SMOOTH",
"508 924 OFFCURVE",
"524 1034 OFFCURVE",
"524 1034 CURVE"
);
},
{
closed = 1;
nodes = (
"784 1599 LINE",
"567 1599 LINE",
"412 1360 LINE",
"590 1360 LINE",
"786 1593 LINE"
);
}
);
width = 1071;
}
);
unicode = 00C1;
},
{
glyphname = Abreve;
layers = (
{
layerId = "3CB5DA74-10A0-4C7B-8F49-8E762609D01C";
name = Bold;
paths = (
{
closed = 1;
nodes = (
"670 1241 LINE",
"399 1241 LINE",
"0 0 LINE",
"225 0 LINE",
"299 244 LINE",
"758 244 LINE",
"834 0 LINE",
"1069 0 LINE"
);
},
{
closed = 1;
nodes = (
"532 1034 LINE",
"532 1034 OFFCURVE",
"549 930 OFFCURVE",
"569 866 CURVE SMOOTH",
"694 451 LINE",
"362 451 LINE",
"489 866 LINE SMOOTH",
"508 924 OFFCURVE",
"524 1034 OFFCURVE",
"524 1034 CURVE"
);
},
{
closed = 1;
nodes = (
"643 1599 LINE",
"641 1573 OFFCURVE",
"598 1538 OFFCURVE",
"535 1538 CURVE SMOOTH",
"475 1538 OFFCURVE",
"434 1573 OFFCURVE",
"430 1599 CURVE",
"295 1599 LINE",
"295 1507 OFFCURVE",
"385 1405 OFFCURVE",
"535 1405 CURVE SMOOTH",
"684 1405 OFFCURVE",
"778 1507 OFFCURVE",
"778 1599 CURVE"
);
}
);
width = 1071;
}
);
unicode = 0102;
},
{
glyphname = Acircumflex;
layers = (
{
layerId = "3CB5DA74-10A0-4C7B-8F49-8E762609D01C";
name = Bold;
paths = (
{
closed = 1;
nodes = (
"670 1241 LINE",
"399 1241 LINE",
"0 0 LINE",
"225 0 LINE",
"299 244 LINE",
"758 244 LINE",
"834 0 LINE",
"1069 0 LINE"
);
},
{
closed = 1;
nodes = (
"532 1034 LINE",
"532 1034 OFFCURVE",
"549 930 OFFCURVE",
"569 866 CURVE SMOOTH",
"694 451 LINE",
"362 451 LINE",
"489 866 LINE SMOOTH",
"508 924 OFFCURVE",
"524 1034 OFFCURVE",
"524 1034 CURVE"
);
},
{
closed = 1;
nodes = (
"627 1599 LINE",
"449 1599 LINE",
"293 1354 LINE",
"455 1354 LINE",
"537 1479 LINE",
"616 1354 LINE",
"780 1354 LINE"
);
}
);
width = 1071;
}
);
unicode = 00C2;
},
{
glyphname = Adieresis;
layers = (
{
layerId = "3CB5DA74-10A0-4C7B-8F49-8E762609D01C";
name = Bold;
paths = (
{
closed = 1;
nodes = (
"670 1241 LINE",
"399 1241 LINE",
"0 0 LINE",
"225 0 LINE",
"299 244 LINE",
"758 244 LINE",
"834 0 LINE",
"1069 0 LINE"
);
},
{
closed = 1;
nodes = (
"532 1034 LINE",
"532 1034 OFFCURVE",
"549 930 OFFCURVE",
"569 866 CURVE SMOOTH",
"694 451 LINE",
"362 451 LINE",
"489 866 LINE SMOOTH",
"508 924 OFFCURVE",
"524 1034 OFFCURVE",
"524 1034 CURVE"
);
},
{
closed = 1;
nodes = (
"469 1599 LINE",
"289 1599 LINE",
"289 1401 LINE",
"469 1401 LINE"
);
},
{
closed = 1;
nodes = (
"786 1599 LINE",
"602 1599 LINE",
"602 1401 LINE",
"786 1401 LINE"
);
}
);
width = 1071;
}
);
unicode = 00C4;
},
{
glyphname = Agrave;
layers = (
{
layerId = "3CB5DA74-10A0-4C7B-8F49-8E762609D01C";
name = Bold;
paths = (
{
closed = 1;
nodes = (
"670 1241 LINE",
"399 1241 LINE",
"0 0 LINE",
"225 0 LINE",
"299 244 LINE",
"758 244 LINE",
"834 0 LINE",
"1069 0 LINE"
);
},
{
closed = 1;
nodes = (
"532 1034 LINE",
"532 1034 OFFCURVE",
"549 930 OFFCURVE",
"569 866 CURVE SMOOTH",
"694 451 LINE",
"362 451 LINE",
"489 866 LINE SMOOTH",
"508 924 OFFCURVE",
"524 1034 OFFCURVE",
"524 1034 CURVE"
);
},
{
closed = 1;
nodes = (
"506 1599 LINE",
"289 1599 LINE",
"287 1593 LINE",
"481 1360 LINE",
"662 1360 LINE"
);
}
);
width = 1071;
}
);
unicode = 00C0;
},
{
glyphname = Amacron;
layers = (
{
layerId = "3CB5DA74-10A0-4C7B-8F49-8E762609D01C";
name = Bold;
paths = (
{
closed = 1;
nodes = (
"670 1241 LINE",
"399 1241 LINE",
"0 0 LINE",
"225 0 LINE",
"299 244 LINE",
"758 244 LINE",
"834 0 LINE",
"1069 0 LINE"
);
},
{
closed = 1;
nodes = (
"532 1034 LINE",
"532 1034 OFFCURVE",
"549 930 OFFCURVE",
"569 866 CURVE SMOOTH",
"694 451 LINE",
"362 451 LINE",
"489 866 LINE SMOOTH",
"508 924 OFFCURVE",
"524 1034 OFFCURVE",
"524 1034 CURVE"
);
},
{
closed = 1;
nodes = (
"768 1532 LINE",
"305 1532 LINE",
"305 1374 LINE",
"768 1374 LINE"
);
}
);
width = 1071;
}
);
unicode = 0100;
},
{
glyphname = Aogonek;
layers = (
{
layerId = "3CB5DA74-10A0-4C7B-8F49-8E762609D01C";
name = Bold;
paths = (
{
closed = 1;
nodes = (
"834 0 LINE",
"1069 0 LINE",
"670 1241 LINE",
"399 1241 LINE",
"0 0 LINE",
"225 0 LINE",
"299 244 LINE",
"758 244 LINE"
);
},
{
closed = 1;
nodes = (
"532 1034 LINE",
"532 1034 OFFCURVE",
"549 930 OFFCURVE",
"569 866 CURVE SMOOTH",
"694 451 LINE",
"362 451 LINE",
"489 866 LINE SMOOTH",
"508 924 OFFCURVE",
"524 1034 OFFCURVE",
"524 1034 CURVE"
);
},
{
closed = 1;
nodes = (
"920 0 LINE",
"881 -49 OFFCURVE",
"838 -90 OFFCURVE",
"838 -180 CURVE SMOOTH",
"838 -305 OFFCURVE",
"934 -344 OFFCURVE",
"1018 -344 CURVE SMOOTH",
"1057 -344 OFFCURVE",
"1096 -336 OFFCURVE",
"1137 -319 CURVE",
"1137 -219 LINE",
"1098 -219 LINE SMOOTH",
"1038 -219 OFFCURVE",
"1016 -174 OFFCURVE",
"1016 -127 CURVE SMOOTH",
"1016 -70 OFFCURVE",
"1049 -20 OFFCURVE",
"1069 0 CURVE"
);
}
);
width = 1071;
}
);
unicode = 0104;
},
{
glyphname = Aring;
layers = (
{
layerId = "3CB5DA74-10A0-4C7B-8F49-8E762609D01C";
name = Bold;
paths = (
{
closed = 1;
nodes = (
"670 1241 LINE",
"399 1241 LINE",
"0 0 LINE",
"225 0 LINE",
"299 244 LINE",
"758 244 LINE",
"834 0 LINE",
"1069 0 LINE"
);
},
{
closed = 1;
nodes = (
"532 1034 LINE",
"532 1034 OFFCURVE",
"549 930 OFFCURVE",
"569 866 CURVE SMOOTH",
"694 451 LINE",
"362 451 LINE",
"489 866 LINE SMOOTH",
"508 924 OFFCURVE",
"524 1034 OFFCURVE",
"524 1034 CURVE"
);
},
{
closed = 1;
nodes = (
"440 1653 OFFCURVE",
"362 1575 OFFCURVE",
"362 1479 CURVE SMOOTH",
"362 1380 OFFCURVE",
"442 1305 OFFCURVE",
"537 1305 CURVE SMOOTH",
"633 1305 OFFCURVE",
"711 1382 OFFCURVE",
"711 1479 CURVE SMOOTH",
"711 1573 OFFCURVE",
"633 1653 OFFCURVE",
"537 1653 CURVE SMOOTH"
);
},
{
closed = 1;
nodes = (
"582 1563 OFFCURVE",
"618 1526 OFFCURVE",
"618 1479 CURVE SMOOTH",
"618 1432 OFFCURVE",
"582 1397 OFFCURVE",
"537 1397 CURVE SMOOTH",
"489 1397 OFFCURVE",
"453 1432 OFFCURVE",
"453 1479 CURVE SMOOTH",
"453 1526 OFFCURVE",
"489 1563 OFFCURVE",
"537 1563 CURVE SMOOTH"
);
}
);
width = 1071;
}
);
unicode = 00C5;
},
{
glyphname = Aringacute;
layers = (
{
layerId = "3CB5DA74-10A0-4C7B-8F49-8E762609D01C";
name = Bold;
paths = (
{
closed = 1;
nodes = (
"440 1487 OFFCURVE",
"362 1411 OFFCURVE",
"362 1319 CURVE SMOOTH",
"362 1282 OFFCURVE",
"373 1247 OFFCURVE",
"393 1221 CURVE",
"0 0 LINE",
"225 0 LINE",
"299 244 LINE",
"758 244 LINE",
"834 0 LINE",
"1069 0 LINE",
"678 1219 LINE",
"696 1247 OFFCURVE",
"711 1282 OFFCURVE",
"711 1319 CURVE SMOOTH",
"711 1409 OFFCURVE",
"633 1487 OFFCURVE",
"537 1487 CURVE SMOOTH"
);
},
{
closed = 1;
nodes = (
"532 1034 LINE",
"532 1034 OFFCURVE",
"549 930 OFFCURVE",
"569 866 CURVE SMOOTH",
"694 451 LINE",
"362 451 LINE",
"489 866 LINE SMOOTH",
"508 924 OFFCURVE",
"524 1034 OFFCURVE",
"524 1034 CURVE"
);
},
{
closed = 1;
nodes = (
"803 1726 LINE",
"803 1733 LINE",
"586 1733 LINE",
"459 1536 LINE",
"637 1536 LINE"
);
},
{
closed = 1;
nodes = (
"582 1397 OFFCURVE",
"618 1364 OFFCURVE",
"618 1319 CURVE SMOOTH",
"618 1272 OFFCURVE",
"582 1237 OFFCURVE",
"537 1237 CURVE SMOOTH",
"489 1237 OFFCURVE",
"453 1272 OFFCURVE",
"453 1319 CURVE SMOOTH",
"453 1364 OFFCURVE",
"489 1397 OFFCURVE",
"537 1397 CURVE SMOOTH"
);
}
);
width = 1071;
}
);
unicode = 01FA;
},
{
glyphname = Atilde;
layers = (
{
layerId = "3CB5DA74-10A0-4C7B-8F49-8E762609D01C";
name = Bold;
paths = (
{
closed = 1;
nodes = (
"670 1241 LINE",
"399 1241 LINE",
"0 0 LINE",
"225 0 LINE",
"299 244 LINE",
"758 244 LINE",
"834 0 LINE",
"1069 0 LINE"
);
},
{
closed = 1;
nodes = (
"532 1034 LINE",
"532 1034 OFFCURVE",
"549 930 OFFCURVE",
"569 866 CURVE SMOOTH",
"694 451 LINE",
"362 451 LINE",
"489 866 LINE SMOOTH",
"508 924 OFFCURVE",
"524 1034 OFFCURVE",
"524 1034 CURVE"
);
},
{
closed = 1;
nodes = (
"721 1599 LINE",
"713 1548 OFFCURVE",
"688 1532 OFFCURVE",
"649 1532 CURVE SMOOTH",
"569 1532 OFFCURVE",
"498 1599 OFFCURVE",
"410 1599 CURVE SMOOTH",
"283 1599 OFFCURVE",
"231 1477 OFFCURVE",
"231 1378 CURVE",
"350 1378 LINE",
"358 1427 OFFCURVE",
"383 1444 OFFCURVE",
"422 1444 CURVE SMOOTH",
"504 1444 OFFCURVE",
"573 1378 OFFCURVE",
"662 1378 CURVE SMOOTH",
"788 1378 OFFCURVE",
"840 1499 OFFCURVE",
"840 1599 CURVE"
);
}
);
width = 1071;
}
);
unicode = 00C3;
},
{
glyphname = AE;
layers = (
{
anchors = (
{
name = top;
position = "{741, 1241}";
}
);
layerId = "3CB5DA74-10A0-4C7B-8F49-8E762609D01C";
name = Bold;
paths = (
{
closed = 1;
nodes = (
"1397 1241 LINE",
"461 1241 LINE",
"-14 0 LINE",
"201 0 LINE",
"291 244 LINE",
"750 244 LINE",
"809 0 LINE",
"1407 0 LINE",
"1407 207 LINE",
"995 207 LINE",
"915 532 LINE",
"1317 532 LINE",
"1317 739 LINE",
"866 739 LINE",
"793 1036 LINE",
"1397 1036 LINE"
);
},
{
closed = 1;
nodes = (
"573 989 LINE",
"580 967 OFFCURVE",
"586 944 OFFCURVE",
"590 922 CURVE SMOOTH",
"700 451 LINE",
"367 451 LINE",
"541 922 LINE SMOOTH",
"551 944 OFFCURVE",
"557 967 OFFCURVE",
"567 989 CURVE"
);
}
);
width = 1485;
}
);
unicode = 00C6;
},
{
glyphname = AEacute;
layers = (
{
layerId = "3CB5DA74-10A0-4C7B-8F49-8E762609D01C";
name = Bold;
paths = (
{
closed = 1;
nodes = (
"1397 1241 LINE",
"461 1241 LINE",
"-14 0 LINE",
"201 0 LINE",
"291 244 LINE",
"750 244 LINE",
"809 0 LINE",
"1407 0 LINE",
"1407 207 LINE",
"995 207 LINE",
"915 532 LINE",
"1317 532 LINE",
"1317 739 LINE",
"866 739 LINE",
"793 1036 LINE",
"1397 1036 LINE"
);
},
{
closed = 1;
nodes = (
"573 989 LINE",
"582 961 OFFCURVE",
"586 932 OFFCURVE",
"594 905 CURVE SMOOTH",
"700 451 LINE",
"367 451 LINE",
"535 899 LINE SMOOTH",
"545 928 OFFCURVE",
"555 961 OFFCURVE",
"567 989 CURVE"
);
},
{
closed = 1;
nodes = (
"991 1599 LINE",
"772 1599 LINE",
"616 1360 LINE",
"797 1360 LINE",
"991 1593 LINE"
);
}
);
width = 1485;
}
);
unicode = 01FC;
},
{
glyphname = B;
layers = (
{
layerId = "3CB5DA74-10A0-4C7B-8F49-8E762609D01C";
name = Bold;
paths = (
{
closed = 1;
nodes = (
"109 1241 LINE",
"109 0 LINE",
"643 0 LINE SMOOTH",
"842 0 OFFCURVE",
"1010 125 OFFCURVE",
"1010 334 CURVE SMOOTH",
"1010 492 OFFCURVE",
"913 606 OFFCURVE",
"791 645 CURVE",
"791 651 LINE",
"897 690 OFFCURVE",
"981 791 OFFCURVE",
"981 934 CURVE SMOOTH",
"981 1116 OFFCURVE",
"838 1241 OFFCURVE",
"643 1241 CURVE SMOOTH"
);
},
{
closed = 1;
nodes = (
"340 535 LINE",
"594 535 LINE SMOOTH",
"715 535 OFFCURVE",
"772 459 OFFCURVE",
"772 362 CURVE SMOOTH",
"772 260 OFFCURVE",
"700 207 OFFCURVE",
"604 207 CURVE SMOOTH",
"340 207 LINE"
);
},
{
closed = 1;
nodes = (
"340 1036 LINE",
"590 1036 LINE SMOOTH",
"682 1036 OFFCURVE",
"743 987 OFFCURVE",
"743 893 CURVE SMOOTH",
"743 809 OFFCURVE",
"690 739 OFFCURVE",
"580 739 CURVE SMOOTH",
"340 739 LINE"
);
}
);
width = 1071;
}
);
unicode = 0042;
},
{
glyphname = C;
layers = (
{
anchors = (
{
name = bottom;
position = "{537, 0}";
},
{
name = top;
position = "{537, 1241}";
}
);
layerId = "3CB5DA74-10A0-4C7B-8F49-8E762609D01C";
name = Bold;
paths = (
{
closed = 1;
nodes = (
"244 1264 OFFCURVE",
"61 1059 OFFCURVE",
"61 621 CURVE SMOOTH",
"61 182 OFFCURVE",
"244 -23 OFFCURVE",
"555 -23 CURVE SMOOTH",
"819 -23 OFFCURVE",
"1012 133 OFFCURVE",
"1012 461 CURVE",
"786 461 LINE",
"786 268 OFFCURVE",
"696 178 OFFCURVE",
"563 178 CURVE SMOOTH",
"385 178 OFFCURVE",
"301 328 OFFCURVE",
"301 575 CURVE SMOOTH",
"301 666 LINE SMOOTH",
"301 913 OFFCURVE",
"383 1065 OFFCURVE",
"555 1065 CURVE SMOOTH",
"686 1065 OFFCURVE",
"774 973 OFFCURVE",
"774 780 CURVE",
"1012 780 LINE",
"1012 1116 OFFCURVE",
"815 1264 OFFCURVE",
"555 1264 CURVE SMOOTH"
);
}
);
width = 1071;
}
);
unicode = 0043;
},
{
glyphname = Cacute;
layers = (
{
layerId = "3CB5DA74-10A0-4C7B-8F49-8E762609D01C";
name = Bold;
paths = (
{
closed = 1;
nodes = (
"244 1264 OFFCURVE",
"61 1059 OFFCURVE",
"61 621 CURVE SMOOTH",
"61 182 OFFCURVE",
"244 -23 OFFCURVE",
"555 -23 CURVE SMOOTH",
"819 -23 OFFCURVE",
"1012 133 OFFCURVE",
"1012 461 CURVE",
"786 461 LINE",
"786 268 OFFCURVE",
"696 178 OFFCURVE",
"563 178 CURVE SMOOTH",
"385 178 OFFCURVE",
"301 328 OFFCURVE",
"301 575 CURVE SMOOTH",
"301 666 LINE SMOOTH",
"301 913 OFFCURVE",
"383 1065 OFFCURVE",
"555 1065 CURVE SMOOTH",
"686 1065 OFFCURVE",
"774 973 OFFCURVE",
"774 780 CURVE",
"1012 780 LINE",
"1012 1116 OFFCURVE",
"815 1264 OFFCURVE",
"555 1264 CURVE SMOOTH"
);
},
{
closed = 1;
nodes = (
"803 1599 LINE",
"586 1599 LINE",
"430 1360 LINE",
"610 1360 LINE",
"805 1593 LINE"
);
}
);
width = 1071;
}
);
unicode = 0106;
},
{
glyphname = Ccaron;
layers = (
{
layerId = "3CB5DA74-10A0-4C7B-8F49-8E762609D01C";
name = Bold;
paths = (
{
closed = 1;
nodes = (
"244 1264 OFFCURVE",
"61 1059 OFFCURVE",
"61 621 CURVE SMOOTH",
"61 182 OFFCURVE",
"244 -23 OFFCURVE",
"555 -23 CURVE SMOOTH",
"819 -23 OFFCURVE",
"1012 133 OFFCURVE",
"1012 461 CURVE",
"786 461 LINE",
"786 268 OFFCURVE",
"696 178 OFFCURVE",
"563 178 CURVE SMOOTH",
"385 178 OFFCURVE",
"301 328 OFFCURVE",
"301 575 CURVE SMOOTH",
"301 666 LINE SMOOTH",
"301 913 OFFCURVE",
"383 1065 OFFCURVE",
"555 1065 CURVE SMOOTH",
"686 1065 OFFCURVE",
"774 973 OFFCURVE",
"774 780 CURVE",
"1012 780 LINE",
"1012 1116 OFFCURVE",
"815 1264 OFFCURVE",
"555 1264 CURVE SMOOTH"
);
},
{
closed = 1;
nodes = (
"645 1354 LINE",
"799 1599 LINE",
"637 1599 LINE",
"555 1475 LINE",
"475 1599 LINE",
"311 1599 LINE",
"467 1354 LINE"
);
}
);
width = 1071;
}
);
unicode = 010C;
},
{
glyphname = Ccedilla;
layers = (
{
layerId = "3CB5DA74-10A0-4C7B-8F49-8E762609D01C";
name = Bold;
paths = (
{
closed = 1;
nodes = (
"244 1264 OFFCURVE",
"61 1059 OFFCURVE",
"61 621 CURVE SMOOTH",
"61 221 OFFCURVE",
"211 16 OFFCURVE",
"475 -16 CURVE",
"461 -139 LINE",
"520 -139 LINE SMOOTH",
"567 -139 OFFCURVE",
"582 -154 OFFCURVE",
"582 -182 CURVE SMOOTH",
"582 -217 OFFCURVE",
"555 -227 OFFCURVE",
"516 -227 CURVE SMOOTH",
"387 -227 LINE",
"387 -315 LINE",
"430 -324 OFFCURVE",
"489 -330 OFFCURVE",
"539 -330 CURVE SMOOTH",
"616 -330 OFFCURVE",
"737 -305 OFFCURVE",
"737 -182 CURVE SMOOTH",
"737 -100 OFFCURVE",
"672 -66 OFFCURVE",
"594 -59 CURVE",
"598 -20 LINE",
"838 -4 OFFCURVE",
"1012 152 OFFCURVE",
"1012 461 CURVE",
"786 461 LINE",
"786 268 OFFCURVE",
"696 178 OFFCURVE",
"563 178 CURVE SMOOTH",
"385 178 OFFCURVE",
"301 328 OFFCURVE",
"301 575 CURVE SMOOTH",
"301 666 LINE SMOOTH",
"301 913 OFFCURVE",
"383 1065 OFFCURVE",
"555 1065 CURVE SMOOTH",
"686 1065 OFFCURVE",
"774 973 OFFCURVE",
"774 780 CURVE",
"1012 780 LINE",
"1012 1116 OFFCURVE",
"815 1264 OFFCURVE",
"555 1264 CURVE SMOOTH"
);
}
);
width = 1071;
}
);
unicode = 00C7;
},
{
glyphname = Ccircumflex;
layers = (
{
layerId = "3CB5DA74-10A0-4C7B-8F49-8E762609D01C";
name = Bold;
paths = (
{
closed = 1;
nodes = (
"244 1264 OFFCURVE",
"61 1059 OFFCURVE",
"61 621 CURVE SMOOTH",
"61 182 OFFCURVE",
"244 -23 OFFCURVE",
"555 -23 CURVE SMOOTH",
"819 -23 OFFCURVE",
"1012 133 OFFCURVE",
"1012 461 CURVE",
"786 461 LINE",
"786 268 OFFCURVE",
"696 178 OFFCURVE",
"563 178 CURVE SMOOTH",
"385 178 OFFCURVE",
"301 328 OFFCURVE",
"301 575 CURVE SMOOTH",
"301 666 LINE SMOOTH",
"301 913 OFFCURVE",
"383 1065 OFFCURVE",
"555 1065 CURVE SMOOTH",
"686 1065 OFFCURVE",
"774 973 OFFCURVE",
"774 780 CURVE",
"1012 780 LINE",
"1012 1116 OFFCURVE",
"815 1264 OFFCURVE",
"555 1264 CURVE SMOOTH"
);
},
{
closed = 1;
nodes = (
"799 1354 LINE",
"645 1599 LINE",
"467 1599 LINE",
"311 1354 LINE",
"475 1354 LINE",
"555 1479 LINE",
"637 1354 LINE"
);
}
);
width = 1071;
}
);
unicode = 0108;
},
{
glyphname = Cdotaccent;
layers = (
{
layerId = "3CB5DA74-10A0-4C7B-8F49-8E762609D01C";
name = Bold;
paths = (
{
closed = 1;
nodes = (
"244 1264 OFFCURVE",
"61 1059 OFFCURVE",
"61 621 CURVE SMOOTH",
"61 182 OFFCURVE",
"244 -23 OFFCURVE",
"555 -23 CURVE SMOOTH",
"819 -23 OFFCURVE",
"1012 133 OFFCURVE",
"1012 461 CURVE",
"786 461 LINE",
"786 268 OFFCURVE",
"696 178 OFFCURVE",
"563 178 CURVE SMOOTH",
"385 178 OFFCURVE",
"301 328 OFFCURVE",
"301 575 CURVE SMOOTH",
"301 666 LINE SMOOTH",
"301 913 OFFCURVE",
"383 1065 OFFCURVE",
"555 1065 CURVE SMOOTH",
"686 1065 OFFCURVE",
"774 973 OFFCURVE",
"774 780 CURVE",
"1012 780 LINE",
"1012 1116 OFFCURVE",
"815 1264 OFFCURVE",
"555 1264 CURVE SMOOTH"
);
},
{
closed = 1;
nodes = (
"651 1391 LINE",
"651 1599 LINE",
"459 1599 LINE",
"459 1391 LINE"
);
}
);
width = 1071;
}
);
unicode = 010A;
},
{
glyphname = D;
layers = (
{
anchors = (
{
name = center;
position = "{537, 621}";
},
{
name = top;
position = "{537, 1241}";
}
);
layerId = "3CB5DA74-10A0-4C7B-8F49-8E762609D01C";
name = Bold;
paths = (
{
closed = 1;
nodes = (
"109 0 LINE",
"512 0 LINE SMOOTH",
"821 0 OFFCURVE",
"1010 213 OFFCURVE",
"1010 639 CURVE SMOOTH",
"1010 1038 OFFCURVE",
"821 1241 OFFCURVE",
"512 1241 CURVE SMOOTH",
"109 1241 LINE"
);
},
{
closed = 1;
nodes = (
"340 1036 LINE",
"492 1036 LINE SMOOTH",
"664 1036 OFFCURVE",
"772 918 OFFCURVE",
"772 684 CURVE SMOOTH",
"772 594 LINE SMOOTH",
"772 336 OFFCURVE",
"664 207 OFFCURVE",
"492 207 CURVE SMOOTH",
"340 207 LINE"
);
}
);
width = 1071;
}
);
unicode = 0044;
},
{
glyphname = Eth;
layers = (
{
layerId = "3CB5DA74-10A0-4C7B-8F49-8E762609D01C";
name = Bold;
paths = (
{
closed = 1;
nodes = (
"18 719 LINE",
"18 565 LINE",
"109 565 LINE",
"109 0 LINE",
"512 0 LINE SMOOTH",
"821 0 OFFCURVE",
"1010 213 OFFCURVE",
"1010 639 CURVE SMOOTH",
"1010 1038 OFFCURVE",
"821 1241 OFFCURVE",
"512 1241 CURVE SMOOTH",
"109 1241 LINE",
"109 719 LINE"
);
},
{
closed = 1;
nodes = (
"340 1036 LINE",
"492 1036 LINE SMOOTH",
"664 1036 OFFCURVE",
"772 918 OFFCURVE",
"772 684 CURVE SMOOTH",
"772 594 LINE SMOOTH",
"772 336 OFFCURVE",
"664 207 OFFCURVE",
"492 207 CURVE SMOOTH",
"340 207 LINE",
"340 565 LINE",
"567 565 LINE",
"567 719 LINE",
"340 719 LINE"
);
}
);
width = 1071;
}
);
unicode = 00D0;
},
{
glyphname = Dcaron;
layers = (
{
layerId = "3CB5DA74-10A0-4C7B-8F49-8E762609D01C";
name = Bold;
paths = (
{
closed = 1;
nodes = (
"549 1354 LINE",
"702 1599 LINE",
"539 1599 LINE",
"461 1475 LINE",
"379 1599 LINE",
"215 1599 LINE",
"371 1354 LINE"
);
},
{
closed = 1;
nodes = (
"109 0 LINE",
"512 0 LINE SMOOTH",
"821 0 OFFCURVE",
"1010 213 OFFCURVE",
"1010 639 CURVE SMOOTH",
"1010 1038 OFFCURVE",
"821 1241 OFFCURVE",
"512 1241 CURVE SMOOTH",
"109 1241 LINE"
);
},
{
closed = 1;
nodes = (
"340 1036 LINE",
"492 1036 LINE SMOOTH",
"664 1036 OFFCURVE",
"772 918 OFFCURVE",
"772 684 CURVE SMOOTH",
"772 594 LINE SMOOTH",
"772 336 OFFCURVE",
"664 207 OFFCURVE",
"492 207 CURVE SMOOTH",
"340 207 LINE"
);
}
);
width = 1071;
}
);
unicode = 010E;
},
{
glyphname = Dcroat;
layers = (
{
layerId = "3CB5DA74-10A0-4C7B-8F49-8E762609D01C";
name = Bold;
paths = (
{
closed = 1;
nodes = (
"18 719 LINE",
"18 565 LINE",
"109 565 LINE",
"109 0 LINE",
"512 0 LINE SMOOTH",
"821 0 OFFCURVE",
"1010 213 OFFCURVE",
"1010 639 CURVE SMOOTH",
"1010 1038 OFFCURVE",
"821 1241 OFFCURVE",
"512 1241 CURVE SMOOTH",
"109 1241 LINE",
"109 719 LINE"
);
},
{
closed = 1;
nodes = (
"340 1036 LINE",
"492 1036 LINE SMOOTH",
"664 1036 OFFCURVE",
"772 918 OFFCURVE",
"772 684 CURVE SMOOTH",
"772 594 LINE SMOOTH",
"772 336 OFFCURVE",
"664 207 OFFCURVE",
"492 207 CURVE SMOOTH",
"340 207 LINE",
"340 565 LINE",
"567 565 LINE",
"567 719 LINE",
"340 719 LINE"
);
}
);
width = 1071;
}
);
unicode = 0110;
},
{
glyphname = E;
layers = (
{
anchors = (
{
name = bottom;
position = "{496, 0}";
},
{
name = ogonek;
position = "{891, 18}";
},
{
name = top;
position = "{496, 1241}";
}
);
layerId = "3CB5DA74-10A0-4C7B-8F49-8E762609D01C";
name = Bold;
paths = (
{
closed = 1;
nodes = (
"109 0 LINE",
"911 0 LINE",
"911 207 LINE",
"340 207 LINE",
"340 532 LINE",
"819 532 LINE",
"819 739 LINE",
"340 739 LINE",
"340 1036 LINE",
"899 1036 LINE",
"899 1241 LINE",
"109 1241 LINE"
);
}
);
width = 991;
}
);
unicode = 0045;
},
{
glyphname = Eacute;
layers = (
{
layerId = "3CB5DA74-10A0-4C7B-8F49-8E762609D01C";
name = Bold;
paths = (
{
closed = 1;
nodes = (
"899 1241 LINE",
"109 1241 LINE",
"109 0 LINE",
"911 0 LINE",
"911 207 LINE",
"340 207 LINE",
"340 532 LINE",
"819 532 LINE",
"819 739 LINE",
"340 739 LINE",
"340 1036 LINE",
"899 1036 LINE"
);
},
{
closed = 1;
nodes = (
"743 1599 LINE",
"526 1599 LINE",
"371 1360 LINE",
"551 1360 LINE",
"745 1593 LINE"
);
}
);
width = 991;
}
);
unicode = 00C9;
},
{
glyphname = Ebreve;
layers = (
{
layerId = "3CB5DA74-10A0-4C7B-8F49-8E762609D01C";
name = Bold;
paths = (
{
closed = 1;
nodes = (
"602 1599 LINE",
"600 1573 OFFCURVE",
"555 1538 OFFCURVE",
"494 1538 CURVE SMOOTH",
"434 1538 OFFCURVE",
"393 1573 OFFCURVE",
"387 1599 CURVE",
"254 1599 LINE",
"254 1507 OFFCURVE",
"346 1405 OFFCURVE",
"494 1405 CURVE SMOOTH",
"645 1405 OFFCURVE",
"737 1507 OFFCURVE",
"737 1599 CURVE"
);
},
{
closed = 1;
nodes = (
"109 0 LINE",
"911 0 LINE",
"911 207 LINE",
"340 207 LINE",
"340 532 LINE",
"819 532 LINE",
"819 739 LINE",
"340 739 LINE",
"340 1036 LINE",
"899 1036 LINE",
"899 1241 LINE",
"109 1241 LINE"
);
}
);
width = 991;
}
);
unicode = 0114;
},
{
glyphname = Ecaron;
layers = (
{
layerId = "3CB5DA74-10A0-4C7B-8F49-8E762609D01C";
name = Bold;
paths = (
{
closed = 1;
nodes = (
"586 1354 LINE",
"739 1599 LINE",
"575 1599 LINE",
"496 1475 LINE",
"414 1599 LINE",
"252 1599 LINE",
"408 1354 LINE"
);
},
{
closed = 1;
nodes = (
"109 0 LINE",
"911 0 LINE",
"911 207 LINE",
"340 207 LINE",
"340 532 LINE",
"819 532 LINE",
"819 739 LINE",
"340 739 LINE",
"340 1036 LINE",
"899 1036 LINE",
"899 1241 LINE",
"109 1241 LINE"
);
}
);
width = 991;
}
);
unicode = 011A;
},
{
glyphname = Ecircumflex;
layers = (
{
layerId = "3CB5DA74-10A0-4C7B-8F49-8E762609D01C";
name = Bold;
paths = (
{
closed = 1;
nodes = (
"739 1354 LINE",
"586 1599 LINE",
"408 1599 LINE",
"252 1354 LINE",
"414 1354 LINE",
"496 1479 LINE",
"575 1354 LINE"
);
},
{
closed = 1;
nodes = (
"109 0 LINE",
"911 0 LINE",
"911 207 LINE",
"340 207 LINE",
"340 532 LINE",
"819 532 LINE",
"819 739 LINE",
"340 739 LINE",
"340 1036 LINE",
"899 1036 LINE",
"899 1241 LINE",
"109 1241 LINE"
);
}
);
width = 991;
}
);
unicode = 00CA;
},
{
glyphname = Edieresis;
layers = (
{
layerId = "3CB5DA74-10A0-4C7B-8F49-8E762609D01C";
name = Bold;
paths = (
{
closed = 1;
nodes = (
"899 1241 LINE",
"109 1241 LINE",
"109 0 LINE",
"911 0 LINE",
"911 207 LINE",
"340 207 LINE",
"340 532 LINE",
"819 532 LINE",
"819 739 LINE",
"340 739 LINE",
"340 1036 LINE",
"899 1036 LINE"
);
},
{
closed = 1;
nodes = (
"428 1599 LINE",
"246 1599 LINE",
"246 1401 LINE",
"428 1401 LINE"
);
},
{
closed = 1;
nodes = (
"743 1599 LINE",
"563 1599 LINE",
"563 1401 LINE",
"743 1401 LINE"
);
}
);
width = 991;
}
);
unicode = 00CB;
},
{
glyphname = Edotaccent;
layers = (
{
layerId = "3CB5DA74-10A0-4C7B-8F49-8E762609D01C";
name = Bold;
paths = (
{
closed = 1;
nodes = (
"592 1391 LINE",
"592 1599 LINE",
"397 1599 LINE",
"397 1391 LINE"
);
},
{
closed = 1;
nodes = (
"109 0 LINE",
"911 0 LINE",
"911 207 LINE",
"340 207 LINE",
"340 532 LINE",
"819 532 LINE",
"819 739 LINE",
"340 739 LINE",
"340 1036 LINE",
"899 1036 LINE",
"899 1241 LINE",
"109 1241 LINE"
);
}
);
width = 991;
}
);
unicode = 0116;
},
{
glyphname = Egrave;
layers = (
{
layerId = "3CB5DA74-10A0-4C7B-8F49-8E762609D01C";
name = Bold;
paths = (
{
closed = 1;
nodes = (
"899 1241 LINE",
"109 1241 LINE",
"109 0 LINE",
"911 0 LINE",
"911 207 LINE",
"340 207 LINE",
"340 532 LINE",
"819 532 LINE",
"819 739 LINE",
"340 739 LINE",
"340 1036 LINE",
"899 1036 LINE"
);
},
{
closed = 1;
nodes = (
"463 1599 LINE",
"246 1599 LINE",
"244 1593 LINE",
"440 1360 LINE",
"618 1360 LINE"
);
}
);
width = 991;
}
);
unicode = 00C8;
},
{
glyphname = Emacron;
layers = (
{
layerId = "3CB5DA74-10A0-4C7B-8F49-8E762609D01C";
name = Bold;
paths = (
{
closed = 1;
nodes = (
"725 1374 LINE",
"725 1532 LINE",
"264 1532 LINE",
"264 1374 LINE"
);
},
{
closed = 1;
nodes = (
"109 0 LINE",
"911 0 LINE",
"911 207 LINE",
"340 207 LINE",
"340 532 LINE",
"819 532 LINE",
"819 739 LINE",
"340 739 LINE",
"340 1036 LINE",
"899 1036 LINE",
"899 1241 LINE",
"109 1241 LINE"
);
}
);
width = 991;
}
);
unicode = 0112;
},
{
glyphname = Eogonek;
layers = (
{
layerId = "3CB5DA74-10A0-4C7B-8F49-8E762609D01C";
name = Bold;
paths = (
{
closed = 1;
nodes = (
"899 1036 LINE",
"899 1241 LINE",
"109 1241 LINE",
"109 0 LINE",
"758 0 LINE",
"715 -45 OFFCURVE",
"678 -96 OFFCURVE",
"678 -180 CURVE SMOOTH",
"678 -305 OFFCURVE",
"774 -344 OFFCURVE",
"858 -344 CURVE SMOOTH",
"897 -344 OFFCURVE",
"936 -336 OFFCURVE",
"977 -319 CURVE",
"977 -219 LINE",
"938 -219 LINE SMOOTH",
"879 -219 OFFCURVE",
"856 -174 OFFCURVE",
"856 -127 CURVE SMOOTH",
"856 -76 OFFCURVE",
"889 -25 OFFCURVE",
"911 0 CURVE",
"911 207 LINE",
"340 207 LINE",
"340 532 LINE",
"819 532 LINE",
"819 739 LINE",
"340 739 LINE",
"340 1036 LINE"
);
}
);
width = 991;
}
);
unicode = 0118;
},
{
glyphname = F;
layers = (
{
layerId = "3CB5DA74-10A0-4C7B-8F49-8E762609D01C";
name = Bold;
paths = (
{
closed = 1;
nodes = (
"109 0 LINE",
"340 0 LINE",
"340 516 LINE",
"766 516 LINE",
"766 723 LINE",
"340 723 LINE",
"340 1036 LINE",
"838 1036 LINE",
"838 1241 LINE",
"109 1241 LINE"
);
}
);
width = 907;
}
);
unicode = 0046;
},
{
glyphname = G;
layers = (
{
anchors = (
{
name = bottom;
position = "{578, 0}";
},
{
name = top;
position = "{578, 1241}";
}
);
layerId = "3CB5DA74-10A0-4C7B-8F49-8E762609D01C";
name = Bold;
paths = (
{
closed = 1;
nodes = (
"254 1264 OFFCURVE",
"61 1059 OFFCURVE",
"61 621 CURVE SMOOTH",
"61 180 OFFCURVE",
"238 -23 OFFCURVE",
"541 -23 CURVE SMOOTH",
"672 -23 OFFCURVE",
"793 33 OFFCURVE",
"872 137 CURVE",
"913 0 LINE",
"1063 0 LINE",
"1063 676 LINE",
"547 676 LINE",
"547 475 LINE",
"924 475 LINE",
"825 563 LINE",
"825 475 LINE SMOOTH",
"825 293 OFFCURVE",
"725 178 OFFCURVE",
"584 178 CURVE SMOOTH",
"389 178 OFFCURVE",
"301 322 OFFCURVE",
"301 575 CURVE SMOOTH",
"301 666 LINE SMOOTH",
"301 913 OFFCURVE",
"387 1065 OFFCURVE",
"582 1065 CURVE SMOOTH",
"715 1065 OFFCURVE",
"825 975 OFFCURVE",
"825 807 CURVE",
"1063 807 LINE",
"1063 1104 OFFCURVE",
"838 1264 OFFCURVE",
"588 1264 CURVE SMOOTH"
);
}
);
width = 1155;
}
);
unicode = 0047;
},
{
glyphname = Gbreve;
layers = (
{
layerId = "3CB5DA74-10A0-4C7B-8F49-8E762609D01C";
name = Bold;
paths = (
{
closed = 1;
nodes = (
"686 1599 LINE",
"682 1573 OFFCURVE",
"639 1538 OFFCURVE",
"578 1538 CURVE SMOOTH",
"518 1538 OFFCURVE",
"475 1573 OFFCURVE",
"471 1599 CURVE",
"336 1599 LINE",
"336 1507 OFFCURVE",
"430 1405 OFFCURVE",
"578 1405 CURVE SMOOTH",
"727 1405 OFFCURVE",
"819 1507 OFFCURVE",
"819 1599 CURVE"
);
},
{
closed = 1;
nodes = (
"254 1264 OFFCURVE",
"61 1059 OFFCURVE",
"61 621 CURVE SMOOTH",
"61 180 OFFCURVE",
"238 -23 OFFCURVE",
"541 -23 CURVE SMOOTH",
"672 -23 OFFCURVE",
"793 33 OFFCURVE",
"872 137 CURVE",
"913 0 LINE",
"1063 0 LINE",
"1063 676 LINE",
"547 676 LINE",
"547 475 LINE",
"924 475 LINE",
"825 563 LINE",
"825 475 LINE SMOOTH",
"825 293 OFFCURVE",
"725 178 OFFCURVE",
"584 178 CURVE SMOOTH",
"389 178 OFFCURVE",
"301 322 OFFCURVE",
"301 575 CURVE SMOOTH",
"301 666 LINE SMOOTH",
"301 913 OFFCURVE",
"387 1065 OFFCURVE",
"582 1065 CURVE SMOOTH",
"715 1065 OFFCURVE",
"825 975 OFFCURVE",
"825 807 CURVE",
"1063 807 LINE",
"1063 1104 OFFCURVE",
"838 1264 OFFCURVE",
"588 1264 CURVE SMOOTH"
);
}
);
width = 1155;
}
);
unicode = 011E;
},
{
glyphname = Gcircumflex;
layers = (
{
layerId = "3CB5DA74-10A0-4C7B-8F49-8E762609D01C";
name = Bold;
paths = (
{
closed = 1;
nodes = (
"821 1354 LINE",
"668 1599 LINE",
"492 1599 LINE",
"336 1354 LINE",
"498 1354 LINE",
"580 1479 LINE",
"659 1354 LINE"
);
},
{
closed = 1;
nodes = (
"254 1264 OFFCURVE",
"61 1059 OFFCURVE",
"61 621 CURVE SMOOTH",
"61 180 OFFCURVE",
"238 -23 OFFCURVE",
"541 -23 CURVE SMOOTH",
"672 -23 OFFCURVE",
"793 33 OFFCURVE",
"872 137 CURVE",
"913 0 LINE",
"1063 0 LINE",
"1063 676 LINE",
"547 676 LINE",
"547 475 LINE",
"924 475 LINE",
"825 563 LINE",
"825 475 LINE SMOOTH",
"825 293 OFFCURVE",
"725 178 OFFCURVE",
"584 178 CURVE SMOOTH",
"389 178 OFFCURVE",
"301 322 OFFCURVE",
"301 575 CURVE SMOOTH",
"301 666 LINE SMOOTH",
"301 913 OFFCURVE",
"387 1065 OFFCURVE",
"582 1065 CURVE SMOOTH",
"715 1065 OFFCURVE",
"825 975 OFFCURVE",
"825 807 CURVE",
"1063 807 LINE",
"1063 1104 OFFCURVE",
"838 1264 OFFCURVE",
"588 1264 CURVE SMOOTH"
);
}
);
width = 1155;
}
);
unicode = 011C;
},
{
glyphname = Gcommaaccent;
layers = (
{
layerId = "3CB5DA74-10A0-4C7B-8F49-8E762609D01C";
name = Bold;
paths = (
{
closed = 1;
nodes = (
"662 -303 LINE",
"662 -100 LINE",
"438 -100 LINE",
"438 -322 LINE",
"526 -322 LINE",
"461 -475 LINE",
"580 -475 LINE"
);
},
{
closed = 1;
nodes = (
"254 1264 OFFCURVE",
"61 1059 OFFCURVE",
"61 621 CURVE SMOOTH",
"61 180 OFFCURVE",
"238 -23 OFFCURVE",
"541 -23 CURVE SMOOTH",
"672 -23 OFFCURVE",
"793 33 OFFCURVE",
"872 137 CURVE",
"913 0 LINE",
"1063 0 LINE",
"1063 676 LINE",
"547 676 LINE",
"547 475 LINE",
"924 475 LINE",
"825 563 LINE",
"825 475 LINE SMOOTH",
"825 293 OFFCURVE",
"725 178 OFFCURVE",
"584 178 CURVE SMOOTH",
"389 178 OFFCURVE",
"301 322 OFFCURVE",
"301 575 CURVE SMOOTH",
"301 666 LINE SMOOTH",
"301 913 OFFCURVE",
"387 1065 OFFCURVE",
"582 1065 CURVE SMOOTH",
"715 1065 OFFCURVE",
"825 975 OFFCURVE",
"825 807 CURVE",
"1063 807 LINE",
"1063 1104 OFFCURVE",
"838 1264 OFFCURVE",
"588 1264 CURVE SMOOTH"
);
}
);
width = 1155;
}
);
unicode = 0122;
},
{
glyphname = Gdotaccent;
layers = (
{
layerId = "3CB5DA74-10A0-4C7B-8F49-8E762609D01C";
name = Bold;
paths = (
{
closed = 1;
nodes = (
"676 1391 LINE",
"676 1599 LINE",
"481 1599 LINE",
"481 1391 LINE"
);
},
{
closed = 1;
nodes = (
"254 1264 OFFCURVE",
"61 1059 OFFCURVE",
"61 621 CURVE SMOOTH",
"61 180 OFFCURVE",
"238 -23 OFFCURVE",
"541 -23 CURVE SMOOTH",
"672 -23 OFFCURVE",
"793 33 OFFCURVE",
"872 137 CURVE",
"913 0 LINE",
"1063 0 LINE",
"1063 676 LINE",
"547 676 LINE",
"547 475 LINE",
"924 475 LINE",
"825 563 LINE",
"825 475 LINE SMOOTH",
"825 293 OFFCURVE",
"725 178 OFFCURVE",
"584 178 CURVE SMOOTH",
"389 178 OFFCURVE",
"301 322 OFFCURVE",
"301 575 CURVE SMOOTH",
"301 666 LINE SMOOTH",
"301 913 OFFCURVE",
"387 1065 OFFCURVE",
"582 1065 CURVE SMOOTH",
"715 1065 OFFCURVE",
"825 975 OFFCURVE",
"825 807 CURVE",
"1063 807 LINE",
"1063 1104 OFFCURVE",
"838 1264 OFFCURVE",
"588 1264 CURVE SMOOTH"
);
}
);
width = 1155;
}
);
unicode = 0120;
},
{
glyphname = H;
layers = (
{
anchors = (
{
name = center;
position = "{537, 621}";
},
{
name = top;
position = "{537, 1241}";
}
);
layerId = "3CB5DA74-10A0-4C7B-8F49-8E762609D01C";
name = Bold;
paths = (
{
closed = 1;
nodes = (
"963 1241 LINE",
"731 1241 LINE",
"731 739 LINE",
"340 739 LINE",
"340 1241 LINE",
"109 1241 LINE",
"109 0 LINE",
"340 0 LINE",
"340 532 LINE",
"731 532 LINE",
"731 0 LINE",
"963 0 LINE"
);
}
);
width = 1071;
}
);
unicode = 0048;
},
{
glyphname = Hbar;
layers = (
{
layerId = "3CB5DA74-10A0-4C7B-8F49-8E762609D01C";
name = Bold;
paths = (
{
closed = 1;
nodes = (
"1053 887 LINE",
"1053 1044 LINE",
"963 1044 LINE",
"963 1241 LINE",
"731 1241 LINE",
"731 1044 LINE",
"340 1044 LINE",
"340 1241 LINE",
"109 1241 LINE",
"109 1044 LINE",
"18 1044 LINE",
"18 887 LINE",
"109 887 LINE",
"109 0 LINE",
"340 0 LINE",
"340 520 LINE",
"731 520 LINE",
"731 0 LINE",
"963 0 LINE",
"963 887 LINE"
);
},
{
closed = 1;
nodes = (
"731 725 LINE",
"340 725 LINE",
"340 887 LINE",
"731 887 LINE"
);
}
);
width = 1071;
}
);
unicode = 0126;
},
{
glyphname = Hcircumflex;
layers = (
{
layerId = "3CB5DA74-10A0-4C7B-8F49-8E762609D01C";
name = Bold;
paths = (
{
closed = 1;
nodes = (
"963 1241 LINE",
"731 1241 LINE",
"731 739 LINE",
"340 739 LINE",
"340 1241 LINE",
"109 1241 LINE",
"109 0 LINE",
"340 0 LINE",
"340 532 LINE",
"731 532 LINE",
"731 0 LINE",
"963 0 LINE"
);
},
{
closed = 1;
nodes = (
"627 1599 LINE",
"449 1599 LINE",
"293 1354 LINE",
"455 1354 LINE",
"537 1479 LINE",
"616 1354 LINE",
"780 1354 LINE"
);
}
);
width = 1071;
}
);
unicode = 0124;
},
{
glyphname = I;
layers = (
{
anchors = (
{
name = ogonek;
position = "{371, 18}";
},
{
name = top;
position = "{207, 1241}";
}
);
layerId = "3CB5DA74-10A0-4C7B-8F49-8E762609D01C";
name = Bold;
paths = (
{
closed = 1;
nodes = (
"322 0 LINE",
"322 1241 LINE",
"90 1241 LINE",
"90 0 LINE"
);
}
);
width = 414;
}
);
unicode = 0049;
},
{
glyphname = IJ;
layers = (
{
layerId = "3CB5DA74-10A0-4C7B-8F49-8E762609D01C";
name = Bold;
paths = (
{
closed = 1;
nodes = (
"1130 1241 LINE",
"897 1241 LINE",
"897 313 LINE SMOOTH",
"897 225 OFFCURVE",
"858 178 OFFCURVE",
"780 178 CURVE SMOOTH",
"700 178 OFFCURVE",
"659 225 OFFCURVE",
"659 313 CURVE SMOOTH",
"659 391 LINE",
"430 391 LINE",
"430 295 LINE SMOOTH",
"430 88 OFFCURVE",
"555 -23 OFFCURVE",
"780 -23 CURVE SMOOTH",
"1006 -23 OFFCURVE",
"1130 88 OFFCURVE",
"1130 295 CURVE SMOOTH"
);
},
{
closed = 1;
nodes = (
"322 1241 LINE",
"90 1241 LINE",
"90 0 LINE",
"322 0 LINE"
);
}
);
width = 1239;
}
);
unicode = 0132;
},
{
glyphname = Iacute;
layers = (
{
layerId = "3CB5DA74-10A0-4C7B-8F49-8E762609D01C";
name = Bold;
paths = (
{
closed = 1;
nodes = (
"322 1241 LINE",
"90 1241 LINE",
"90 0 LINE",
"322 0 LINE"
);
},
{
closed = 1;
nodes = (
"455 1599 LINE",
"238 1599 LINE",
"82 1360 LINE",
"262 1360 LINE",
"457 1593 LINE"
);
}
);
width = 414;
}
);
unicode = 00CD;
},
{
glyphname = Ibreve;
layers = (
{
layerId = "3CB5DA74-10A0-4C7B-8F49-8E762609D01C";
name = Bold;
paths = (
{
closed = 1;
nodes = (
"322 0 LINE",
"322 1241 LINE",
"90 1241 LINE",
"90 0 LINE"
);
},
{
closed = 1;
nodes = (
"315 1599 LINE",
"311 1573 OFFCURVE",
"268 1538 OFFCURVE",
"207 1538 CURVE SMOOTH",
"147 1538 OFFCURVE",
"104 1573 OFFCURVE",
"100 1599 CURVE",
"-37 1599 LINE",
"-37 1507 OFFCURVE",
"57 1405 OFFCURVE",
"207 1405 CURVE SMOOTH",
"356 1405 OFFCURVE",
"449 1507 OFFCURVE",
"449 1599 CURVE"
);
}
);
width = 414;
}
);
unicode = 012C;
},
{
glyphname = Icircumflex;
layers = (
{
layerId = "3CB5DA74-10A0-4C7B-8F49-8E762609D01C";
name = Bold;
paths = (
{
closed = 1;
nodes = (
"322 0 LINE",
"322 1241 LINE",
"90 1241 LINE",
"90 0 LINE"
);
},
{
closed = 1;
nodes = (
"451 1354 LINE",
"297 1599 LINE",
"119 1599 LINE",
"-39 1354 LINE",
"127 1354 LINE",
"209 1479 LINE",
"289 1354 LINE"
);
}
);
width = 414;
}
);
unicode = 00CE;
},
{
glyphname = Idieresis;
layers = (
{
layerId = "3CB5DA74-10A0-4C7B-8F49-8E762609D01C";
name = Bold;
paths = (
{
closed = 1;
nodes = (
"322 1241 LINE",
"90 1241 LINE",
"90 0 LINE",
"322 0 LINE"
);
},
{
closed = 1;
nodes = (
"139 1599 LINE",
"-41 1599 LINE",
"-41 1401 LINE",
"139 1401 LINE"
);
},
{
closed = 1;
nodes = (
"457 1599 LINE",
"274 1599 LINE",
"274 1401 LINE",
"457 1401 LINE"
);
}
);
width = 414;
}
);
unicode = 00CF;
},
{
glyphname = Idotaccent;
layers = (
{
layerId = "3CB5DA74-10A0-4C7B-8F49-8E762609D01C";
name = Bold;
paths = (
{
closed = 1;
nodes = (
"322 0 LINE",
"322 1241 LINE",
"90 1241 LINE",
"90 0 LINE"
);
},
{
closed = 1;
nodes = (
"305 1391 LINE",
"305 1599 LINE",
"111 1599 LINE",
"111 1391 LINE"
);
}
);
width = 414;
}
);
unicode = 0130;
},
{
glyphname = Igrave;
layers = (
{
layerId = "3CB5DA74-10A0-4C7B-8F49-8E762609D01C";
name = Bold;
paths = (
{
closed = 1;
nodes = (
"322 1241 LINE",
"90 1241 LINE",
"90 0 LINE",
"322 0 LINE"
);
},
{
closed = 1;
nodes = (
"176 1599 LINE",
"-41 1599 LINE",
"-43 1593 LINE",
"152 1360 LINE",
"332 1360 LINE"
);
}
);
width = 414;
}
);
unicode = 00CC;
},
{
glyphname = Imacron;
layers = (
{
layerId = "3CB5DA74-10A0-4C7B-8F49-8E762609D01C";
name = Bold;
paths = (
{
closed = 1;
nodes = (
"322 0 LINE",
"322 1241 LINE",
"90 1241 LINE",
"90 0 LINE"
);
},
{
closed = 1;
nodes = (
"438 1374 LINE",
"438 1532 LINE",
"-25 1532 LINE",
"-25 1374 LINE"
);
}
);
width = 414;
}
);
unicode = 012A;
},
{
glyphname = Iogonek;
layers = (
{
layerId = "3CB5DA74-10A0-4C7B-8F49-8E762609D01C";
name = Bold;
paths = (
{
closed = 1;
nodes = (
"322 1241 LINE",
"90 1241 LINE",
"90 0 LINE",
"170 0 LINE",
"127 -45 OFFCURVE",
"90 -96 OFFCURVE",
"90 -180 CURVE SMOOTH",
"90 -305 OFFCURVE",
"188 -344 OFFCURVE",
"270 -344 CURVE SMOOTH",
"309 -344 OFFCURVE",
"348 -336 OFFCURVE",
"389 -319 CURVE",
"389 -219 LINE",
"350 -219 LINE SMOOTH",
"289 -219 OFFCURVE",
"268 -174 OFFCURVE",
"268 -127 CURVE SMOOTH",
"268 -76 OFFCURVE",
"303 -25 OFFCURVE",
"322 0 CURVE"
);
}
);
width = 414;
}
);
unicode = 012E;
},
{
glyphname = Itilde;
layers = (
{
layerId = "3CB5DA74-10A0-4C7B-8F49-8E762609D01C";
name = Bold;
paths = (
{
closed = 1;
nodes = (
"322 0 LINE",
"322 1241 LINE",
"90 1241 LINE",
"90 0 LINE"
);
},
{
closed = 1;
nodes = (
"391 1599 LINE",
"383 1548 OFFCURVE",
"360 1532 OFFCURVE",
"322 1532 CURVE SMOOTH",
"240 1532 OFFCURVE",
"170 1599 OFFCURVE",
"80 1599 CURVE SMOOTH",
"-47 1599 OFFCURVE",
"-98 1477 OFFCURVE",
"-98 1378 CURVE",
"23 1378 LINE",
"31 1427 OFFCURVE",
"55 1444 OFFCURVE",
"94 1444 CURVE SMOOTH",
"176 1444 OFFCURVE",
"246 1378 OFFCURVE",
"334 1378 CURVE SMOOTH",
"461 1378 OFFCURVE",
"512 1499 OFFCURVE",
"512 1599 CURVE"
);
}
);
width = 414;
}
);
unicode = 0128;
},
{
glyphname = J;
layers = (
{
anchors = (
{
name = top;
position = "{414, 1241}";
}
);
layerId = "3CB5DA74-10A0-4C7B-8F49-8E762609D01C";
name = Bold;
paths = (
{
closed = 1;
nodes = (
"717 1241 LINE",
"485 1241 LINE",
"485 313 LINE SMOOTH",
"485 225 OFFCURVE",
"444 178 OFFCURVE",
"367 178 CURVE SMOOTH",
"289 178 OFFCURVE",
"246 225 OFFCURVE",
"246 313 CURVE SMOOTH",
"246 391 LINE",
"16 391 LINE",
"16 295 LINE SMOOTH",
"16 88 OFFCURVE",
"143 -23 OFFCURVE",
"367 -23 CURVE SMOOTH",
"592 -23 OFFCURVE",
"717 88 OFFCURVE",
"717 295 CURVE SMOOTH"
);
}
);
width = 825;
}
);
unicode = 004A;
},
{
glyphname = Jcircumflex;
layers = (
{
layerId = "3CB5DA74-10A0-4C7B-8F49-8E762609D01C";
name = Bold;
paths = (
{
closed = 1;
nodes = (
"717 1241 LINE",
"485 1241 LINE",
"485 313 LINE SMOOTH",
"485 225 OFFCURVE",
"444 178 OFFCURVE",
"367 178 CURVE SMOOTH",
"289 178 OFFCURVE",
"246 225 OFFCURVE",
"246 313 CURVE SMOOTH",
"246 391 LINE",
"16 391 LINE",
"16 295 LINE SMOOTH",
"16 88 OFFCURVE",
"143 -23 OFFCURVE",
"367 -23 CURVE SMOOTH",
"592 -23 OFFCURVE",
"717 88 OFFCURVE",
"717 295 CURVE SMOOTH"
);
},
{
closed = 1;
nodes = (
"715 1599 LINE",
"537 1599 LINE",
"381 1354 LINE",
"543 1354 LINE",
"625 1479 LINE",
"707 1354 LINE",
"866 1354 LINE"
);
}
);
width = 825;
}
);
unicode = 0134;
},
{
glyphname = K;
layers = (
{
anchors = (
{
name = bottom;
position = "{537, 0}";
},
{
name = top;
position = "{537, 1241}";
}
);
layerId = "3CB5DA74-10A0-4C7B-8F49-8E762609D01C";
name = Bold;
paths = (
{
closed = 1;
nodes = (
"342 606 LINE",
"342 1241 LINE",
"109 1241 LINE",
"109 0 LINE",
"342 0 LINE",
"342 317 LINE",
"537 555 LINE",
"805 0 LINE",
"1067 0 LINE",
"688 737 LINE",
"1055 1241 LINE",
"797 1241 LINE"
);
}
);
width = 1071;
}
);
unicode = 004B;
},
{
glyphname = Kcommaaccent;
layers = (
{
layerId = "3CB5DA74-10A0-4C7B-8F49-8E762609D01C";
name = Bold;
paths = (
{
closed = 1;
nodes = (
"647 -303 LINE",
"647 -100 LINE",
"424 -100 LINE",
"424 -322 LINE",
"512 -322 LINE",
"449 -475 LINE",
"565 -475 LINE"
);
},
{
closed = 1;
nodes = (
"342 606 LINE",
"342 1241 LINE",
"109 1241 LINE",
"109 0 LINE",
"342 0 LINE",
"342 317 LINE",
"537 555 LINE",
"805 0 LINE",
"1067 0 LINE",
"688 737 LINE",
"1055 1241 LINE",
"797 1241 LINE"
);
}
);
width = 1071;
}
);
unicode = 0136;
},
{
glyphname = L;
layers = (
{
anchors = (
{
name = bottom;
position = "{455, 0}";
},
{
name = top;
position = "{455, 1241}";
}
);
layerId = "3CB5DA74-10A0-4C7B-8F49-8E762609D01C";
name = Bold;
paths = (
{
closed = 1;
nodes = (
"340 1241 LINE",
"109 1241 LINE",
"109 0 LINE",
"866 0 LINE",
"866 217 LINE",
"340 217 LINE"
);
}
);
width = 907;
}
);
unicode = 004C;
},
{
glyphname = Lacute;
layers = (
{
layerId = "3CB5DA74-10A0-4C7B-8F49-8E762609D01C";
name = Bold;
paths = (
{
closed = 1;
nodes = (
"340 1241 LINE",
"109 1241 LINE",
"109 0 LINE",
"866 0 LINE",
"866 217 LINE",
"340 217 LINE"
);
},
{
closed = 1;
nodes = (
"477 1599 LINE",
"260 1599 LINE",
"104 1360 LINE",
"285 1360 LINE",
"479 1593 LINE"
);
}
);
width = 907;
}
);
unicode = 0139;
},
{
glyphname = Lcaron;
layers = (
{
layerId = "3CB5DA74-10A0-4C7B-8F49-8E762609D01C";
name = Bold;
paths = (
{
closed = 1;
nodes = (
"340 1241 LINE",
"109 1241 LINE",
"109 0 LINE",
"866 0 LINE",
"866 217 LINE",
"340 217 LINE"
);
},
{
closed = 1;
nodes = (
"866 1241 LINE",
"616 1241 LINE",
"616 993 LINE",
"715 993 LINE",
"616 711 LINE",
"745 711 LINE",
"866 1016 LINE"
);
}
);
width = 907;
}
);
unicode = 013D;
},
{
glyphname = Lcommaaccent;
layers = (
{
layerId = "3CB5DA74-10A0-4C7B-8F49-8E762609D01C";
name = Bold;
paths = (
{
closed = 1;
nodes = (
"340 1241 LINE",
"109 1241 LINE",
"109 0 LINE",
"866 0 LINE",
"866 217 LINE",
"340 217 LINE"
);
},
{
closed = 1;
nodes = (
"565 -100 LINE",
"342 -100 LINE",
"342 -322 LINE",
"430 -322 LINE",
"367 -475 LINE",
"483 -475 LINE",
"565 -303 LINE"
);
}
);
width = 907;
}
);
unicode = 013B;
},
{
glyphname = Ldot;
layers = (
{
layerId = "3CB5DA74-10A0-4C7B-8F49-8E762609D01C";
name = Bold;
paths = (
{
closed = 1;
nodes = (
"340 1241 LINE",
"109 1241 LINE",
"109 0 LINE",
"866 0 LINE",
"866 217 LINE",
"340 217 LINE"
);
},
{
closed = 1;
nodes = (
"760 948 LINE",
"567 948 LINE",
"567 741 LINE",
"760 741 LINE"
);
}
);
width = 907;
}
);
unicode = 013F;
},
{
glyphname = Lslash;
layers = (
{
layerId = "3CB5DA74-10A0-4C7B-8F49-8E762609D01C";
name = Bold;
paths = (
{
closed = 1;
nodes = (
"340 1241 LINE",
"109 1241 LINE",
"109 600 LINE",
"0 506 LINE",
"0 334 LINE",
"109 430 LINE",
"109 0 LINE",
"866 0 LINE",
"866 217 LINE",
"340 217 LINE",
"340 633 LINE",
"551 819 LINE",
"551 995 LINE",
"340 807 LINE"
);
}
);
width = 907;
}
);
unicode = 0141;
},
{
glyphname = M;
layers = (
{
layerId = "3CB5DA74-10A0-4C7B-8F49-8E762609D01C";
name = Bold;
paths = (
{
closed = 1;
nodes = (
"1141 1241 LINE",
"825 1241 LINE",
"674 557 LINE SMOOTH",
"657 485 OFFCURVE",
"633 276 OFFCURVE",
"633 276 CURVE SMOOTH",
"625 276 LINE SMOOTH",
"625 276 OFFCURVE",
"594 475 OFFCURVE",
"575 557 CURVE SMOOTH",
"422 1241 LINE",
"96 1241 LINE",
"96 0 LINE",
"293 0 LINE",
"293 791 LINE SMOOTH",
"293 840 OFFCURVE",
"285 991 OFFCURVE",
"285 991 CURVE",
"291 991 LINE",
"305 926 OFFCURVE",
"319 862 OFFCURVE",
"336 797 CURVE SMOOTH",
"510 0 LINE",
"711 0 LINE",
"897 850 LINE SMOOTH",
"909 897 OFFCURVE",
"918 944 OFFCURVE",
"928 991 CURVE",
"936 991 LINE",
"936 991 OFFCURVE",
"928 848 OFFCURVE",
"928 791 CURVE SMOOTH",
"928 0 LINE",
"1141 0 LINE"
);
}
);
width = 1237;
}
);
unicode = 004D;
},
{
glyphname = N;
layers = (
{
anchors = (
{
name = bottom;
position = "{537, 0}";
},
{
name = top;
position = "{537, 1241}";
}
);
layerId = "3CB5DA74-10A0-4C7B-8F49-8E762609D01C";
name = Bold;
paths = (
{
closed = 1;
nodes = (
"963 1241 LINE",
"758 1241 LINE",
"758 551 LINE SMOOTH",
"758 530 OFFCURVE",
"758 446 OFFCURVE",
"758 446 CURVE",
"754 442 LINE",
"754 442 OFFCURVE",
"717 526 OFFCURVE",
"696 557 CURVE SMOOTH",
"313 1241 LINE",
"109 1241 LINE",
"109 0 LINE",
"313 0 LINE",
"313 692 LINE SMOOTH",
"313 725 OFFCURVE",
"309 795 OFFCURVE",
"309 795 CURVE",
"317 801 LINE",
"317 801 OFFCURVE",
"358 711 OFFCURVE",
"373 684 CURVE SMOOTH",
"758 0 LINE",
"963 0 LINE"
);
}
);
width = 1071;
}
);
unicode = 004E;
},
{
glyphname = Nacute;
layers = (
{
layerId = "3CB5DA74-10A0-4C7B-8F49-8E762609D01C";
name = Bold;
paths = (
{
closed = 1;
nodes = (
"963 1241 LINE",
"758 1241 LINE",
"758 551 LINE SMOOTH",
"758 530 OFFCURVE",
"758 446 OFFCURVE",
"758 446 CURVE",
"754 442 LINE",
"754 442 OFFCURVE",
"717 526 OFFCURVE",
"696 557 CURVE SMOOTH",
"313 1241 LINE",
"109 1241 LINE",
"109 0 LINE",
"313 0 LINE",
"313 692 LINE SMOOTH",
"313 725 OFFCURVE",
"309 795 OFFCURVE",
"309 795 CURVE",
"317 801 LINE",
"317 801 OFFCURVE",
"358 711 OFFCURVE",
"373 684 CURVE SMOOTH",
"758 0 LINE",
"963 0 LINE"
);
},
{
closed = 1;
nodes = (
"784 1599 LINE",
"567 1599 LINE",
"412 1360 LINE",
"590 1360 LINE",
"786 1593 LINE"
);
}
);
width = 1071;
}
);
unicode = 0143;
},
{
glyphname = Ncaron;
layers = (
{
layerId = "3CB5DA74-10A0-4C7B-8F49-8E762609D01C";
name = Bold;
paths = (
{
closed = 1;
nodes = (
"963 1241 LINE",
"758 1241 LINE",
"758 551 LINE SMOOTH",
"758 530 OFFCURVE",
"758 446 OFFCURVE",
"758 446 CURVE",
"754 442 LINE",
"754 442 OFFCURVE",
"717 526 OFFCURVE",
"696 557 CURVE SMOOTH",
"313 1241 LINE",
"109 1241 LINE",
"109 0 LINE",
"313 0 LINE",
"313 692 LINE SMOOTH",
"313 725 OFFCURVE",
"309 795 OFFCURVE",
"309 795 CURVE",
"317 801 LINE",
"317 801 OFFCURVE",
"358 711 OFFCURVE",
"373 684 CURVE SMOOTH",
"758 0 LINE",
"963 0 LINE"
);
},
{
closed = 1;
nodes = (
"780 1599 LINE",
"616 1599 LINE",
"537 1475 LINE",
"455 1599 LINE",
"293 1599 LINE",
"449 1354 LINE",
"627 1354 LINE"
);
}
);
width = 1071;
}
);
unicode = 0147;
},
{
glyphname = Ncommaaccent;
layers = (
{
layerId = "3CB5DA74-10A0-4C7B-8F49-8E762609D01C";
name = Bold;
paths = (
{
closed = 1;
nodes = (
"963 1241 LINE",
"758 1241 LINE",
"758 551 LINE SMOOTH",
"758 530 OFFCURVE",
"758 446 OFFCURVE",
"758 446 CURVE",
"754 442 LINE",
"754 442 OFFCURVE",
"717 526 OFFCURVE",
"696 557 CURVE SMOOTH",
"313 1241 LINE",
"109 1241 LINE",
"109 0 LINE",
"313 0 LINE",
"313 692 LINE SMOOTH",
"313 725 OFFCURVE",
"309 795 OFFCURVE",
"309 795 CURVE",
"317 801 LINE",
"317 801 OFFCURVE",
"358 711 OFFCURVE",
"373 684 CURVE SMOOTH",
"758 0 LINE",
"963 0 LINE"
);
},
{
closed = 1;
nodes = (
"647 -100 LINE",
"424 -100 LINE",
"424 -322 LINE",
"512 -322 LINE",
"449 -475 LINE",
"565 -475 LINE",
"647 -303 LINE"
);
}
);
width = 1071;
}
);
unicode = 0145;
},
{
glyphname = Eng;
layers = (
{
layerId = "3CB5DA74-10A0-4C7B-8F49-8E762609D01C";
name = Bold;
paths = (
{
closed = 1;
nodes = (
"963 1241 LINE",
"758 1241 LINE",
"758 551 LINE SMOOTH",
"758 530 OFFCURVE",
"758 446 OFFCURVE",
"758 446 CURVE",
"754 442 LINE",
"754 442 OFFCURVE",
"717 526 OFFCURVE",
"696 557 CURVE SMOOTH",
"313 1241 LINE",
"109 1241 LINE",
"109 0 LINE",
"313 0 LINE",
"313 692 LINE SMOOTH",
"313 725 OFFCURVE",
"309 795 OFFCURVE",
"309 795 CURVE",
"317 801 LINE",
"317 801 OFFCURVE",
"358 711 OFFCURVE",
"373 684 CURVE SMOOTH",
"752 0 LINE",
"752 -59 LINE SMOOTH",
"752 -117 OFFCURVE",
"723 -147 OFFCURVE",
"666 -147 CURVE SMOOTH",
"586 -147 LINE",
"586 -307 LINE",
"623 -319 OFFCURVE",
"688 -330 OFFCURVE",
"741 -330 CURVE SMOOTH",
"915 -330 OFFCURVE",
"963 -201 OFFCURVE",
"963 -74 CURVE SMOOTH"
);
}
);
width = 1073;
}
);
unicode = 014A;
},
{
glyphname = Ntilde;
layers = (
{
layerId = "3CB5DA74-10A0-4C7B-8F49-8E762609D01C";
name = Bold;
paths = (
{
closed = 1;
nodes = (
"963 1241 LINE",
"758 1241 LINE",
"758 551 LINE SMOOTH",
"758 530 OFFCURVE",
"758 446 OFFCURVE",
"758 446 CURVE",
"754 442 LINE",
"754 442 OFFCURVE",
"717 526 OFFCURVE",
"696 557 CURVE SMOOTH",
"313 1241 LINE",
"109 1241 LINE",
"109 0 LINE",
"313 0 LINE",
"313 692 LINE SMOOTH",
"313 725 OFFCURVE",
"309 795 OFFCURVE",
"309 795 CURVE",
"317 801 LINE",
"317 801 OFFCURVE",
"358 711 OFFCURVE",
"373 684 CURVE SMOOTH",
"758 0 LINE",
"963 0 LINE"
);
},
{
closed = 1;
nodes = (
"721 1599 LINE",
"713 1548 OFFCURVE",
"688 1532 OFFCURVE",
"649 1532 CURVE SMOOTH",
"569 1532 OFFCURVE",
"498 1599 OFFCURVE",
"410 1599 CURVE SMOOTH",
"283 1599 OFFCURVE",
"231 1477 OFFCURVE",
"231 1378 CURVE",
"350 1378 LINE",
"358 1427 OFFCURVE",
"383 1444 OFFCURVE",
"422 1444 CURVE SMOOTH",
"504 1444 OFFCURVE",
"573 1378 OFFCURVE",
"662 1378 CURVE SMOOTH",
"788 1378 OFFCURVE",
"840 1499 OFFCURVE",
"840 1599 CURVE"
);
}
);
width = 1071;
}
);
unicode = 00D1;
},
{
glyphname = O;
layers = (
{
anchors = (
{
name = top;
position = "{578, 1241}";
}
);
layerId = "3CB5DA74-10A0-4C7B-8F49-8E762609D01C";
name = Bold;
paths = (
{
closed = 1;
nodes = (
"258 1264 OFFCURVE",
"61 1059 OFFCURVE",
"61 621 CURVE SMOOTH",
"61 182 OFFCURVE",
"258 -23 OFFCURVE",
"578 -23 CURVE SMOOTH",
"897 -23 OFFCURVE",
"1094 182 OFFCURVE",
"1094 621 CURVE SMOOTH",
"1094 1059 OFFCURVE",
"897 1264 OFFCURVE",
"578 1264 CURVE SMOOTH"
);
},
{
closed = 1;
nodes = (
"762 1065 OFFCURVE",
"854 913 OFFCURVE",
"854 666 CURVE SMOOTH",
"854 575 LINE SMOOTH",
"854 328 OFFCURVE",
"762 178 OFFCURVE",
"578 178 CURVE SMOOTH",
"393 178 OFFCURVE",
"301 328 OFFCURVE",
"301 575 CURVE SMOOTH",
"301 666 LINE SMOOTH",
"301 913 OFFCURVE",
"393 1065 OFFCURVE",
"578 1065 CURVE SMOOTH"
);
}
);
width = 1155;
}
);
unicode = 004F;
},
{
glyphname = Oacute;
layers = (
{
layerId = "3CB5DA74-10A0-4C7B-8F49-8E762609D01C";
name = Bold;
paths = (
{
closed = 1;
nodes = (
"258 1264 OFFCURVE",
"61 1059 OFFCURVE",
"61 621 CURVE SMOOTH",
"61 182 OFFCURVE",
"258 -23 OFFCURVE",
"578 -23 CURVE SMOOTH",
"897 -23 OFFCURVE",
"1094 182 OFFCURVE",
"1094 621 CURVE SMOOTH",
"1094 1059 OFFCURVE",
"897 1264 OFFCURVE",
"578 1264 CURVE SMOOTH"
);
},
{
closed = 1;
nodes = (
"762 1065 OFFCURVE",
"854 913 OFFCURVE",
"854 666 CURVE SMOOTH",
"854 575 LINE SMOOTH",
"854 328 OFFCURVE",
"762 178 OFFCURVE",
"578 178 CURVE SMOOTH",
"393 178 OFFCURVE",
"301 328 OFFCURVE",
"301 575 CURVE SMOOTH",
"301 666 LINE SMOOTH",
"301 913 OFFCURVE",
"393 1065 OFFCURVE",
"578 1065 CURVE SMOOTH"
);
},
{
closed = 1;
nodes = (
"827 1599 LINE",
"608 1599 LINE",
"453 1360 LINE",
"633 1360 LINE",
"829 1593 LINE"
);
}
);
width = 1155;
}
);
unicode = 00D3;
},
{
glyphname = Obreve;
layers = (
{
layerId = "3CB5DA74-10A0-4C7B-8F49-8E762609D01C";
name = Bold;
paths = (
{
closed = 1;
nodes = (
"258 1264 OFFCURVE",
"61 1059 OFFCURVE",
"61 621 CURVE SMOOTH",
"61 182 OFFCURVE",
"258 -23 OFFCURVE",
"578 -23 CURVE SMOOTH",
"897 -23 OFFCURVE",
"1094 182 OFFCURVE",
"1094 621 CURVE SMOOTH",
"1094 1059 OFFCURVE",
"897 1264 OFFCURVE",
"578 1264 CURVE SMOOTH"
);
},
{
closed = 1;
nodes = (
"762 1065 OFFCURVE",
"854 913 OFFCURVE",
"854 666 CURVE SMOOTH",
"854 575 LINE SMOOTH",
"854 328 OFFCURVE",
"762 178 OFFCURVE",
"578 178 CURVE SMOOTH",
"393 178 OFFCURVE",
"301 328 OFFCURVE",
"301 575 CURVE SMOOTH",
"301 666 LINE SMOOTH",
"301 913 OFFCURVE",
"393 1065 OFFCURVE",
"578 1065 CURVE SMOOTH"
);
},
{
closed = 1;
nodes = (
"686 1599 LINE",
"682 1573 OFFCURVE",
"639 1538 OFFCURVE",
"578 1538 CURVE SMOOTH",
"518 1538 OFFCURVE",
"475 1573 OFFCURVE",
"471 1599 CURVE",
"336 1599 LINE",
"336 1507 OFFCURVE",
"430 1405 OFFCURVE",
"578 1405 CURVE SMOOTH",
"727 1405 OFFCURVE",
"819 1507 OFFCURVE",
"819 1599 CURVE"
);
}
);
width = 1155;
}
);
unicode = 014E;
},
{
glyphname = Ocircumflex;
layers = (
{
layerId = "3CB5DA74-10A0-4C7B-8F49-8E762609D01C";
name = Bold;
paths = (
{
closed = 1;
nodes = (
"258 1264 OFFCURVE",
"61 1059 OFFCURVE",
"61 621 CURVE SMOOTH",
"61 182 OFFCURVE",
"258 -23 OFFCURVE",
"578 -23 CURVE SMOOTH",
"897 -23 OFFCURVE",
"1094 182 OFFCURVE",
"1094 621 CURVE SMOOTH",
"1094 1059 OFFCURVE",
"897 1264 OFFCURVE",
"578 1264 CURVE SMOOTH"
);
},
{
closed = 1;
nodes = (
"762 1065 OFFCURVE",
"854 913 OFFCURVE",
"854 666 CURVE SMOOTH",
"854 575 LINE SMOOTH",
"854 328 OFFCURVE",
"762 178 OFFCURVE",
"578 178 CURVE SMOOTH",
"393 178 OFFCURVE",
"301 328 OFFCURVE",
"301 575 CURVE SMOOTH",
"301 666 LINE SMOOTH",
"301 913 OFFCURVE",
"393 1065 OFFCURVE",
"578 1065 CURVE SMOOTH"
);
},
{
closed = 1;
nodes = (
"821 1354 LINE",
"668 1599 LINE",
"492 1599 LINE",
"336 1354 LINE",
"498 1354 LINE",
"580 1479 LINE",
"659 1354 LINE"
);
}
);
width = 1155;
}
);
unicode = 00D4;
},
{
glyphname = Odieresis;
layers = (
{
layerId = "3CB5DA74-10A0-4C7B-8F49-8E762609D01C";
name = Bold;
paths = (
{
closed = 1;
nodes = (
"258 1264 OFFCURVE",
"61 1059 OFFCURVE",
"61 621 CURVE SMOOTH",
"61 182 OFFCURVE",
"258 -23 OFFCURVE",
"578 -23 CURVE SMOOTH",
"897 -23 OFFCURVE",
"1094 182 OFFCURVE",
"1094 621 CURVE SMOOTH",
"1094 1059 OFFCURVE",
"897 1264 OFFCURVE",
"578 1264 CURVE SMOOTH"
);
},
{
closed = 1;
nodes = (
"762 1065 OFFCURVE",
"854 913 OFFCURVE",
"854 666 CURVE SMOOTH",
"854 575 LINE SMOOTH",
"854 328 OFFCURVE",
"762 178 OFFCURVE",
"578 178 CURVE SMOOTH",
"393 178 OFFCURVE",
"301 328 OFFCURVE",
"301 575 CURVE SMOOTH",
"301 666 LINE SMOOTH",
"301 913 OFFCURVE",
"393 1065 OFFCURVE",
"578 1065 CURVE SMOOTH"
);
},
{
closed = 1;
nodes = (
"510 1599 LINE",
"330 1599 LINE",
"330 1401 LINE",
"510 1401 LINE"
);
},
{
closed = 1;
nodes = (
"827 1599 LINE",
"647 1599 LINE",
"647 1401 LINE",
"827 1401 LINE"
);
}
);
width = 1155;
}
);
unicode = 00D6;
},
{
glyphname = Ograve;
layers = (
{
layerId = "3CB5DA74-10A0-4C7B-8F49-8E762609D01C";
name = Bold;
paths = (
{
closed = 1;
nodes = (
"258 1264 OFFCURVE",
"61 1059 OFFCURVE",
"61 621 CURVE SMOOTH",
"61 182 OFFCURVE",
"258 -23 OFFCURVE",
"578 -23 CURVE SMOOTH",
"897 -23 OFFCURVE",
"1094 182 OFFCURVE",
"1094 621 CURVE SMOOTH",
"1094 1059 OFFCURVE",
"897 1264 OFFCURVE",
"578 1264 CURVE SMOOTH"
);
},
{
closed = 1;
nodes = (
"762 1065 OFFCURVE",
"854 913 OFFCURVE",
"854 666 CURVE SMOOTH",
"854 575 LINE SMOOTH",
"854 328 OFFCURVE",
"762 178 OFFCURVE",
"578 178 CURVE SMOOTH",
"393 178 OFFCURVE",
"301 328 OFFCURVE",
"301 575 CURVE SMOOTH",
"301 666 LINE SMOOTH",
"301 913 OFFCURVE",
"393 1065 OFFCURVE",
"578 1065 CURVE SMOOTH"
);
},
{
closed = 1;
nodes = (
"547 1599 LINE",
"330 1599 LINE",
"328 1593 LINE",
"522 1360 LINE",
"702 1360 LINE"
);
}
);
width = 1155;
}
);
unicode = 00D2;
},
{
glyphname = Ohungarumlaut;
layers = (
{
layerId = "3CB5DA74-10A0-4C7B-8F49-8E762609D01C";
name = Bold;
paths = (
{
closed = 1;
nodes = (
"258 1264 OFFCURVE",
"61 1059 OFFCURVE",
"61 621 CURVE SMOOTH",
"61 182 OFFCURVE",
"258 -23 OFFCURVE",
"578 -23 CURVE SMOOTH",
"897 -23 OFFCURVE",
"1094 182 OFFCURVE",
"1094 621 CURVE SMOOTH",
"1094 1059 OFFCURVE",
"897 1264 OFFCURVE",
"578 1264 CURVE SMOOTH"
);
},
{
closed = 1;
nodes = (
"762 1065 OFFCURVE",
"854 913 OFFCURVE",
"854 666 CURVE SMOOTH",
"854 575 LINE SMOOTH",
"854 328 OFFCURVE",
"762 178 OFFCURVE",
"578 178 CURVE SMOOTH",
"393 178 OFFCURVE",
"301 328 OFFCURVE",
"301 575 CURVE SMOOTH",
"301 666 LINE SMOOTH",
"301 913 OFFCURVE",
"393 1065 OFFCURVE",
"578 1065 CURVE SMOOTH"
);
},
{
closed = 1;
nodes = (
"668 1599 LINE",
"487 1599 LINE",
"375 1360 LINE",
"518 1360 LINE",
"670 1593 LINE"
);
},
{
closed = 1;
nodes = (
"922 1599 LINE",
"741 1599 LINE",
"629 1360 LINE",
"772 1360 LINE",
"924 1593 LINE"
);
}
);
width = 1155;
}
);
unicode = 0150;
},
{
glyphname = Omacron;
layers = (
{
layerId = "3CB5DA74-10A0-4C7B-8F49-8E762609D01C";
name = Bold;
paths = (
{
closed = 1;
nodes = (
"258 1264 OFFCURVE",
"61 1059 OFFCURVE",
"61 621 CURVE SMOOTH",
"61 182 OFFCURVE",
"258 -23 OFFCURVE",
"578 -23 CURVE SMOOTH",
"897 -23 OFFCURVE",
"1094 182 OFFCURVE",
"1094 621 CURVE SMOOTH",
"1094 1059 OFFCURVE",
"897 1264 OFFCURVE",
"578 1264 CURVE SMOOTH"
);
},
{
closed = 1;
nodes = (
"762 1065 OFFCURVE",
"854 913 OFFCURVE",
"854 666 CURVE SMOOTH",
"854 575 LINE SMOOTH",
"854 328 OFFCURVE",
"762 178 OFFCURVE",
"578 178 CURVE SMOOTH",
"393 178 OFFCURVE",
"301 328 OFFCURVE",
"301 575 CURVE SMOOTH",
"301 666 LINE SMOOTH",
"301 913 OFFCURVE",
"393 1065 OFFCURVE",
"578 1065 CURVE SMOOTH"
);
},
{
closed = 1;
nodes = (
"809 1374 LINE",
"809 1532 LINE",
"348 1532 LINE",
"348 1374 LINE"
);
}
);
width = 1155;
}
);
unicode = 014C;
},
{
glyphname = Oslash;
layers = (
{
anchors = (
{
name = top;
position = "{578, 1241}";
}
);
layerId = "3CB5DA74-10A0-4C7B-8F49-8E762609D01C";
name = Bold;
paths = (
{
closed = 1;
nodes = (
"1085 1309 LINE",
"932 1309 LINE",
"858 1192 LINE",
"780 1241 OFFCURVE",
"686 1264 OFFCURVE",
"578 1264 CURVE SMOOTH",
"258 1264 OFFCURVE",
"61 1059 OFFCURVE",
"61 621 CURVE SMOOTH",
"61 401 OFFCURVE",
"111 242 OFFCURVE",
"199 135 CURVE",
"72 -68 LINE",
"225 -68 LINE",
"297 49 LINE",
"375 2 OFFCURVE",
"469 -23 OFFCURVE",
"578 -23 CURVE SMOOTH",
"897 -23 OFFCURVE",
"1094 182 OFFCURVE",
"1094 621 CURVE SMOOTH",
"1094 838 OFFCURVE",
"1044 999 OFFCURVE",
"956 1104 CURVE"
);
},
{
closed = 1;
nodes = (
"819 887 LINE",
"844 827 OFFCURVE",
"854 752 OFFCURVE",
"854 666 CURVE SMOOTH",
"854 575 LINE SMOOTH",
"854 328 OFFCURVE",
"762 178 OFFCURVE",
"578 178 CURVE SMOOTH",
"510 178 OFFCURVE",
"455 197 OFFCURVE",
"414 233 CURVE"
);
},
{
closed = 1;
nodes = (
"645 1065 OFFCURVE",
"700 1044 OFFCURVE",
"741 1008 CURVE",
"334 350 LINE",
"311 414 OFFCURVE",
"301 489 OFFCURVE",
"301 575 CURVE SMOOTH",
"301 666 LINE SMOOTH",
"301 913 OFFCURVE",
"393 1065 OFFCURVE",
"578 1065 CURVE SMOOTH"
);
}
);
width = 1155;
}
);
unicode = 00D8;
},
{
glyphname = Oslashacute;
layers = (
{
layerId = "3CB5DA74-10A0-4C7B-8F49-8E762609D01C";
name = Bold;
paths = (
{
closed = 1;
nodes = (
"1085 1309 LINE",
"932 1309 LINE",
"858 1192 LINE",
"780 1241 OFFCURVE",
"686 1264 OFFCURVE",
"578 1264 CURVE SMOOTH",
"258 1264 OFFCURVE",
"61 1059 OFFCURVE",
"61 621 CURVE SMOOTH",
"61 401 OFFCURVE",
"111 242 OFFCURVE",
"199 135 CURVE",
"72 -68 LINE",
"225 -68 LINE",
"297 49 LINE",
"375 2 OFFCURVE",
"469 -23 OFFCURVE",
"578 -23 CURVE SMOOTH",
"897 -23 OFFCURVE",
"1094 182 OFFCURVE",
"1094 621 CURVE SMOOTH",
"1094 838 OFFCURVE",
"1044 999 OFFCURVE",
"956 1104 CURVE"
);
},
{
closed = 1;
nodes = (
"819 887 LINE",
"844 827 OFFCURVE",
"854 752 OFFCURVE",
"854 666 CURVE SMOOTH",
"854 575 LINE SMOOTH",
"854 328 OFFCURVE",
"762 178 OFFCURVE",
"578 178 CURVE SMOOTH",
"510 178 OFFCURVE",
"455 197 OFFCURVE",
"414 233 CURVE"
);
},
{
closed = 1;
nodes = (
"645 1065 OFFCURVE",
"700 1044 OFFCURVE",
"741 1008 CURVE",
"334 350 LINE",
"311 414 OFFCURVE",
"301 489 OFFCURVE",
"301 575 CURVE SMOOTH",
"301 666 LINE SMOOTH",
"301 913 OFFCURVE",
"393 1065 OFFCURVE",
"578 1065 CURVE SMOOTH"
);
},
{
closed = 1;
nodes = (
"827 1599 LINE",
"608 1599 LINE",
"453 1360 LINE",
"633 1360 LINE",
"829 1593 LINE"
);
}
);
width = 1155;
}
);
unicode = 01FE;
},
{
glyphname = Otilde;
layers = (
{
layerId = "3CB5DA74-10A0-4C7B-8F49-8E762609D01C";
name = Bold;
paths = (
{
closed = 1;
nodes = (
"258 1264 OFFCURVE",
"61 1059 OFFCURVE",
"61 621 CURVE SMOOTH",
"61 182 OFFCURVE",
"258 -23 OFFCURVE",
"578 -23 CURVE SMOOTH",
"897 -23 OFFCURVE",
"1094 182 OFFCURVE",
"1094 621 CURVE SMOOTH",
"1094 1059 OFFCURVE",
"897 1264 OFFCURVE",
"578 1264 CURVE SMOOTH"
);
},
{
closed = 1;
nodes = (
"762 1065 OFFCURVE",
"854 913 OFFCURVE",
"854 666 CURVE SMOOTH",
"854 575 LINE SMOOTH",
"854 328 OFFCURVE",
"762 178 OFFCURVE",
"578 178 CURVE SMOOTH",
"393 178 OFFCURVE",
"301 328 OFFCURVE",
"301 575 CURVE SMOOTH",
"301 666 LINE SMOOTH",
"301 913 OFFCURVE",
"393 1065 OFFCURVE",
"578 1065 CURVE SMOOTH"
);
},
{
closed = 1;
nodes = (
"762 1599 LINE",
"756 1548 OFFCURVE",
"731 1532 OFFCURVE",
"694 1532 CURVE SMOOTH",
"610 1532 OFFCURVE",
"541 1599 OFFCURVE",
"453 1599 CURVE SMOOTH",
"326 1599 OFFCURVE",
"272 1477 OFFCURVE",
"272 1378 CURVE",
"395 1378 LINE",
"401 1427 OFFCURVE",
"426 1444 OFFCURVE",
"465 1444 CURVE SMOOTH",
"547 1444 OFFCURVE",
"616 1378 OFFCURVE",
"705 1378 CURVE SMOOTH",
"831 1378 OFFCURVE",
"883 1499 OFFCURVE",
"883 1599 CURVE"
);
}
);
width = 1155;
}
);
unicode = 00D5;
},
{
glyphname = OE;
layers = (
{
anchors = (
{
name = top;
position = "{741, 1241}";
}
);
layerId = "3CB5DA74-10A0-4C7B-8F49-8E762609D01C";
name = Bold;
paths = (
{
closed = 1;
nodes = (
"211 1264 OFFCURVE",
"55 1059 OFFCURVE",
"55 621 CURVE SMOOTH",
"55 182 OFFCURVE",
"211 -23 OFFCURVE",
"467 -23 CURVE SMOOTH",
"578 -23 OFFCURVE",
"670 20 OFFCURVE",
"739 111 CURVE",
"739 0 LINE",
"1434 0 LINE",
"1434 207 LINE",
"971 207 LINE",
"971 532 LINE",
"1343 532 LINE",
"1343 739 LINE",
"971 739 LINE",
"971 1036 LINE",
"1421 1036 LINE",
"1421 1241 LINE",
"739 1241 LINE",
"739 1130 LINE",
"670 1221 OFFCURVE",
"578 1264 OFFCURVE",
"467 1264 CURVE SMOOTH"
);
},
{
closed = 1;
nodes = (
"664 1065 OFFCURVE",
"737 950 OFFCURVE",
"737 666 CURVE SMOOTH",
"737 575 LINE SMOOTH",
"737 291 OFFCURVE",
"664 178 OFFCURVE",
"514 178 CURVE SMOOTH",
"367 178 OFFCURVE",
"293 291 OFFCURVE",
"293 575 CURVE SMOOTH",
"293 666 LINE SMOOTH",
"293 950 OFFCURVE",
"367 1065 OFFCURVE",
"514 1065 CURVE SMOOTH"
);
}
);
width = 1485;
}
);
unicode = 0152;
},
{
glyphname = P;
layers = (
{
layerId = "3CB5DA74-10A0-4C7B-8F49-8E762609D01C";
name = Bold;
paths = (
{
closed = 1;
nodes = (
"340 481 LINE",
"553 481 LINE SMOOTH",
"786 481 OFFCURVE",
"942 635 OFFCURVE",
"942 868 CURVE SMOOTH",
"942 1085 OFFCURVE",
"809 1241 OFFCURVE",
"553 1241 CURVE SMOOTH",
"109 1241 LINE",
"109 0 LINE",
"340 0 LINE"
);
},
{
closed = 1;
nodes = (
"340 1036 LINE",
"528 1036 LINE SMOOTH",
"639 1036 OFFCURVE",
"702 971 OFFCURVE",
"702 868 CURVE SMOOTH",
"702 756 OFFCURVE",
"641 686 OFFCURVE",
"528 686 CURVE SMOOTH",
"340 686 LINE"
);
}
);
width = 991;
}
);
unicode = 0050;
},
{
glyphname = Thorn;
layers = (
{
layerId = "3CB5DA74-10A0-4C7B-8F49-8E762609D01C";
name = Bold;
paths = (
{
closed = 1;
nodes = (
"340 1241 LINE",
"109 1241 LINE",
"109 0 LINE",
"340 0 LINE",
"340 260 LINE",
"553 260 LINE SMOOTH",
"786 260 OFFCURVE",
"942 414 OFFCURVE",
"942 647 CURVE SMOOTH",
"942 864 OFFCURVE",
"809 1022 OFFCURVE",
"553 1022 CURVE SMOOTH",
"340 1022 LINE"
);
},
{
closed = 1;
nodes = (
"528 815 LINE",
"639 815 OFFCURVE",
"702 750 OFFCURVE",
"702 647 CURVE SMOOTH",
"702 535 OFFCURVE",
"641 465 OFFCURVE",
"528 465 CURVE SMOOTH",
"340 465 LINE",
"340 815 LINE"
);
}
);
width = 991;
}
);
unicode = 00DE;
},
{
glyphname = Q;
layers = (
{
layerId = "3CB5DA74-10A0-4C7B-8F49-8E762609D01C";
name = Bold;
paths = (
{
closed = 1;
nodes = (
"61 182 OFFCURVE",
"258 -23 OFFCURVE",
"578 -23 CURVE SMOOTH",
"600 -23 LINE",
"778 -225 LINE",
"1063 -225 LINE",
"823 31 LINE",
"993 117 OFFCURVE",
"1094 309 OFFCURVE",
"1094 621 CURVE SMOOTH",
"1094 1059 OFFCURVE",
"897 1264 OFFCURVE",
"578 1264 CURVE SMOOTH",
"258 1264 OFFCURVE",
"61 1059 OFFCURVE",
"61 621 CURVE SMOOTH"
);
},
{
closed = 1;
nodes = (
"301 666 LINE",
"301 913 OFFCURVE",
"393 1065 OFFCURVE",
"578 1065 CURVE SMOOTH",
"762 1065 OFFCURVE",
"854 913 OFFCURVE",
"854 666 CURVE SMOOTH",
"854 575 LINE SMOOTH",
"854 328 OFFCURVE",
"762 178 OFFCURVE",
"578 178 CURVE SMOOTH",
"393 178 OFFCURVE",
"301 328 OFFCURVE",
"301 575 CURVE SMOOTH"
);
}
);
width = 1155;
}
);
unicode = 0051;
},
{
glyphname = R;
layers = (
{
anchors = (
{
name = bottom;
position = "{537, 0}";
},
{
name = top;
position = "{537, 1241}";
}
);
layerId = "3CB5DA74-10A0-4C7B-8F49-8E762609D01C";
name = Bold;
paths = (
{
closed = 1;
nodes = (
"109 1241 LINE",
"109 0 LINE",
"340 0 LINE",
"340 518 LINE",
"582 518 LINE",
"788 0 LINE",
"1038 0 LINE",
"801 569 LINE",
"928 621 OFFCURVE",
"1008 737 OFFCURVE",
"1008 887 CURVE SMOOTH",
"1008 1092 OFFCURVE",
"881 1241 OFFCURVE",
"629 1241 CURVE SMOOTH"
);
},
{
closed = 1;
nodes = (
"604 1036 LINE",
"711 1036 OFFCURVE",
"758 977 OFFCURVE",
"758 887 CURVE SMOOTH",
"758 784 OFFCURVE",
"709 723 OFFCURVE",
"596 723 CURVE SMOOTH",
"340 723 LINE",
"340 1036 LINE"
);
}
);
width = 1071;
}
);
unicode = 0052;
},
{
glyphname = Racute;
layers = (
{
layerId = "3CB5DA74-10A0-4C7B-8F49-8E762609D01C";
name = Bold;
paths = (
{
closed = 1;
nodes = (
"109 1241 LINE",
"109 0 LINE",
"340 0 LINE",
"340 518 LINE",
"582 518 LINE",
"788 0 LINE",
"1038 0 LINE",
"801 569 LINE",
"928 621 OFFCURVE",
"1008 737 OFFCURVE",
"1008 887 CURVE SMOOTH",
"1008 1092 OFFCURVE",
"881 1241 OFFCURVE",
"629 1241 CURVE SMOOTH"
);
},
{
closed = 1;
nodes = (
"604 1036 LINE",
"711 1036 OFFCURVE",
"758 977 OFFCURVE",
"758 887 CURVE SMOOTH",
"758 784 OFFCURVE",
"709 723 OFFCURVE",
"596 723 CURVE SMOOTH",
"340 723 LINE",
"340 1036 LINE"
);
},
{
closed = 1;
nodes = (
"784 1599 LINE",
"567 1599 LINE",
"412 1360 LINE",
"590 1360 LINE",
"786 1593 LINE"
);
}
);
width = 1071;
}
);
unicode = 0154;
},
{
glyphname = Rcaron;
layers = (
{
layerId = "3CB5DA74-10A0-4C7B-8F49-8E762609D01C";
name = Bold;
paths = (
{
closed = 1;
nodes = (
"109 1241 LINE",
"109 0 LINE",
"340 0 LINE",
"340 518 LINE",
"582 518 LINE",
"788 0 LINE",
"1038 0 LINE",
"801 569 LINE",
"928 621 OFFCURVE",
"1008 737 OFFCURVE",
"1008 887 CURVE SMOOTH",
"1008 1092 OFFCURVE",
"881 1241 OFFCURVE",
"629 1241 CURVE SMOOTH"
);
},
{
closed = 1;
nodes = (
"604 1036 LINE",
"711 1036 OFFCURVE",
"758 977 OFFCURVE",
"758 887 CURVE SMOOTH",
"758 784 OFFCURVE",
"709 723 OFFCURVE",
"596 723 CURVE SMOOTH",
"340 723 LINE",
"340 1036 LINE"
);
},
{
closed = 1;
nodes = (
"780 1599 LINE",
"616 1599 LINE",
"537 1475 LINE",
"455 1599 LINE",
"293 1599 LINE",
"449 1354 LINE",
"627 1354 LINE"
);
}
);
width = 1071;
}
);
unicode = 0158;
},
{
glyphname = Rcommaaccent;
layers = (
{
layerId = "3CB5DA74-10A0-4C7B-8F49-8E762609D01C";
name = Bold;
paths = (
{
closed = 1;
nodes = (
"109 1241 LINE",
"109 0 LINE",
"340 0 LINE",
"340 518 LINE",
"582 518 LINE",
"788 0 LINE",
"1038 0 LINE",
"801 569 LINE",
"928 621 OFFCURVE",
"1008 737 OFFCURVE",
"1008 887 CURVE SMOOTH",
"1008 1092 OFFCURVE",
"881 1241 OFFCURVE",
"629 1241 CURVE SMOOTH"
);
},
{
closed = 1;
nodes = (
"647 -100 LINE",
"424 -100 LINE",
"424 -322 LINE",
"512 -322 LINE",
"449 -475 LINE",
"565 -475 LINE",
"647 -303 LINE"
);
},
{
closed = 1;
nodes = (
"604 1036 LINE",
"711 1036 OFFCURVE",
"758 977 OFFCURVE",
"758 887 CURVE SMOOTH",
"758 784 OFFCURVE",
"709 723 OFFCURVE",
"596 723 CURVE SMOOTH",
"340 723 LINE",
"340 1036 LINE"
);
}
);
width = 1071;
}
);
unicode = 0156;
},
{
glyphname = S;
layers = (
{
anchors = (
{
name = bottom;
position = "{496, 0}";
},
{
name = top;
position = "{496, 1241}";
}
);
layerId = "3CB5DA74-10A0-4C7B-8F49-8E762609D01C";
name = Bold;
paths = (
{
closed = 1;
nodes = (
"274 1264 OFFCURVE",
"80 1151 OFFCURVE",
"80 915 CURVE SMOOTH",
"80 444 OFFCURVE",
"682 618 OFFCURVE",
"682 324 CURVE SMOOTH",
"682 252 OFFCURVE",
"633 178 OFFCURVE",
"494 178 CURVE SMOOTH",
"367 178 OFFCURVE",
"295 258 OFFCURVE",
"295 375 CURVE SMOOTH",
"295 383 OFFCURVE",
"297 399 OFFCURVE",
"297 403 CURVE",
"55 403 LINE",
"55 395 OFFCURVE",
"55 379 OFFCURVE",
"55 365 CURVE SMOOTH",
"55 109 OFFCURVE",
"256 -23 OFFCURVE",
"483 -23 CURVE SMOOTH",
"741 -23 OFFCURVE",
"922 88 OFFCURVE",
"922 373 CURVE SMOOTH",
"922 829 OFFCURVE",
"319 680 OFFCURVE",
"319 932 CURVE SMOOTH",
"319 1008 OFFCURVE",
"381 1065 OFFCURVE",
"492 1065 CURVE SMOOTH",
"598 1065 OFFCURVE",
"662 997 OFFCURVE",
"662 893 CURVE SMOOTH",
"662 877 LINE",
"897 877 LINE",
"897 897 LINE SMOOTH",
"897 1153 OFFCURVE",
"715 1264 OFFCURVE",
"494 1264 CURVE SMOOTH"
);
}
);
width = 991;
}
);
unicode = 0053;
},
{
glyphname = Sacute;
layers = (
{
layerId = "3CB5DA74-10A0-4C7B-8F49-8E762609D01C";
name = Bold;
paths = (
{
closed = 1;
nodes = (
"274 1264 OFFCURVE",
"80 1151 OFFCURVE",
"80 915 CURVE SMOOTH",
"80 444 OFFCURVE",
"682 618 OFFCURVE",
"682 324 CURVE SMOOTH",
"682 252 OFFCURVE",
"633 178 OFFCURVE",
"494 178 CURVE SMOOTH",
"367 178 OFFCURVE",
"295 258 OFFCURVE",
"295 375 CURVE SMOOTH",
"295 383 OFFCURVE",
"297 399 OFFCURVE",
"297 403 CURVE",
"55 403 LINE",
"55 395 OFFCURVE",
"55 379 OFFCURVE",
"55 365 CURVE SMOOTH",
"55 109 OFFCURVE",
"256 -23 OFFCURVE",
"483 -23 CURVE SMOOTH",
"741 -23 OFFCURVE",
"922 88 OFFCURVE",
"922 373 CURVE SMOOTH",
"922 829 OFFCURVE",
"319 680 OFFCURVE",
"319 932 CURVE SMOOTH",
"319 1008 OFFCURVE",
"381 1065 OFFCURVE",
"492 1065 CURVE SMOOTH",
"598 1065 OFFCURVE",
"662 997 OFFCURVE",
"662 893 CURVE SMOOTH",
"662 877 LINE",
"897 877 LINE",
"897 897 LINE SMOOTH",
"897 1153 OFFCURVE",
"715 1264 OFFCURVE",
"494 1264 CURVE SMOOTH"
);
},
{
closed = 1;
nodes = (
"743 1599 LINE",
"526 1599 LINE",
"371 1360 LINE",
"551 1360 LINE",
"745 1593 LINE"
);
}
);
width = 991;
}
);
unicode = 015A;
},
{
glyphname = Scaron;
layers = (
{
layerId = "3CB5DA74-10A0-4C7B-8F49-8E762609D01C";
name = Bold;
paths = (
{
closed = 1;
nodes = (
"274 1264 OFFCURVE",
"80 1151 OFFCURVE",
"80 915 CURVE SMOOTH",
"80 444 OFFCURVE",
"682 618 OFFCURVE",
"682 324 CURVE SMOOTH",
"682 252 OFFCURVE",
"633 178 OFFCURVE",
"494 178 CURVE SMOOTH",
"367 178 OFFCURVE",
"295 258 OFFCURVE",
"295 375 CURVE SMOOTH",
"295 383 OFFCURVE",
"297 399 OFFCURVE",
"297 403 CURVE",
"55 403 LINE",
"55 395 OFFCURVE",
"55 379 OFFCURVE",
"55 365 CURVE SMOOTH",
"55 109 OFFCURVE",
"256 -23 OFFCURVE",
"483 -23 CURVE SMOOTH",
"741 -23 OFFCURVE",
"922 88 OFFCURVE",
"922 373 CURVE SMOOTH",
"922 829 OFFCURVE",
"319 680 OFFCURVE",
"319 932 CURVE SMOOTH",
"319 1008 OFFCURVE",
"381 1065 OFFCURVE",
"492 1065 CURVE SMOOTH",
"598 1065 OFFCURVE",
"662 997 OFFCURVE",
"662 893 CURVE SMOOTH",
"662 877 LINE",
"897 877 LINE",
"897 897 LINE SMOOTH",
"897 1153 OFFCURVE",
"715 1264 OFFCURVE",
"494 1264 CURVE SMOOTH"
);
},
{
closed = 1;
nodes = (
"586 1354 LINE",
"739 1599 LINE",
"575 1599 LINE",
"496 1475 LINE",
"414 1599 LINE",
"252 1599 LINE",
"408 1354 LINE"
);
}
);
width = 991;
}
);
unicode = 0160;
},
{
glyphname = Scedilla;
layers = (
{
layerId = "3CB5DA74-10A0-4C7B-8F49-8E762609D01C";
name = Bold;
paths = (
{
closed = 1;
nodes = (
"274 1264 OFFCURVE",
"80 1151 OFFCURVE",
"80 915 CURVE SMOOTH",
"80 444 OFFCURVE",
"682 618 OFFCURVE",
"682 324 CURVE SMOOTH",
"682 252 OFFCURVE",
"633 178 OFFCURVE",
"494 178 CURVE SMOOTH",
"367 178 OFFCURVE",
"295 258 OFFCURVE",
"295 375 CURVE SMOOTH",
"295 383 OFFCURVE",
"297 399 OFFCURVE",
"297 403 CURVE",
"55 403 LINE",
"55 395 OFFCURVE",
"55 379 OFFCURVE",
"55 365 CURVE SMOOTH",
"55 135 OFFCURVE",
"211 8 OFFCURVE",
"408 -16 CURVE",
"393 -139 LINE",
"453 -139 LINE SMOOTH",
"500 -139 OFFCURVE",
"514 -154 OFFCURVE",
"514 -182 CURVE SMOOTH",
"514 -217 OFFCURVE",
"489 -227 OFFCURVE",
"449 -227 CURVE SMOOTH",
"319 -227 LINE",
"319 -315 LINE",
"365 -324 OFFCURVE",
"422 -330 OFFCURVE",
"473 -330 CURVE SMOOTH",
"551 -330 OFFCURVE",
"670 -305 OFFCURVE",
"670 -182 CURVE SMOOTH",
"670 -100 OFFCURVE",
"604 -66 OFFCURVE",
"526 -59 CURVE",
"530 -20 LINE",
"762 -6 OFFCURVE",
"922 106 OFFCURVE",
"922 373 CURVE SMOOTH",
"922 829 OFFCURVE",
"319 680 OFFCURVE",
"319 932 CURVE SMOOTH",
"319 1008 OFFCURVE",
"381 1065 OFFCURVE",
"492 1065 CURVE SMOOTH",
"598 1065 OFFCURVE",
"662 997 OFFCURVE",
"662 893 CURVE SMOOTH",
"662 877 LINE",
"897 877 LINE",
"897 897 LINE SMOOTH",
"897 1153 OFFCURVE",
"715 1264 OFFCURVE",
"494 1264 CURVE SMOOTH"
);
}
);
width = 991;
}
);
unicode = 015E;
},
{
glyphname = Scircumflex;
layers = (
{
layerId = "3CB5DA74-10A0-4C7B-8F49-8E762609D01C";
name = Bold;
paths = (
{
closed = 1;
nodes = (
"274 1264 OFFCURVE",
"80 1151 OFFCURVE",
"80 915 CURVE SMOOTH",
"80 444 OFFCURVE",
"682 618 OFFCURVE",
"682 324 CURVE SMOOTH",
"682 252 OFFCURVE",
"633 178 OFFCURVE",
"494 178 CURVE SMOOTH",
"367 178 OFFCURVE",
"295 258 OFFCURVE",
"295 375 CURVE SMOOTH",
"295 383 OFFCURVE",
"297 399 OFFCURVE",
"297 403 CURVE",
"55 403 LINE",
"55 395 OFFCURVE",
"55 379 OFFCURVE",
"55 365 CURVE SMOOTH",
"55 109 OFFCURVE",
"256 -23 OFFCURVE",
"483 -23 CURVE SMOOTH",
"741 -23 OFFCURVE",
"922 88 OFFCURVE",
"922 373 CURVE SMOOTH",
"922 829 OFFCURVE",
"319 680 OFFCURVE",
"319 932 CURVE SMOOTH",
"319 1008 OFFCURVE",
"381 1065 OFFCURVE",
"492 1065 CURVE SMOOTH",
"598 1065 OFFCURVE",
"662 997 OFFCURVE",
"662 893 CURVE SMOOTH",
"662 877 LINE",
"897 877 LINE",
"897 897 LINE SMOOTH",
"897 1153 OFFCURVE",
"715 1264 OFFCURVE",
"494 1264 CURVE SMOOTH"
);
},
{
closed = 1;
nodes = (
"739 1354 LINE",
"586 1599 LINE",
"408 1599 LINE",
"252 1354 LINE",
"414 1354 LINE",
"496 1479 LINE",
"575 1354 LINE"
);
}
);
width = 991;
}
);
unicode = 015C;
},
{
glyphname = T;
layers = (
{
anchors = (
{
name = bottom;
position = "{455, 0}";
},
{
name = center;
position = "{455, 621}";
},
{
name = top;
position = "{455, 1241}";
}
);
layerId = "3CB5DA74-10A0-4C7B-8F49-8E762609D01C";
name = Bold;
paths = (
{
closed = 1;
nodes = (
"879 1241 LINE",
"31 1241 LINE",
"31 1036 LINE",
"338 1036 LINE",
"338 0 LINE",
"569 0 LINE",
"569 1036 LINE",
"879 1036 LINE"
);
}
);
width = 907;
}
);
unicode = 0054;
},
{
glyphname = Tbar;
layers = (
{
layerId = "3CB5DA74-10A0-4C7B-8F49-8E762609D01C";
name = Bold;
paths = (
{
closed = 1;
nodes = (
"879 1241 LINE",
"31 1241 LINE",
"31 1036 LINE",
"338 1036 LINE",
"338 711 LINE",
"133 711 LINE",
"133 555 LINE",
"338 555 LINE",
"338 0 LINE",
"569 0 LINE",
"569 555 LINE",
"772 555 LINE",
"772 711 LINE",
"569 711 LINE",
"569 1036 LINE",
"879 1036 LINE"
);
}
);
width = 907;
}
);
unicode = 0166;
},
{
glyphname = Tcaron;
layers = (
{
layerId = "3CB5DA74-10A0-4C7B-8F49-8E762609D01C";
name = Bold;
paths = (
{
closed = 1;
nodes = (
"879 1241 LINE",
"31 1241 LINE",
"31 1036 LINE",
"338 1036 LINE",
"338 0 LINE",
"569 0 LINE",
"569 1036 LINE",
"879 1036 LINE"
);
},
{
closed = 1;
nodes = (
"696 1599 LINE",
"535 1599 LINE",
"455 1475 LINE",
"373 1599 LINE",
"211 1599 LINE",
"367 1354 LINE",
"543 1354 LINE"
);
}
);
width = 907;
}
);
unicode = 0164;
},
{
glyphname = Tcommaaccent;
layers = (
{
layerId = "3CB5DA74-10A0-4C7B-8F49-8E762609D01C";
name = Bold;
paths = (
{
closed = 1;
nodes = (
"879 1241 LINE",
"31 1241 LINE",
"31 1036 LINE",
"338 1036 LINE",
"338 0 LINE",
"569 0 LINE",
"569 1036 LINE",
"879 1036 LINE"
);
},
{
closed = 1;
nodes = (
"565 -100 LINE",
"342 -100 LINE",
"342 -322 LINE",
"430 -322 LINE",
"367 -475 LINE",
"483 -475 LINE",
"565 -303 LINE"
);
}
);
width = 907;
}
);
unicode = 021A;
},
{
glyphname = U;
layers = (
{
anchors = (
{
name = ogonek;
position = "{965, 18}";
},
{
name = top;
position = "{537, 1241}";
}
);
layerId = "3CB5DA74-10A0-4C7B-8F49-8E762609D01C";
name = Bold;
paths = (
{
closed = 1;
nodes = (
"963 1241 LINE",
"731 1241 LINE",
"731 397 LINE SMOOTH",
"731 254 OFFCURVE",
"659 178 OFFCURVE",
"537 178 CURVE SMOOTH",
"414 178 OFFCURVE",
"342 254 OFFCURVE",
"342 397 CURVE SMOOTH",
"342 1241 LINE",
"111 1241 LINE",
"111 389 LINE SMOOTH",
"111 119 OFFCURVE",
"270 -23 OFFCURVE",
"537 -23 CURVE SMOOTH",
"803 -23 OFFCURVE",
"963 119 OFFCURVE",
"963 389 CURVE SMOOTH"
);
}
);
width = 1071;
}
);
unicode = 0055;
},
{
glyphname = Uacute;
layers = (
{
layerId = "3CB5DA74-10A0-4C7B-8F49-8E762609D01C";
name = Bold;
paths = (
{
closed = 1;
nodes = (
"963 1241 LINE",
"731 1241 LINE",
"731 397 LINE SMOOTH",
"731 254 OFFCURVE",
"659 178 OFFCURVE",
"537 178 CURVE SMOOTH",
"414 178 OFFCURVE",
"342 254 OFFCURVE",
"342 397 CURVE SMOOTH",
"342 1241 LINE",
"111 1241 LINE",
"111 389 LINE SMOOTH",
"111 119 OFFCURVE",
"270 -23 OFFCURVE",
"537 -23 CURVE SMOOTH",
"803 -23 OFFCURVE",
"963 119 OFFCURVE",
"963 389 CURVE SMOOTH"
);
},
{
closed = 1;
nodes = (
"784 1599 LINE",
"567 1599 LINE",
"412 1360 LINE",
"590 1360 LINE",
"786 1593 LINE"
);
}
);
width = 1071;
}
);
unicode = 00DA;
},
{
glyphname = Ubreve;
layers = (
{
layerId = "3CB5DA74-10A0-4C7B-8F49-8E762609D01C";
name = Bold;
paths = (
{
closed = 1;
nodes = (
"963 1241 LINE",
"731 1241 LINE",
"731 397 LINE SMOOTH",
"731 254 OFFCURVE",
"659 178 OFFCURVE",
"537 178 CURVE SMOOTH",
"414 178 OFFCURVE",
"342 254 OFFCURVE",
"342 397 CURVE SMOOTH",
"342 1241 LINE",
"111 1241 LINE",
"111 389 LINE SMOOTH",
"111 119 OFFCURVE",
"270 -23 OFFCURVE",
"537 -23 CURVE SMOOTH",
"803 -23 OFFCURVE",
"963 119 OFFCURVE",
"963 389 CURVE SMOOTH"
);
},
{
closed = 1;
nodes = (
"643 1599 LINE",
"641 1573 OFFCURVE",
"598 1538 OFFCURVE",
"535 1538 CURVE SMOOTH",
"475 1538 OFFCURVE",
"434 1573 OFFCURVE",
"430 1599 CURVE",
"295 1599 LINE",
"295 1507 OFFCURVE",
"385 1405 OFFCURVE",
"535 1405 CURVE SMOOTH",
"684 1405 OFFCURVE",
"778 1507 OFFCURVE",
"778 1599 CURVE"
);
}
);
width = 1071;
}
);
unicode = 016C;
},
{
glyphname = Ucircumflex;
layers = (
{
layerId = "3CB5DA74-10A0-4C7B-8F49-8E762609D01C";
name = Bold;
paths = (
{
closed = 1;
nodes = (
"963 1241 LINE",
"731 1241 LINE",
"731 397 LINE SMOOTH",
"731 254 OFFCURVE",
"659 178 OFFCURVE",
"537 178 CURVE SMOOTH",
"414 178 OFFCURVE",
"342 254 OFFCURVE",
"342 397 CURVE SMOOTH",
"342 1241 LINE",
"111 1241 LINE",
"111 389 LINE SMOOTH",
"111 119 OFFCURVE",
"270 -23 OFFCURVE",
"537 -23 CURVE SMOOTH",
"803 -23 OFFCURVE",
"963 119 OFFCURVE",
"963 389 CURVE SMOOTH"
);
},
{
closed = 1;
nodes = (
"627 1599 LINE",
"449 1599 LINE",
"293 1354 LINE",
"455 1354 LINE",
"537 1479 LINE",
"616 1354 LINE",
"780 1354 LINE"
);
}
);
width = 1071;
}
);
unicode = 00DB;
},
{
glyphname = Udieresis;
layers = (
{
layerId = "3CB5DA74-10A0-4C7B-8F49-8E762609D01C";
name = Bold;
paths = (
{
closed = 1;
nodes = (
"963 1241 LINE",
"731 1241 LINE",
"731 397 LINE SMOOTH",
"731 254 OFFCURVE",
"659 178 OFFCURVE",
"537 178 CURVE SMOOTH",
"414 178 OFFCURVE",
"342 254 OFFCURVE",
"342 397 CURVE SMOOTH",
"342 1241 LINE",
"111 1241 LINE",
"111 389 LINE SMOOTH",
"111 119 OFFCURVE",
"270 -23 OFFCURVE",
"537 -23 CURVE SMOOTH",
"803 -23 OFFCURVE",
"963 119 OFFCURVE",
"963 389 CURVE SMOOTH"
);
},
{
closed = 1;
nodes = (
"469 1599 LINE",
"289 1599 LINE",
"289 1401 LINE",
"469 1401 LINE"
);
},
{
closed = 1;
nodes = (
"786 1599 LINE",
"602 1599 LINE",
"602 1401 LINE",
"786 1401 LINE"
);
}
);
width = 1071;
}
);
unicode = 00DC;
},
{
glyphname = Ugrave;
layers = (
{
layerId = "3CB5DA74-10A0-4C7B-8F49-8E762609D01C";
name = Bold;
paths = (
{
closed = 1;
nodes = (
"963 1241 LINE",
"731 1241 LINE",
"731 397 LINE SMOOTH",
"731 254 OFFCURVE",
"659 178 OFFCURVE",
"537 178 CURVE SMOOTH",
"414 178 OFFCURVE",
"342 254 OFFCURVE",
"342 397 CURVE SMOOTH",
"342 1241 LINE",
"111 1241 LINE",
"111 389 LINE SMOOTH",
"111 119 OFFCURVE",
"270 -23 OFFCURVE",
"537 -23 CURVE SMOOTH",
"803 -23 OFFCURVE",
"963 119 OFFCURVE",
"963 389 CURVE SMOOTH"
);
},
{
closed = 1;
nodes = (
"506 1599 LINE",
"289 1599 LINE",
"287 1593 LINE",
"481 1360 LINE",
"662 1360 LINE"
);
}
);
width = 1071;
}
);
unicode = 00D9;
},
{
glyphname = Uhungarumlaut;
layers = (
{
layerId = "3CB5DA74-10A0-4C7B-8F49-8E762609D01C";
name = Bold;
paths = (
{
closed = 1;
nodes = (
"963 1241 LINE",
"731 1241 LINE",
"731 397 LINE SMOOTH",
"731 254 OFFCURVE",
"659 178 OFFCURVE",
"537 178 CURVE SMOOTH",
"414 178 OFFCURVE",
"342 254 OFFCURVE",
"342 397 CURVE SMOOTH",
"342 1241 LINE",
"111 1241 LINE",
"111 389 LINE SMOOTH",
"111 119 OFFCURVE",
"270 -23 OFFCURVE",
"537 -23 CURVE SMOOTH",
"803 -23 OFFCURVE",
"963 119 OFFCURVE",
"963 389 CURVE SMOOTH"
);
},
{
closed = 1;
nodes = (
"625 1599 LINE",
"444 1599 LINE",
"332 1360 LINE",
"475 1360 LINE",
"627 1593 LINE"
);
},
{
closed = 1;
nodes = (
"879 1599 LINE",
"696 1599 LINE",
"586 1360 LINE",
"727 1360 LINE",
"881 1593 LINE"
);
}
);
width = 1071;
}
);
unicode = 0170;
},
{
glyphname = Umacron;
layers = (
{
layerId = "3CB5DA74-10A0-4C7B-8F49-8E762609D01C";
name = Bold;
paths = (
{
closed = 1;
nodes = (
"963 1241 LINE",
"731 1241 LINE",
"731 397 LINE SMOOTH",
"731 254 OFFCURVE",
"659 178 OFFCURVE",
"537 178 CURVE SMOOTH",
"414 178 OFFCURVE",
"342 254 OFFCURVE",
"342 397 CURVE SMOOTH",
"342 1241 LINE",
"111 1241 LINE",
"111 389 LINE SMOOTH",
"111 119 OFFCURVE",
"270 -23 OFFCURVE",
"537 -23 CURVE SMOOTH",
"803 -23 OFFCURVE",
"963 119 OFFCURVE",
"963 389 CURVE SMOOTH"
);
},
{
closed = 1;
nodes = (
"768 1532 LINE",
"305 1532 LINE",
"305 1374 LINE",
"768 1374 LINE"
);
}
);
width = 1071;
}
);
unicode = 016A;
},
{
glyphname = Uogonek;
layers = (
{
layerId = "3CB5DA74-10A0-4C7B-8F49-8E762609D01C";
name = Bold;
paths = (
{
closed = 1;
nodes = (
"963 1241 LINE",
"731 1241 LINE",
"731 412 LINE SMOOTH",
"731 258 OFFCURVE",
"659 178 OFFCURVE",
"537 178 CURVE SMOOTH",
"414 178 OFFCURVE",
"342 258 OFFCURVE",
"342 412 CURVE SMOOTH",
"342 1241 LINE",
"111 1241 LINE",
"111 403 LINE SMOOTH",
"111 125 OFFCURVE",
"270 -23 OFFCURVE",
"537 -23 CURVE SMOOTH",
"573 -23 OFFCURVE",
"608 -23 OFFCURVE",
"647 -14 CURVE",
"594 20 LINE",
"545 -25 OFFCURVE",
"502 -82 OFFCURVE",
"502 -172 CURVE SMOOTH",
"502 -297 OFFCURVE",
"598 -336 OFFCURVE",
"680 -336 CURVE SMOOTH",
"721 -336 OFFCURVE",
"758 -326 OFFCURVE",
"801 -309 CURVE",
"801 -211 LINE",
"760 -211 LINE SMOOTH",
"700 -211 OFFCURVE",
"678 -164 OFFCURVE",
"678 -117 CURVE SMOOTH",
"678 -68 OFFCURVE",
"711 -16 OFFCURVE",
"733 8 CURVE",
"881 66 OFFCURVE",
"963 199 OFFCURVE",
"963 403 CURVE SMOOTH"
);
}
);
width = 1071;
}
);
unicode = 0172;
},
{
glyphname = Uring;
layers = (
{
layerId = "3CB5DA74-10A0-4C7B-8F49-8E762609D01C";
name = Bold;
paths = (
{
closed = 1;
nodes = (
"963 1241 LINE",
"731 1241 LINE",
"731 397 LINE SMOOTH",
"731 254 OFFCURVE",
"659 178 OFFCURVE",
"537 178 CURVE SMOOTH",
"414 178 OFFCURVE",
"342 254 OFFCURVE",
"342 397 CURVE SMOOTH",
"342 1241 LINE",
"111 1241 LINE",
"111 389 LINE SMOOTH",
"111 119 OFFCURVE",
"270 -23 OFFCURVE",
"537 -23 CURVE SMOOTH",
"803 -23 OFFCURVE",
"963 119 OFFCURVE",
"963 389 CURVE SMOOTH"
);
},
{
closed = 1;
nodes = (
"440 1653 OFFCURVE",
"362 1575 OFFCURVE",
"362 1479 CURVE SMOOTH",
"362 1380 OFFCURVE",
"442 1305 OFFCURVE",
"537 1305 CURVE SMOOTH",
"633 1305 OFFCURVE",
"711 1382 OFFCURVE",
"711 1479 CURVE SMOOTH",
"711 1573 OFFCURVE",
"633 1653 OFFCURVE",
"537 1653 CURVE SMOOTH"
);
},
{
closed = 1;
nodes = (
"582 1563 OFFCURVE",
"618 1526 OFFCURVE",
"618 1479 CURVE SMOOTH",
"618 1432 OFFCURVE",
"582 1397 OFFCURVE",
"537 1397 CURVE SMOOTH",
"489 1397 OFFCURVE",
"453 1432 OFFCURVE",
"453 1479 CURVE SMOOTH",
"453 1526 OFFCURVE",
"489 1563 OFFCURVE",
"537 1563 CURVE SMOOTH"
);
}
);
width = 1071;
}
);
unicode = 016E;
},
{
glyphname = Utilde;
layers = (
{
layerId = "3CB5DA74-10A0-4C7B-8F49-8E762609D01C";
name = Bold;
paths = (
{
closed = 1;
nodes = (
"963 1241 LINE",
"731 1241 LINE",
"731 397 LINE SMOOTH",
"731 254 OFFCURVE",
"659 178 OFFCURVE",
"537 178 CURVE SMOOTH",
"414 178 OFFCURVE",
"342 254 OFFCURVE",
"342 397 CURVE SMOOTH",
"342 1241 LINE",
"111 1241 LINE",
"111 389 LINE SMOOTH",
"111 119 OFFCURVE",
"270 -23 OFFCURVE",
"537 -23 CURVE SMOOTH",
"803 -23 OFFCURVE",
"963 119 OFFCURVE",
"963 389 CURVE SMOOTH"
);
},
{
closed = 1;
nodes = (
"721 1599 LINE",
"713 1548 OFFCURVE",
"688 1532 OFFCURVE",
"649 1532 CURVE SMOOTH",
"569 1532 OFFCURVE",
"498 1599 OFFCURVE",
"410 1599 CURVE SMOOTH",
"283 1599 OFFCURVE",
"231 1477 OFFCURVE",
"231 1378 CURVE",
"350 1378 LINE",
"358 1427 OFFCURVE",
"383 1444 OFFCURVE",
"422 1444 CURVE SMOOTH",
"504 1444 OFFCURVE",
"573 1378 OFFCURVE",
"662 1378 CURVE SMOOTH",
"788 1378 OFFCURVE",
"840 1499 OFFCURVE",
"840 1599 CURVE"
);
}
);
width = 1071;
}
);
unicode = 0168;
},
{
glyphname = V;
layers = (
{
layerId = "3CB5DA74-10A0-4C7B-8F49-8E762609D01C";
name = Bold;
paths = (
{
closed = 1;
nodes = (
"612 0 LINE",
"991 1241 LINE",
"764 1241 LINE",
"508 352 LINE",
"500 352 LINE",
"240 1241 LINE",
"0 1241 LINE",
"379 0 LINE"
);
}
);
width = 991;
}
);
unicode = 0056;
},
{
glyphname = W;
layers = (
{
anchors = (
{
name = top;
position = "{700, 1241}";
}
);
layerId = "3CB5DA74-10A0-4C7B-8F49-8E762609D01C";
name = Bold;
paths = (
{
closed = 1;
nodes = (
"1130 0 LINE",
"1399 1241 LINE",
"1200 1241 LINE",
"1049 477 LINE SMOOTH",
"1036 416 OFFCURVE",
"1024 305 OFFCURVE",
"1024 305 CURVE SMOOTH",
"1018 305 LINE SMOOTH",
"1018 305 OFFCURVE",
"1004 430 OFFCURVE",
"993 477 CURVE SMOOTH",
"846 1241 LINE",
"584 1241 LINE",
"432 477 LINE SMOOTH",
"422 426 OFFCURVE",
"410 305 OFFCURVE",
"410 305 CURVE SMOOTH",
"401 305 LINE SMOOTH",
"401 305 OFFCURVE",
"389 424 OFFCURVE",
"379 477 CURVE SMOOTH",
"229 1241 LINE",
"0 1241 LINE",
"270 0 LINE",
"504 0 LINE",
"670 791 LINE SMOOTH",
"680 844 OFFCURVE",
"694 967 OFFCURVE",
"694 967 CURVE",
"702 967 LINE",
"702 967 OFFCURVE",
"713 854 OFFCURVE",
"727 791 CURVE SMOOTH",
"897 0 LINE"
);
}
);
width = 1401;
}
);
unicode = 0057;
},
{
glyphname = Wacute;
layers = (
{
layerId = "3CB5DA74-10A0-4C7B-8F49-8E762609D01C";
name = Bold;
paths = (
{
closed = 1;
nodes = (
"1399 1241 LINE",
"1200 1241 LINE",
"1049 477 LINE SMOOTH",
"1036 416 OFFCURVE",
"1024 305 OFFCURVE",
"1024 305 CURVE SMOOTH",
"1018 305 LINE SMOOTH",
"1018 305 OFFCURVE",
"1004 430 OFFCURVE",
"993 477 CURVE SMOOTH",
"846 1241 LINE",
"584 1241 LINE",
"432 477 LINE SMOOTH",
"422 426 OFFCURVE",
"410 305 OFFCURVE",
"410 305 CURVE SMOOTH",
"401 305 LINE SMOOTH",
"401 305 OFFCURVE",
"389 424 OFFCURVE",
"379 477 CURVE SMOOTH",
"229 1241 LINE",
"0 1241 LINE",
"270 0 LINE",
"504 0 LINE",
"670 791 LINE SMOOTH",
"680 844 OFFCURVE",
"694 967 OFFCURVE",
"694 967 CURVE",
"702 967 LINE",
"702 967 OFFCURVE",
"713 854 OFFCURVE",
"727 791 CURVE SMOOTH",
"897 0 LINE",
"1130 0 LINE"
);
},
{
closed = 1;
nodes = (
"948 1599 LINE",
"731 1599 LINE",
"575 1360 LINE",
"756 1360 LINE",
"950 1593 LINE"
);
}
);
width = 1401;
}
);
unicode = 1E82;
},
{
glyphname = Wcircumflex;
layers = (
{
layerId = "3CB5DA74-10A0-4C7B-8F49-8E762609D01C";
name = Bold;
paths = (
{
closed = 1;
nodes = (
"1130 0 LINE",
"1399 1241 LINE",
"1200 1241 LINE",
"1049 477 LINE SMOOTH",
"1036 416 OFFCURVE",
"1024 305 OFFCURVE",
"1024 305 CURVE SMOOTH",
"1018 305 LINE SMOOTH",
"1018 305 OFFCURVE",
"1004 430 OFFCURVE",
"993 477 CURVE SMOOTH",
"846 1241 LINE",
"584 1241 LINE",
"432 477 LINE SMOOTH",
"422 426 OFFCURVE",
"410 305 OFFCURVE",
"410 305 CURVE SMOOTH",
"401 305 LINE SMOOTH",
"401 305 OFFCURVE",
"389 424 OFFCURVE",
"379 477 CURVE SMOOTH",
"229 1241 LINE",
"0 1241 LINE",
"270 0 LINE",
"504 0 LINE",
"670 791 LINE SMOOTH",
"680 844 OFFCURVE",
"694 967 OFFCURVE",
"694 967 CURVE",
"702 967 LINE",
"702 967 OFFCURVE",
"713 854 OFFCURVE",
"727 791 CURVE SMOOTH",
"897 0 LINE"
);
},
{
closed = 1;
nodes = (
"944 1354 LINE",
"791 1599 LINE",
"614 1599 LINE",
"459 1354 LINE",
"621 1354 LINE",
"702 1479 LINE",
"782 1354 LINE"
);
}
);
width = 1401;
}
);
unicode = 0174;
},
{
glyphname = Wdieresis;
layers = (
{
layerId = "3CB5DA74-10A0-4C7B-8F49-8E762609D01C";
name = Bold;
paths = (
{
closed = 1;
nodes = (
"1399 1241 LINE",
"1200 1241 LINE",
"1049 477 LINE SMOOTH",
"1036 416 OFFCURVE",
"1024 305 OFFCURVE",
"1024 305 CURVE SMOOTH",
"1018 305 LINE SMOOTH",
"1018 305 OFFCURVE",
"1004 430 OFFCURVE",
"993 477 CURVE SMOOTH",
"846 1241 LINE",
"584 1241 LINE",
"432 477 LINE SMOOTH",
"422 426 OFFCURVE",
"410 305 OFFCURVE",
"410 305 CURVE SMOOTH",
"401 305 LINE SMOOTH",
"401 305 OFFCURVE",
"389 424 OFFCURVE",
"379 477 CURVE SMOOTH",
"229 1241 LINE",
"0 1241 LINE",
"270 0 LINE",
"504 0 LINE",
"670 791 LINE SMOOTH",
"680 844 OFFCURVE",
"694 967 OFFCURVE",
"694 967 CURVE",
"702 967 LINE",
"702 967 OFFCURVE",
"713 854 OFFCURVE",
"727 791 CURVE SMOOTH",
"897 0 LINE",
"1130 0 LINE"
);
},
{
closed = 1;
nodes = (
"633 1599 LINE",
"453 1599 LINE",
"453 1401 LINE",
"633 1401 LINE"
);
},
{
closed = 1;
nodes = (
"950 1599 LINE",
"770 1599 LINE",
"770 1401 LINE",
"950 1401 LINE"
);
}
);
width = 1401;
}
);
unicode = 1E84;
},
{
glyphname = Wgrave;
layers = (
{
layerId = "3CB5DA74-10A0-4C7B-8F49-8E762609D01C";
name = Bold;
paths = (
{
closed = 1;
nodes = (
"1399 1241 LINE",
"1200 1241 LINE",
"1049 477 LINE SMOOTH",
"1036 416 OFFCURVE",
"1024 305 OFFCURVE",
"1024 305 CURVE SMOOTH",
"1018 305 LINE SMOOTH",
"1018 305 OFFCURVE",
"1004 430 OFFCURVE",
"993 477 CURVE SMOOTH",
"846 1241 LINE",
"584 1241 LINE",
"432 477 LINE SMOOTH",
"422 426 OFFCURVE",
"410 305 OFFCURVE",
"410 305 CURVE SMOOTH",
"401 305 LINE SMOOTH",
"401 305 OFFCURVE",
"389 424 OFFCURVE",
"379 477 CURVE SMOOTH",
"229 1241 LINE",
"0 1241 LINE",
"270 0 LINE",
"504 0 LINE",
"670 791 LINE SMOOTH",
"680 844 OFFCURVE",
"694 967 OFFCURVE",
"694 967 CURVE",
"702 967 LINE",
"702 967 OFFCURVE",
"713 854 OFFCURVE",
"727 791 CURVE SMOOTH",
"897 0 LINE",
"1130 0 LINE"
);
},
{
closed = 1;
nodes = (
"670 1599 LINE",
"453 1599 LINE",
"451 1593 LINE",
"647 1360 LINE",
"825 1360 LINE"
);
}
);
width = 1401;
}
);
unicode = 1E80;
},
{
glyphname = X;
layers = (
{
layerId = "3CB5DA74-10A0-4C7B-8F49-8E762609D01C";
name = Bold;
paths = (
{
closed = 1;
nodes = (
"956 1241 LINE",
"715 1241 LINE",
"508 836 LINE",
"500 836 LINE",
"291 1241 LINE",
"33 1241 LINE",
"350 651 LINE",
"0 0 LINE",
"242 0 LINE",
"481 469 LINE",
"489 469 LINE",
"731 0 LINE",
"989 0 LINE",
"635 655 LINE"
);
}
);
width = 991;
}
);
unicode = 0058;
},
{
glyphname = Y;
layers = (
{
anchors = (
{
name = top;
position = "{496, 1241}";
}
);
layerId = "3CB5DA74-10A0-4C7B-8F49-8E762609D01C";
name = Bold;
paths = (
{
closed = 1;
nodes = (
"612 469 LINE",
"991 1241 LINE",
"758 1241 LINE",
"506 696 LINE",
"498 696 LINE",
"244 1241 LINE",
"0 1241 LINE",
"381 469 LINE",
"381 0 LINE",
"612 0 LINE"
);
}
);
width = 991;
}
);
unicode = 0059;
},
{
glyphname = Yacute;
layers = (
{
layerId = "3CB5DA74-10A0-4C7B-8F49-8E762609D01C";
name = Bold;
paths = (
{
closed = 1;
nodes = (
"991 1241 LINE",
"758 1241 LINE",
"506 696 LINE",
"498 696 LINE",
"244 1241 LINE",
"0 1241 LINE",
"381 469 LINE",
"381 0 LINE",
"612 0 LINE",
"612 469 LINE"
);
},
{
closed = 1;
nodes = (
"743 1599 LINE",
"526 1599 LINE",
"371 1360 LINE",
"551 1360 LINE",
"745 1593 LINE"
);
}
);
width = 991;
}
);
unicode = 00DD;
},
{
glyphname = Ycircumflex;
layers = (
{
layerId = "3CB5DA74-10A0-4C7B-8F49-8E762609D01C";
name = Bold;
paths = (
{
closed = 1;
nodes = (
"612 469 LINE",
"991 1241 LINE",
"758 1241 LINE",
"506 696 LINE",
"498 696 LINE",
"244 1241 LINE",
"0 1241 LINE",
"381 469 LINE",
"381 0 LINE",
"612 0 LINE"
);
},
{
closed = 1;
nodes = (
"739 1354 LINE",
"586 1599 LINE",
"408 1599 LINE",
"252 1354 LINE",
"414 1354 LINE",
"496 1479 LINE",
"575 1354 LINE"
);
}
);
width = 991;
}
);
unicode = 0176;
},
{
glyphname = Ydieresis;
layers = (
{
layerId = "3CB5DA74-10A0-4C7B-8F49-8E762609D01C";
name = Bold;
paths = (
{
closed = 1;
nodes = (
"991 1241 LINE",
"758 1241 LINE",
"506 696 LINE",
"498 696 LINE",
"244 1241 LINE",
"0 1241 LINE",
"381 469 LINE",
"381 0 LINE",
"612 0 LINE",
"612 469 LINE"
);
},
{
closed = 1;
nodes = (
"428 1599 LINE",
"246 1599 LINE",
"246 1401 LINE",
"428 1401 LINE"
);
},
{
closed = 1;
nodes = (
"743 1599 LINE",
"563 1599 LINE",
"563 1401 LINE",
"743 1401 LINE"
);
}
);
width = 991;
}
);
unicode = 0178;
},
{
glyphname = Ygrave;
layers = (
{
layerId = "3CB5DA74-10A0-4C7B-8F49-8E762609D01C";
name = Bold;
paths = (
{
closed = 1;
nodes = (
"991 1241 LINE",
"758 1241 LINE",
"506 696 LINE",
"498 696 LINE",
"244 1241 LINE",
"0 1241 LINE",
"381 469 LINE",
"381 0 LINE",
"612 0 LINE",
"612 469 LINE"
);
},
{
closed = 1;
nodes = (
"463 1599 LINE",
"246 1599 LINE",
"244 1593 LINE",
"440 1360 LINE",
"618 1360 LINE"
);
}
);
width = 991;
}
);
unicode = 1EF2;
},
{
glyphname = Z;
layers = (
{
anchors = (
{
name = top;
position = "{455, 1241}";
}
);
layerId = "3CB5DA74-10A0-4C7B-8F49-8E762609D01C";
name = Bold;
paths = (
{
closed = 1;
nodes = (
"856 1241 LINE",
"68 1241 LINE",
"68 1036 LINE",
"539 1036 LINE",
"29 88 LINE",
"29 0 LINE",
"868 0 LINE",
"868 207 LINE",
"346 207 LINE",
"856 1151 LINE"
);
}
);
width = 907;
}
);
unicode = 005A;
},
{
glyphname = Zacute;
layers = (
{
layerId = "3CB5DA74-10A0-4C7B-8F49-8E762609D01C";
name = Bold;
paths = (
{
closed = 1;
nodes = (
"856 1241 LINE",
"68 1241 LINE",
"68 1036 LINE",
"539 1036 LINE",
"29 88 LINE",
"29 0 LINE",
"868 0 LINE",
"868 207 LINE",
"346 207 LINE",
"856 1151 LINE"
);
},
{
closed = 1;
nodes = (
"702 1599 LINE",
"485 1599 LINE",
"330 1360 LINE",
"508 1360 LINE",
"705 1593 LINE"
);
}
);
width = 907;
}
);
unicode = 0179;
},
{
glyphname = Zcaron;
layers = (
{
layerId = "3CB5DA74-10A0-4C7B-8F49-8E762609D01C";
name = Bold;
paths = (
{
closed = 1;
nodes = (
"856 1241 LINE",
"68 1241 LINE",
"68 1036 LINE",
"539 1036 LINE",
"29 88 LINE",
"29 0 LINE",
"868 0 LINE",
"868 207 LINE",
"346 207 LINE",
"856 1151 LINE"
);
},
{
closed = 1;
nodes = (
"696 1599 LINE",
"535 1599 LINE",
"455 1475 LINE",
"373 1599 LINE",
"211 1599 LINE",
"367 1354 LINE",
"543 1354 LINE"
);
}
);
width = 907;
}
);
unicode = 017D;
},
{
glyphname = Zdotaccent;
layers = (
{
layerId = "3CB5DA74-10A0-4C7B-8F49-8E762609D01C";
name = Bold;
paths = (
{
closed = 1;
nodes = (
"856 1241 LINE",
"68 1241 LINE",
"68 1036 LINE",
"539 1036 LINE",
"29 88 LINE",
"29 0 LINE",
"868 0 LINE",
"868 207 LINE",
"346 207 LINE",
"856 1151 LINE"
);
},
{
closed = 1;
nodes = (
"551 1599 LINE",
"356 1599 LINE",
"356 1391 LINE",
"551 1391 LINE"
);
}
);
width = 907;
}
);
unicode = 017B;
},
{
glyphname = a;
layers = (
{
anchors = (
{
name = ogonek;
position = "{741, 18}";
},
{
name = top;
position = "{414, 952}";
}
);
layerId = "3CB5DA74-10A0-4C7B-8F49-8E762609D01C";
name = Bold;
paths = (
{
closed = 1;
nodes = (
"197 975 OFFCURVE",
"70 868 OFFCURVE",
"70 711 CURVE SMOOTH",
"70 694 OFFCURVE",
"70 680 OFFCURVE",
"72 670 CURVE",
"285 670 LINE",
"285 696 LINE SMOOTH",
"285 741 OFFCURVE",
"309 797 OFFCURVE",
"397 797 CURVE SMOOTH",
"481 797 OFFCURVE",
"498 743 OFFCURVE",
"498 678 CURVE SMOOTH",
"498 580 LINE",
"221 580 OFFCURVE",
"25 504 OFFCURVE",
"25 246 CURVE SMOOTH",
"25 25 OFFCURVE",
"176 -23 OFFCURVE",
"264 -23 CURVE SMOOTH",
"391 -23 OFFCURVE",
"451 27 OFFCURVE",
"506 102 CURVE",
"514 102 LINE",
"537 29 OFFCURVE",
"596 -23 OFFCURVE",
"682 -23 CURVE SMOOTH",
"748 -23 OFFCURVE",
"788 -6 OFFCURVE",
"811 8 CURVE",
"811 162 LINE",
"768 162 LINE SMOOTH",
"741 162 OFFCURVE",
"717 180 OFFCURVE",
"717 225 CURVE SMOOTH",
"717 694 LINE SMOOTH",
"717 870 OFFCURVE",
"614 975 OFFCURVE",
"393 975 CURVE SMOOTH"
);
},
{
closed = 1;
nodes = (
"498 367 LINE",
"498 256 OFFCURVE",
"459 160 OFFCURVE",
"354 160 CURVE SMOOTH",
"281 160 OFFCURVE",
"248 201 OFFCURVE",
"248 266 CURVE SMOOTH",
"248 389 OFFCURVE",
"371 422 OFFCURVE",
"498 422 CURVE"
);
}
);
width = 825;
}
);
unicode = 0061;
},
{
glyphname = aacute;
layers = (
{
layerId = "3CB5DA74-10A0-4C7B-8F49-8E762609D01C";
name = Bold;
paths = (
{
closed = 1;
nodes = (
"197 975 OFFCURVE",
"70 868 OFFCURVE",
"70 711 CURVE SMOOTH",
"70 694 OFFCURVE",
"70 680 OFFCURVE",
"72 670 CURVE",
"285 670 LINE",
"285 696 LINE SMOOTH",
"285 741 OFFCURVE",
"309 797 OFFCURVE",
"397 797 CURVE SMOOTH",
"481 797 OFFCURVE",
"498 743 OFFCURVE",
"498 678 CURVE SMOOTH",
"498 580 LINE",
"221 580 OFFCURVE",
"25 504 OFFCURVE",
"25 246 CURVE SMOOTH",
"25 25 OFFCURVE",
"176 -23 OFFCURVE",
"264 -23 CURVE SMOOTH",
"391 -23 OFFCURVE",
"451 27 OFFCURVE",
"506 102 CURVE",
"514 102 LINE",
"537 29 OFFCURVE",
"596 -23 OFFCURVE",
"682 -23 CURVE SMOOTH",
"748 -23 OFFCURVE",
"788 -6 OFFCURVE",
"811 8 CURVE",
"811 162 LINE",
"768 162 LINE SMOOTH",
"741 162 OFFCURVE",
"717 180 OFFCURVE",
"717 225 CURVE SMOOTH",
"717 694 LINE SMOOTH",
"717 870 OFFCURVE",
"614 975 OFFCURVE",
"393 975 CURVE SMOOTH"
);
},
{
closed = 1;
nodes = (
"498 367 LINE",
"498 256 OFFCURVE",
"459 160 OFFCURVE",
"354 160 CURVE SMOOTH",
"281 160 OFFCURVE",
"248 201 OFFCURVE",
"248 266 CURVE SMOOTH",
"248 389 OFFCURVE",
"371 422 OFFCURVE",
"498 422 CURVE"
);
},
{
closed = 1;
nodes = (
"641 1309 LINE",
"424 1309 LINE",
"268 1069 LINE",
"446 1069 LINE",
"643 1303 LINE"
);
}
);
width = 825;
}
);
unicode = 00E1;
},
{
glyphname = abreve;
layers = (
{
layerId = "3CB5DA74-10A0-4C7B-8F49-8E762609D01C";
name = Bold;
paths = (
{
closed = 1;
nodes = (
"197 975 OFFCURVE",
"70 868 OFFCURVE",
"70 711 CURVE SMOOTH",
"70 694 OFFCURVE",
"70 680 OFFCURVE",
"72 670 CURVE",
"285 670 LINE",
"285 696 LINE SMOOTH",
"285 741 OFFCURVE",
"309 797 OFFCURVE",
"397 797 CURVE SMOOTH",
"481 797 OFFCURVE",
"498 743 OFFCURVE",
"498 678 CURVE SMOOTH",
"498 580 LINE",
"221 580 OFFCURVE",
"25 504 OFFCURVE",
"25 246 CURVE SMOOTH",
"25 25 OFFCURVE",
"176 -23 OFFCURVE",
"264 -23 CURVE SMOOTH",
"391 -23 OFFCURVE",
"451 27 OFFCURVE",
"506 102 CURVE",
"514 102 LINE",
"537 29 OFFCURVE",
"596 -23 OFFCURVE",
"682 -23 CURVE SMOOTH",
"748 -23 OFFCURVE",
"788 -6 OFFCURVE",
"811 8 CURVE",
"811 162 LINE",
"768 162 LINE SMOOTH",
"741 162 OFFCURVE",
"717 180 OFFCURVE",
"717 225 CURVE SMOOTH",
"717 694 LINE SMOOTH",
"717 870 OFFCURVE",
"614 975 OFFCURVE",
"393 975 CURVE SMOOTH"
);
},
{
closed = 1;
nodes = (
"498 367 LINE",
"498 256 OFFCURVE",
"459 160 OFFCURVE",
"354 160 CURVE SMOOTH",
"281 160 OFFCURVE",
"248 201 OFFCURVE",
"248 266 CURVE SMOOTH",
"248 389 OFFCURVE",
"371 422 OFFCURVE",
"498 422 CURVE"
);
},
{
closed = 1;
nodes = (
"500 1309 LINE",
"496 1284 OFFCURVE",
"453 1249 OFFCURVE",
"391 1249 CURVE SMOOTH",
"334 1249 OFFCURVE",
"291 1284 OFFCURVE",
"287 1309 CURVE",
"150 1309 LINE",
"150 1219 OFFCURVE",
"242 1116 OFFCURVE",
"391 1116 CURVE SMOOTH",
"541 1116 OFFCURVE",
"635 1219 OFFCURVE",
"635 1309 CURVE"
);
}
);
width = 825;
}
);
unicode = 0103;
},
{
glyphname = acircumflex;
layers = (
{
layerId = "3CB5DA74-10A0-4C7B-8F49-8E762609D01C";
name = Bold;
paths = (
{
closed = 1;
nodes = (
"197 975 OFFCURVE",
"70 868 OFFCURVE",
"70 711 CURVE SMOOTH",
"70 694 OFFCURVE",
"70 680 OFFCURVE",
"72 670 CURVE",
"285 670 LINE",
"285 696 LINE SMOOTH",
"285 741 OFFCURVE",
"309 797 OFFCURVE",
"397 797 CURVE SMOOTH",
"481 797 OFFCURVE",
"498 743 OFFCURVE",
"498 678 CURVE SMOOTH",
"498 580 LINE",
"221 580 OFFCURVE",
"25 504 OFFCURVE",
"25 246 CURVE SMOOTH",
"25 25 OFFCURVE",
"176 -23 OFFCURVE",
"264 -23 CURVE SMOOTH",
"391 -23 OFFCURVE",
"451 27 OFFCURVE",
"506 102 CURVE",
"514 102 LINE",
"537 29 OFFCURVE",
"596 -23 OFFCURVE",
"682 -23 CURVE SMOOTH",
"748 -23 OFFCURVE",
"788 -6 OFFCURVE",
"811 8 CURVE",
"811 162 LINE",
"768 162 LINE SMOOTH",
"741 162 OFFCURVE",
"717 180 OFFCURVE",
"717 225 CURVE SMOOTH",
"717 694 LINE SMOOTH",
"717 870 OFFCURVE",
"614 975 OFFCURVE",
"393 975 CURVE SMOOTH"
);
},
{
closed = 1;
nodes = (
"498 367 LINE",
"498 256 OFFCURVE",
"459 160 OFFCURVE",
"354 160 CURVE SMOOTH",
"281 160 OFFCURVE",
"248 201 OFFCURVE",
"248 266 CURVE SMOOTH",
"248 389 OFFCURVE",
"371 422 OFFCURVE",
"498 422 CURVE"
);
},
{
closed = 1;
nodes = (
"637 1065 LINE",
"483 1309 LINE",
"305 1309 LINE",
"150 1065 LINE",
"311 1065 LINE",
"393 1190 LINE",
"475 1065 LINE"
);
}
);
width = 825;
}
);
unicode = 00E2;
},
{
glyphname = adieresis;
layers = (
{
layerId = "3CB5DA74-10A0-4C7B-8F49-8E762609D01C";
name = Bold;
paths = (
{
closed = 1;
nodes = (
"197 975 OFFCURVE",
"70 868 OFFCURVE",
"70 711 CURVE SMOOTH",
"70 694 OFFCURVE",
"70 680 OFFCURVE",
"72 670 CURVE",
"285 670 LINE",
"285 696 LINE SMOOTH",
"285 741 OFFCURVE",
"309 797 OFFCURVE",
"397 797 CURVE SMOOTH",
"481 797 OFFCURVE",
"498 743 OFFCURVE",
"498 678 CURVE SMOOTH",
"498 580 LINE",
"221 580 OFFCURVE",
"25 504 OFFCURVE",
"25 246 CURVE SMOOTH",
"25 25 OFFCURVE",
"176 -23 OFFCURVE",
"264 -23 CURVE SMOOTH",
"391 -23 OFFCURVE",
"451 27 OFFCURVE",
"506 102 CURVE",
"514 102 LINE",
"537 29 OFFCURVE",
"596 -23 OFFCURVE",
"682 -23 CURVE SMOOTH",
"748 -23 OFFCURVE",
"788 -6 OFFCURVE",
"811 8 CURVE",
"811 162 LINE",
"768 162 LINE SMOOTH",
"741 162 OFFCURVE",
"717 180 OFFCURVE",
"717 225 CURVE SMOOTH",
"717 694 LINE SMOOTH",
"717 870 OFFCURVE",
"614 975 OFFCURVE",
"393 975 CURVE SMOOTH"
);
},
{
closed = 1;
nodes = (
"498 367 LINE",
"498 256 OFFCURVE",
"459 160 OFFCURVE",
"354 160 CURVE SMOOTH",
"281 160 OFFCURVE",
"248 201 OFFCURVE",
"248 266 CURVE SMOOTH",
"248 389 OFFCURVE",
"371 422 OFFCURVE",
"498 422 CURVE"
);
},
{
closed = 1;
nodes = (
"326 1309 LINE",
"145 1309 LINE",
"145 1112 LINE",
"326 1112 LINE"
);
},
{
closed = 1;
nodes = (
"641 1309 LINE",
"461 1309 LINE",
"461 1112 LINE",
"641 1112 LINE"
);
}
);
width = 825;
}
);
unicode = 00E4;
},
{
glyphname = agrave;
layers = (
{
layerId = "3CB5DA74-10A0-4C7B-8F49-8E762609D01C";
name = Bold;
paths = (
{
closed = 1;
nodes = (
"197 975 OFFCURVE",
"70 868 OFFCURVE",
"70 711 CURVE SMOOTH",
"70 694 OFFCURVE",
"70 680 OFFCURVE",
"72 670 CURVE",
"285 670 LINE",
"285 696 LINE SMOOTH",
"285 741 OFFCURVE",
"309 797 OFFCURVE",
"397 797 CURVE SMOOTH",
"481 797 OFFCURVE",
"498 743 OFFCURVE",
"498 678 CURVE SMOOTH",
"498 580 LINE",
"221 580 OFFCURVE",
"25 504 OFFCURVE",
"25 246 CURVE SMOOTH",
"25 25 OFFCURVE",
"176 -23 OFFCURVE",
"264 -23 CURVE SMOOTH",
"391 -23 OFFCURVE",
"451 27 OFFCURVE",
"506 102 CURVE",
"514 102 LINE",
"537 29 OFFCURVE",
"596 -23 OFFCURVE",
"682 -23 CURVE SMOOTH",
"748 -23 OFFCURVE",
"788 -6 OFFCURVE",
"811 8 CURVE",
"811 162 LINE",
"768 162 LINE SMOOTH",
"741 162 OFFCURVE",
"717 180 OFFCURVE",
"717 225 CURVE SMOOTH",
"717 694 LINE SMOOTH",
"717 870 OFFCURVE",
"614 975 OFFCURVE",
"393 975 CURVE SMOOTH"
);
},
{
closed = 1;
nodes = (
"498 367 LINE",
"498 256 OFFCURVE",
"459 160 OFFCURVE",
"354 160 CURVE SMOOTH",
"281 160 OFFCURVE",
"248 201 OFFCURVE",
"248 266 CURVE SMOOTH",
"248 389 OFFCURVE",
"371 422 OFFCURVE",
"498 422 CURVE"
);
},
{
closed = 1;
nodes = (
"362 1309 LINE",
"145 1309 LINE",
"143 1303 LINE",
"338 1069 LINE",
"518 1069 LINE"
);
}
);
width = 825;
}
);
unicode = 00E0;
},
{
glyphname = amacron;
layers = (
{
layerId = "3CB5DA74-10A0-4C7B-8F49-8E762609D01C";
name = Bold;
paths = (
{
closed = 1;
nodes = (
"197 975 OFFCURVE",
"70 868 OFFCURVE",
"70 711 CURVE SMOOTH",
"70 694 OFFCURVE",
"70 680 OFFCURVE",
"72 670 CURVE",
"285 670 LINE",
"285 696 LINE SMOOTH",
"285 741 OFFCURVE",
"309 797 OFFCURVE",
"397 797 CURVE SMOOTH",
"481 797 OFFCURVE",
"498 743 OFFCURVE",
"498 678 CURVE SMOOTH",
"498 580 LINE",
"221 580 OFFCURVE",
"25 504 OFFCURVE",
"25 246 CURVE SMOOTH",
"25 25 OFFCURVE",
"176 -23 OFFCURVE",
"264 -23 CURVE SMOOTH",
"391 -23 OFFCURVE",
"451 27 OFFCURVE",
"506 102 CURVE",
"514 102 LINE",
"537 29 OFFCURVE",
"596 -23 OFFCURVE",
"682 -23 CURVE SMOOTH",
"748 -23 OFFCURVE",
"788 -6 OFFCURVE",
"811 8 CURVE",
"811 162 LINE",
"768 162 LINE SMOOTH",
"741 162 OFFCURVE",
"717 180 OFFCURVE",
"717 225 CURVE SMOOTH",
"717 694 LINE SMOOTH",
"717 870 OFFCURVE",
"614 975 OFFCURVE",
"393 975 CURVE SMOOTH"
);
},
{
closed = 1;
nodes = (
"498 367 LINE",
"498 256 OFFCURVE",
"459 160 OFFCURVE",
"354 160 CURVE SMOOTH",
"281 160 OFFCURVE",
"248 201 OFFCURVE",
"248 266 CURVE SMOOTH",
"248 389 OFFCURVE",
"371 422 OFFCURVE",
"498 422 CURVE"
);
},
{
closed = 1;
nodes = (
"625 1085 LINE",
"625 1241 LINE",
"162 1241 LINE",
"162 1085 LINE"
);
}
);
width = 825;
}
);
unicode = 0101;
},
{
glyphname = aogonek;
layers = (
{
layerId = "3CB5DA74-10A0-4C7B-8F49-8E762609D01C";
name = Bold;
paths = (
{
closed = 1;
nodes = (
"879 -211 LINE",
"838 -211 LINE SMOOTH",
"778 -211 OFFCURVE",
"758 -166 OFFCURVE",
"758 -119 CURVE SMOOTH",
"758 -70 OFFCURVE",
"791 -18 OFFCURVE",
"811 8 CURVE",
"811 162 LINE",
"768 162 LINE SMOOTH",
"741 162 OFFCURVE",
"717 180 OFFCURVE",
"717 225 CURVE SMOOTH",
"717 694 LINE SMOOTH",
"717 870 OFFCURVE",
"614 975 OFFCURVE",
"393 975 CURVE SMOOTH",
"197 975 OFFCURVE",
"70 868 OFFCURVE",
"70 711 CURVE SMOOTH",
"70 694 OFFCURVE",
"70 680 OFFCURVE",
"72 670 CURVE",
"285 670 LINE",
"285 696 LINE SMOOTH",
"285 741 OFFCURVE",
"309 797 OFFCURVE",
"397 797 CURVE SMOOTH",
"481 797 OFFCURVE",
"498 743 OFFCURVE",
"498 678 CURVE SMOOTH",
"498 580 LINE",
"221 580 OFFCURVE",
"25 504 OFFCURVE",
"25 246 CURVE SMOOTH",
"25 25 OFFCURVE",
"176 -23 OFFCURVE",
"264 -23 CURVE SMOOTH",
"391 -23 OFFCURVE",
"451 27 OFFCURVE",
"506 102 CURVE",
"514 102 LINE",
"532 43 OFFCURVE",
"573 -2 OFFCURVE",
"635 -16 CURVE",
"602 -55 OFFCURVE",
"580 -102 OFFCURVE",
"580 -174 CURVE SMOOTH",
"580 -299 OFFCURVE",
"678 -336 OFFCURVE",
"758 -336 CURVE SMOOTH",
"799 -336 OFFCURVE",
"836 -328 OFFCURVE",
"879 -311 CURVE"
);
},
{
closed = 1;
nodes = (
"498 367 LINE",
"498 256 OFFCURVE",
"459 160 OFFCURVE",
"354 160 CURVE SMOOTH",
"281 160 OFFCURVE",
"248 201 OFFCURVE",
"248 266 CURVE SMOOTH",
"248 389 OFFCURVE",
"371 422 OFFCURVE",
"498 422 CURVE"
);
}
);
width = 825;
}
);
unicode = 0105;
},
{
glyphname = aring;
layers = (
{
layerId = "3CB5DA74-10A0-4C7B-8F49-8E762609D01C";
name = Bold;
paths = (
{
closed = 1;
nodes = (
"197 975 OFFCURVE",
"70 868 OFFCURVE",
"70 711 CURVE SMOOTH",
"70 694 OFFCURVE",
"70 680 OFFCURVE",
"72 670 CURVE",
"285 670 LINE",
"285 696 LINE SMOOTH",
"285 741 OFFCURVE",
"309 797 OFFCURVE",
"397 797 CURVE SMOOTH",
"481 797 OFFCURVE",
"498 743 OFFCURVE",
"498 678 CURVE SMOOTH",
"498 580 LINE",
"221 580 OFFCURVE",
"25 504 OFFCURVE",
"25 246 CURVE SMOOTH",
"25 25 OFFCURVE",
"176 -23 OFFCURVE",
"264 -23 CURVE SMOOTH",
"391 -23 OFFCURVE",
"451 27 OFFCURVE",
"506 102 CURVE",
"514 102 LINE",
"537 29 OFFCURVE",
"596 -23 OFFCURVE",
"682 -23 CURVE SMOOTH",
"748 -23 OFFCURVE",
"788 -6 OFFCURVE",
"811 8 CURVE",
"811 162 LINE",
"768 162 LINE SMOOTH",
"741 162 OFFCURVE",
"717 180 OFFCURVE",
"717 225 CURVE SMOOTH",
"717 694 LINE SMOOTH",
"717 870 OFFCURVE",
"614 975 OFFCURVE",
"393 975 CURVE SMOOTH"
);
},
{
closed = 1;
nodes = (
"498 367 LINE",
"498 256 OFFCURVE",
"459 160 OFFCURVE",
"354 160 CURVE SMOOTH",
"281 160 OFFCURVE",
"248 201 OFFCURVE",
"248 266 CURVE SMOOTH",
"248 389 OFFCURVE",
"371 422 OFFCURVE",
"498 422 CURVE"
);
},
{
closed = 1;
nodes = (
"297 1364 OFFCURVE",
"219 1286 OFFCURVE",
"219 1190 CURVE SMOOTH",
"219 1092 OFFCURVE",
"299 1016 OFFCURVE",
"393 1016 CURVE SMOOTH",
"489 1016 OFFCURVE",
"567 1094 OFFCURVE",
"567 1190 CURVE SMOOTH",
"567 1284 OFFCURVE",
"492 1364 OFFCURVE",
"393 1364 CURVE SMOOTH"
);
},
{
closed = 1;
nodes = (
"438 1272 OFFCURVE",
"475 1237 OFFCURVE",
"475 1190 CURVE SMOOTH",
"475 1143 OFFCURVE",
"438 1106 OFFCURVE",
"393 1106 CURVE SMOOTH",
"346 1106 OFFCURVE",
"309 1143 OFFCURVE",
"309 1190 CURVE SMOOTH",
"309 1237 OFFCURVE",
"346 1272 OFFCURVE",
"393 1272 CURVE SMOOTH"
);
}
);
width = 825;
}
);
unicode = 00E5;
},
{
glyphname = aringacute;
layers = (
{
layerId = "3CB5DA74-10A0-4C7B-8F49-8E762609D01C";
name = Bold;
paths = (
{
closed = 1;
nodes = (
"197 975 OFFCURVE",
"70 868 OFFCURVE",
"70 711 CURVE SMOOTH",
"70 694 OFFCURVE",
"70 680 OFFCURVE",
"72 670 CURVE",
"285 670 LINE",
"285 696 LINE SMOOTH",
"285 741 OFFCURVE",
"309 797 OFFCURVE",
"397 797 CURVE SMOOTH",
"481 797 OFFCURVE",
"498 743 OFFCURVE",
"498 678 CURVE SMOOTH",
"498 580 LINE",
"221 580 OFFCURVE",
"25 504 OFFCURVE",
"25 246 CURVE SMOOTH",
"25 25 OFFCURVE",
"176 -23 OFFCURVE",
"264 -23 CURVE SMOOTH",
"391 -23 OFFCURVE",
"451 27 OFFCURVE",
"506 102 CURVE",
"514 102 LINE",
"537 29 OFFCURVE",
"596 -23 OFFCURVE",
"682 -23 CURVE SMOOTH",
"748 -23 OFFCURVE",
"788 -6 OFFCURVE",
"811 8 CURVE",
"811 162 LINE",
"768 162 LINE SMOOTH",
"741 162 OFFCURVE",
"717 180 OFFCURVE",
"717 225 CURVE SMOOTH",
"717 694 LINE SMOOTH",
"717 870 OFFCURVE",
"614 975 OFFCURVE",
"393 975 CURVE SMOOTH"
);
},
{
closed = 1;
nodes = (
"498 367 LINE",
"498 256 OFFCURVE",
"459 160 OFFCURVE",
"354 160 CURVE SMOOTH",
"281 160 OFFCURVE",
"248 201 OFFCURVE",
"248 266 CURVE SMOOTH",
"248 389 OFFCURVE",
"371 422 OFFCURVE",
"498 422 CURVE"
);
},
{
closed = 1;
nodes = (
"438 1264 OFFCURVE",
"475 1229 OFFCURVE",
"475 1184 CURVE SMOOTH",
"475 1137 OFFCURVE",
"438 1102 OFFCURVE",
"393 1102 CURVE SMOOTH",
"346 1102 OFFCURVE",
"309 1137 OFFCURVE",
"309 1184 CURVE SMOOTH",
"309 1229 OFFCURVE",
"346 1264 OFFCURVE",
"393 1264 CURVE SMOOTH"
);
},
{
closed = 1;
nodes = (
"297 1352 OFFCURVE",
"219 1276 OFFCURVE",
"219 1184 CURVE SMOOTH",
"219 1090 OFFCURVE",
"299 1016 OFFCURVE",
"393 1016 CURVE SMOOTH",
"489 1016 OFFCURVE",
"567 1092 OFFCURVE",
"567 1184 CURVE SMOOTH",
"567 1274 OFFCURVE",
"492 1352 OFFCURVE",
"393 1352 CURVE SMOOTH"
);
},
{
closed = 1;
nodes = (
"668 1599 LINE",
"451 1599 LINE",
"315 1391 LINE",
"494 1391 LINE",
"670 1593 LINE"
);
}
);
width = 905;
}
);
unicode = 01FB;
},
{
glyphname = atilde;
layers = (
{
layerId = "3CB5DA74-10A0-4C7B-8F49-8E762609D01C";
name = Bold;
paths = (
{
closed = 1;
nodes = (
"197 975 OFFCURVE",
"70 868 OFFCURVE",
"70 711 CURVE SMOOTH",
"70 694 OFFCURVE",
"70 680 OFFCURVE",
"72 670 CURVE",
"285 670 LINE",
"285 696 LINE SMOOTH",
"285 741 OFFCURVE",
"309 797 OFFCURVE",
"397 797 CURVE SMOOTH",
"481 797 OFFCURVE",
"498 743 OFFCURVE",
"498 678 CURVE SMOOTH",
"498 580 LINE",
"221 580 OFFCURVE",
"25 504 OFFCURVE",
"25 246 CURVE SMOOTH",
"25 25 OFFCURVE",
"176 -23 OFFCURVE",
"264 -23 CURVE SMOOTH",
"391 -23 OFFCURVE",
"451 27 OFFCURVE",
"506 102 CURVE",
"514 102 LINE",
"537 29 OFFCURVE",
"596 -23 OFFCURVE",
"682 -23 CURVE SMOOTH",
"748 -23 OFFCURVE",
"788 -6 OFFCURVE",
"811 8 CURVE",
"811 162 LINE",
"768 162 LINE SMOOTH",
"741 162 OFFCURVE",
"717 180 OFFCURVE",
"717 225 CURVE SMOOTH",
"717 694 LINE SMOOTH",
"717 870 OFFCURVE",
"614 975 OFFCURVE",
"393 975 CURVE SMOOTH"
);
},
{
closed = 1;
nodes = (
"498 367 LINE",
"498 256 OFFCURVE",
"459 160 OFFCURVE",
"354 160 CURVE SMOOTH",
"281 160 OFFCURVE",
"248 201 OFFCURVE",
"248 266 CURVE SMOOTH",
"248 389 OFFCURVE",
"371 422 OFFCURVE",
"498 422 CURVE"
);
},
{
closed = 1;
nodes = (
"578 1309 LINE",
"569 1257 OFFCURVE",
"545 1241 OFFCURVE",
"508 1241 CURVE SMOOTH",
"426 1241 OFFCURVE",
"354 1309 OFFCURVE",
"266 1309 CURVE SMOOTH",
"139 1309 OFFCURVE",
"88 1188 OFFCURVE",
"88 1087 CURVE",
"209 1087 LINE",
"215 1137 OFFCURVE",
"242 1155 OFFCURVE",
"279 1155 CURVE SMOOTH",
"360 1155 OFFCURVE",
"430 1087 OFFCURVE",
"518 1087 CURVE SMOOTH",
"647 1087 OFFCURVE",
"696 1210 OFFCURVE",
"696 1309 CURVE"
);
}
);
width = 825;
}
);
unicode = 00E3;
},
{
glyphname = ae;
layers = (
{
anchors = (
{
name = top;
position = "{662, 952}";
}
);
layerId = "3CB5DA74-10A0-4C7B-8F49-8E762609D01C";
name = Bold;
paths = (
{
closed = 1;
nodes = (
"813 975 OFFCURVE",
"737 944 OFFCURVE",
"678 883 CURVE",
"625 942 OFFCURVE",
"543 975 OFFCURVE",
"434 975 CURVE SMOOTH",
"240 975 OFFCURVE",
"113 868 OFFCURVE",
"113 711 CURVE SMOOTH",
"113 694 OFFCURVE",
"113 680 OFFCURVE",
"115 670 CURVE",
"326 670 LINE",
"326 696 LINE SMOOTH",
"326 741 OFFCURVE",
"350 797 OFFCURVE",
"440 797 CURVE SMOOTH",
"522 797 OFFCURVE",
"539 743 OFFCURVE",
"539 678 CURVE SMOOTH",
"539 580 LINE",
"262 580 OFFCURVE",
"68 504 OFFCURVE",
"68 246 CURVE SMOOTH",
"68 25 OFFCURVE",
"240 -23 OFFCURVE",
"342 -23 CURVE SMOOTH",
"475 -23 OFFCURVE",
"559 31 OFFCURVE",
"629 106 CURVE",
"690 20 OFFCURVE",
"786 -23 OFFCURVE",
"913 -23 CURVE SMOOTH",
"1106 -23 OFFCURVE",
"1249 92 OFFCURVE",
"1249 336 CURVE",
"1034 336 LINE",
"1034 223 OFFCURVE",
"987 156 OFFCURVE",
"913 156 CURVE SMOOTH",
"805 156 OFFCURVE",
"768 252 OFFCURVE",
"766 422 CURVE",
"1249 422 LINE",
"1249 475 LINE SMOOTH",
"1249 819 OFFCURVE",
"1135 975 OFFCURVE",
"905 975 CURVE SMOOTH"
);
},
{
closed = 1;
nodes = (
"539 367 LINE",
"539 256 OFFCURVE",
"500 160 OFFCURVE",
"397 160 CURVE SMOOTH",
"322 160 OFFCURVE",
"289 201 OFFCURVE",
"289 266 CURVE SMOOTH",
"289 389 OFFCURVE",
"414 422 OFFCURVE",
"539 422 CURVE"
);
},
{
closed = 1;
nodes = (
"985 797 OFFCURVE",
"1022 717 OFFCURVE",
"1022 580 CURVE",
"768 580 LINE",
"774 717 OFFCURVE",
"813 797 OFFCURVE",
"905 797 CURVE SMOOTH"
);
}
);
width = 1319;
}
);
unicode = 00E6;
},
{
glyphname = aeacute;
layers = (
{
layerId = "3CB5DA74-10A0-4C7B-8F49-8E762609D01C";
name = Bold;
paths = (
{
closed = 1;
nodes = (
"813 975 OFFCURVE",
"737 944 OFFCURVE",
"678 883 CURVE",
"625 942 OFFCURVE",
"543 975 OFFCURVE",
"434 975 CURVE SMOOTH",
"240 975 OFFCURVE",
"113 868 OFFCURVE",
"113 711 CURVE SMOOTH",
"113 694 OFFCURVE",
"113 680 OFFCURVE",
"115 670 CURVE",
"326 670 LINE",
"326 696 LINE SMOOTH",
"326 741 OFFCURVE",
"350 797 OFFCURVE",
"440 797 CURVE SMOOTH",
"522 797 OFFCURVE",
"539 743 OFFCURVE",
"539 678 CURVE SMOOTH",
"539 580 LINE",
"262 580 OFFCURVE",
"68 504 OFFCURVE",
"68 246 CURVE SMOOTH",
"68 25 OFFCURVE",
"240 -23 OFFCURVE",
"342 -23 CURVE SMOOTH",
"475 -23 OFFCURVE",
"559 31 OFFCURVE",
"629 106 CURVE",
"690 20 OFFCURVE",
"786 -23 OFFCURVE",
"913 -23 CURVE SMOOTH",
"1106 -23 OFFCURVE",
"1249 92 OFFCURVE",
"1249 336 CURVE",
"1034 336 LINE",
"1034 223 OFFCURVE",
"987 156 OFFCURVE",
"913 156 CURVE SMOOTH",
"805 156 OFFCURVE",
"768 252 OFFCURVE",
"766 422 CURVE",
"1249 422 LINE",
"1249 475 LINE SMOOTH",
"1249 819 OFFCURVE",
"1135 975 OFFCURVE",
"905 975 CURVE SMOOTH"
);
},
{
closed = 1;
nodes = (
"539 367 LINE",
"539 256 OFFCURVE",
"500 160 OFFCURVE",
"397 160 CURVE SMOOTH",
"322 160 OFFCURVE",
"289 201 OFFCURVE",
"289 266 CURVE SMOOTH",
"289 389 OFFCURVE",
"414 422 OFFCURVE",
"539 422 CURVE"
);
},
{
closed = 1;
nodes = (
"985 797 OFFCURVE",
"1022 717 OFFCURVE",
"1022 580 CURVE",
"768 580 LINE",
"774 717 OFFCURVE",
"813 797 OFFCURVE",
"905 797 CURVE SMOOTH"
);
},
{
closed = 1;
nodes = (
"909 1309 LINE",
"692 1309 LINE",
"537 1069 LINE",
"715 1069 LINE",
"911 1303 LINE"
);
}
);
width = 1319;
}
);
unicode = 01FD;
},
{
glyphname = b;
layers = (
{
layerId = "3CB5DA74-10A0-4C7B-8F49-8E762609D01C";
name = Bold;
paths = (
{
closed = 1;
nodes = (
"317 1309 LINE",
"100 1309 LINE",
"100 0 LINE",
"281 0 LINE",
"303 117 LINE",
"311 117 LINE",
"358 25 OFFCURVE",
"436 -23 OFFCURVE",
"526 -23 CURVE SMOOTH",
"715 -23 OFFCURVE",
"834 133 OFFCURVE",
"834 477 CURVE SMOOTH",
"834 823 OFFCURVE",
"707 975 OFFCURVE",
"539 975 CURVE SMOOTH",
"442 975 OFFCURVE",
"360 930 OFFCURVE",
"326 854 CURVE",
"317 854 LINE"
);
},
{
closed = 1;
nodes = (
"567 776 OFFCURVE",
"606 682 OFFCURVE",
"606 510 CURVE SMOOTH",
"606 442 LINE SMOOTH",
"606 270 OFFCURVE",
"567 176 OFFCURVE",
"461 176 CURVE SMOOTH",
"356 176 OFFCURVE",
"317 270 OFFCURVE",
"317 442 CURVE SMOOTH",
"317 508 LINE SMOOTH",
"317 678 OFFCURVE",
"356 776 OFFCURVE",
"461 776 CURVE SMOOTH"
);
}
);
width = 907;
}
);
unicode = 0062;
},
{
glyphname = c;
layers = (
{
anchors = (
{
name = bottom;
position = "{414, 0}";
},
{
name = top;
position = "{414, 952}";
}
);
layerId = "3CB5DA74-10A0-4C7B-8F49-8E762609D01C";
name = Bold;
paths = (
{
closed = 1;
nodes = (
"193 975 OFFCURVE",
"74 819 OFFCURVE",
"74 475 CURVE SMOOTH",
"74 133 OFFCURVE",
"186 -23 OFFCURVE",
"434 -23 CURVE SMOOTH",
"633 -23 OFFCURVE",
"760 92 OFFCURVE",
"760 358 CURVE",
"545 358 LINE",
"545 227 OFFCURVE",
"512 162 OFFCURVE",
"434 162 CURVE SMOOTH",
"336 162 OFFCURVE",
"301 258 OFFCURVE",
"301 442 CURVE SMOOTH",
"301 510 LINE SMOOTH",
"301 694 OFFCURVE",
"336 791 OFFCURVE",
"428 791 CURVE SMOOTH",
"502 791 OFFCURVE",
"539 727 OFFCURVE",
"539 594 CURVE",
"760 594 LINE",
"760 860 OFFCURVE",
"631 975 OFFCURVE",
"428 975 CURVE SMOOTH"
);
}
);
width = 825;
}
);
unicode = 0063;
},
{
glyphname = cacute;
layers = (
{
layerId = "3CB5DA74-10A0-4C7B-8F49-8E762609D01C";
name = Bold;
paths = (
{
closed = 1;
nodes = (
"193 975 OFFCURVE",
"74 819 OFFCURVE",
"74 475 CURVE SMOOTH",
"74 133 OFFCURVE",
"186 -23 OFFCURVE",
"434 -23 CURVE SMOOTH",
"633 -23 OFFCURVE",
"760 92 OFFCURVE",
"760 358 CURVE",
"545 358 LINE",
"545 227 OFFCURVE",
"512 162 OFFCURVE",
"434 162 CURVE SMOOTH",
"336 162 OFFCURVE",
"301 258 OFFCURVE",
"301 442 CURVE SMOOTH",
"301 510 LINE SMOOTH",
"301 694 OFFCURVE",
"336 791 OFFCURVE",
"428 791 CURVE SMOOTH",
"502 791 OFFCURVE",
"539 727 OFFCURVE",
"539 594 CURVE",
"760 594 LINE",
"760 860 OFFCURVE",
"631 975 OFFCURVE",
"428 975 CURVE SMOOTH"
);
},
{
closed = 1;
nodes = (
"678 1309 LINE",
"461 1309 LINE",
"305 1069 LINE",
"485 1069 LINE",
"678 1303 LINE"
);
}
);
width = 825;
}
);
unicode = 0107;
},
{
glyphname = ccaron;
layers = (
{
layerId = "3CB5DA74-10A0-4C7B-8F49-8E762609D01C";
name = Bold;
paths = (
{
closed = 1;
nodes = (
"193 975 OFFCURVE",
"74 819 OFFCURVE",
"74 475 CURVE SMOOTH",
"74 133 OFFCURVE",
"186 -23 OFFCURVE",
"434 -23 CURVE SMOOTH",
"633 -23 OFFCURVE",
"760 92 OFFCURVE",
"760 358 CURVE",
"545 358 LINE",
"545 227 OFFCURVE",
"512 162 OFFCURVE",
"434 162 CURVE SMOOTH",
"336 162 OFFCURVE",
"301 258 OFFCURVE",
"301 442 CURVE SMOOTH",
"301 510 LINE SMOOTH",
"301 694 OFFCURVE",
"336 791 OFFCURVE",
"428 791 CURVE SMOOTH",
"502 791 OFFCURVE",
"539 727 OFFCURVE",
"539 594 CURVE",
"760 594 LINE",
"760 860 OFFCURVE",
"631 975 OFFCURVE",
"428 975 CURVE SMOOTH"
);
},
{
closed = 1;
nodes = (
"520 1065 LINE",
"674 1309 LINE",
"510 1309 LINE",
"430 1184 LINE",
"350 1309 LINE",
"186 1309 LINE",
"342 1065 LINE"
);
}
);
width = 825;
}
);
unicode = 010D;
},
{
glyphname = ccedilla;
layers = (
{
layerId = "3CB5DA74-10A0-4C7B-8F49-8E762609D01C";
name = Bold;
paths = (
{
closed = 1;
nodes = (
"193 975 OFFCURVE",
"74 819 OFFCURVE",
"74 475 CURVE SMOOTH",
"74 174 OFFCURVE",
"162 16 OFFCURVE",
"352 -14 CURVE",
"338 -139 LINE",
"397 -139 LINE SMOOTH",
"444 -139 OFFCURVE",
"459 -154 OFFCURVE",
"459 -182 CURVE SMOOTH",
"459 -217 OFFCURVE",
"432 -227 OFFCURVE",
"393 -227 CURVE SMOOTH",
"264 -227 LINE",
"264 -315 LINE",
"307 -324 OFFCURVE",
"367 -330 OFFCURVE",
"416 -330 CURVE SMOOTH",
"494 -330 OFFCURVE",
"614 -305 OFFCURVE",
"614 -182 CURVE SMOOTH",
"614 -100 OFFCURVE",
"549 -66 OFFCURVE",
"471 -59 CURVE",
"475 -20 LINE",
"649 -4 OFFCURVE",
"760 111 OFFCURVE",
"760 358 CURVE",
"545 358 LINE",
"545 227 OFFCURVE",
"512 162 OFFCURVE",
"434 162 CURVE SMOOTH",
"336 162 OFFCURVE",
"301 258 OFFCURVE",
"301 442 CURVE SMOOTH",
"301 510 LINE SMOOTH",
"301 694 OFFCURVE",
"336 791 OFFCURVE",
"428 791 CURVE SMOOTH",
"502 791 OFFCURVE",
"539 727 OFFCURVE",
"539 594 CURVE",
"760 594 LINE",
"760 860 OFFCURVE",
"631 975 OFFCURVE",
"428 975 CURVE SMOOTH"
);
}
);
width = 825;
}
);
unicode = 00E7;
},
{
glyphname = ccircumflex;
layers = (
{
layerId = "3CB5DA74-10A0-4C7B-8F49-8E762609D01C";
name = Bold;
paths = (
{
closed = 1;
nodes = (
"193 975 OFFCURVE",
"74 819 OFFCURVE",
"74 475 CURVE SMOOTH",
"74 133 OFFCURVE",
"186 -23 OFFCURVE",
"434 -23 CURVE SMOOTH",
"633 -23 OFFCURVE",
"760 92 OFFCURVE",
"760 358 CURVE",
"545 358 LINE",
"545 227 OFFCURVE",
"512 162 OFFCURVE",
"434 162 CURVE SMOOTH",
"336 162 OFFCURVE",
"301 258 OFFCURVE",
"301 442 CURVE SMOOTH",
"301 510 LINE SMOOTH",
"301 694 OFFCURVE",
"336 791 OFFCURVE",
"428 791 CURVE SMOOTH",
"502 791 OFFCURVE",
"539 727 OFFCURVE",
"539 594 CURVE",
"760 594 LINE",
"760 860 OFFCURVE",
"631 975 OFFCURVE",
"428 975 CURVE SMOOTH"
);
},
{
closed = 1;
nodes = (
"674 1065 LINE",
"520 1309 LINE",
"342 1309 LINE",
"186 1065 LINE",
"350 1065 LINE",
"430 1190 LINE",
"510 1065 LINE"
);
}
);
width = 825;
}
);
unicode = 0109;
},
{
glyphname = cdotaccent;
layers = (
{
layerId = "3CB5DA74-10A0-4C7B-8F49-8E762609D01C";
name = Bold;
paths = (
{
closed = 1;
nodes = (
"193 975 OFFCURVE",
"74 819 OFFCURVE",
"74 475 CURVE SMOOTH",
"74 133 OFFCURVE",
"186 -23 OFFCURVE",
"434 -23 CURVE SMOOTH",
"633 -23 OFFCURVE",
"760 92 OFFCURVE",
"760 358 CURVE",
"545 358 LINE",
"545 227 OFFCURVE",
"512 162 OFFCURVE",
"434 162 CURVE SMOOTH",
"336 162 OFFCURVE",
"301 258 OFFCURVE",
"301 442 CURVE SMOOTH",
"301 510 LINE SMOOTH",
"301 694 OFFCURVE",
"336 791 OFFCURVE",
"428 791 CURVE SMOOTH",
"502 791 OFFCURVE",
"539 727 OFFCURVE",
"539 594 CURVE",
"760 594 LINE",
"760 860 OFFCURVE",
"631 975 OFFCURVE",
"428 975 CURVE SMOOTH"
);
},
{
closed = 1;
nodes = (
"526 1100 LINE",
"526 1309 LINE",
"334 1309 LINE",
"334 1100 LINE"
);
}
);
width = 825;
}
);
unicode = 010B;
},
{
glyphname = d;
layers = (
{
anchors = (
{
name = center;
position = "{455, 475}";
}
);
layerId = "3CB5DA74-10A0-4C7B-8F49-8E762609D01C";
name = Bold;
paths = (
{
closed = 1;
nodes = (
"807 0 LINE",
"807 1309 LINE",
"590 1309 LINE",
"590 854 LINE",
"582 854 LINE",
"547 930 OFFCURVE",
"465 975 OFFCURVE",
"369 975 CURVE SMOOTH",
"201 975 OFFCURVE",
"74 823 OFFCURVE",
"74 477 CURVE SMOOTH",
"74 133 OFFCURVE",
"193 -23 OFFCURVE",
"381 -23 CURVE SMOOTH",
"471 -23 OFFCURVE",
"549 25 OFFCURVE",
"596 117 CURVE",
"604 117 LINE",
"627 0 LINE"
);
},
{
closed = 1;
nodes = (
"551 776 OFFCURVE",
"590 678 OFFCURVE",
"590 508 CURVE SMOOTH",
"590 442 LINE SMOOTH",
"590 270 OFFCURVE",
"551 176 OFFCURVE",
"444 176 CURVE SMOOTH",
"340 176 OFFCURVE",
"301 270 OFFCURVE",
"301 442 CURVE SMOOTH",
"301 510 LINE SMOOTH",
"301 682 OFFCURVE",
"340 776 OFFCURVE",
"444 776 CURVE SMOOTH"
);
}
);
width = 907;
}
);
unicode = 0064;
},
{
glyphname = eth;
layers = (
{
layerId = "3CB5DA74-10A0-4C7B-8F49-8E762609D01C";
name = Bold;
paths = (
{
closed = 1;
nodes = (
"240 1309 LINE",
"236 1303 LINE",
"258 1278 OFFCURVE",
"295 1243 OFFCURVE",
"332 1202 CURVE",
"195 1190 LINE",
"195 1057 LINE",
"430 1077 LINE",
"455 1040 OFFCURVE",
"479 1001 OFFCURVE",
"498 967 CURVE",
"492 961 LINE",
"465 969 OFFCURVE",
"430 975 OFFCURVE",
"403 975 CURVE SMOOTH",
"201 975 OFFCURVE",
"74 803 OFFCURVE",
"74 475 CURVE SMOOTH",
"74 133 OFFCURVE",
"201 -23 OFFCURVE",
"455 -23 CURVE SMOOTH",
"709 -23 OFFCURVE",
"836 133 OFFCURVE",
"836 475 CURVE SMOOTH",
"836 762 OFFCURVE",
"752 961 OFFCURVE",
"657 1100 CURVE",
"793 1112 LINE",
"793 1243 LINE",
"557 1223 LINE",
"522 1257 OFFCURVE",
"492 1288 OFFCURVE",
"467 1309 CURVE"
);
},
{
closed = 1;
nodes = (
"567 791 OFFCURVE",
"608 694 OFFCURVE",
"608 510 CURVE SMOOTH",
"608 442 LINE SMOOTH",
"608 258 OFFCURVE",
"567 162 OFFCURVE",
"455 162 CURVE SMOOTH",
"342 162 OFFCURVE",
"301 258 OFFCURVE",
"301 442 CURVE SMOOTH",
"301 510 LINE SMOOTH",
"301 694 OFFCURVE",
"342 791 OFFCURVE",
"455 791 CURVE SMOOTH"
);
}
);
width = 907;
}
);
unicode = 00F0;
},
{
glyphname = dcaron;
layers = (
{
layerId = "3CB5DA74-10A0-4C7B-8F49-8E762609D01C";
name = Bold;
paths = (
{
closed = 1;
nodes = (
"807 0 LINE",
"807 1309 LINE",
"590 1309 LINE",
"590 854 LINE",
"582 854 LINE",
"547 930 OFFCURVE",
"465 975 OFFCURVE",
"369 975 CURVE SMOOTH",
"201 975 OFFCURVE",
"74 823 OFFCURVE",
"74 477 CURVE SMOOTH",
"74 133 OFFCURVE",
"193 -23 OFFCURVE",
"381 -23 CURVE SMOOTH",
"471 -23 OFFCURVE",
"549 25 OFFCURVE",
"596 117 CURVE",
"604 117 LINE",
"627 0 LINE"
);
},
{
closed = 1;
nodes = (
"551 776 OFFCURVE",
"590 678 OFFCURVE",
"590 508 CURVE SMOOTH",
"590 442 LINE SMOOTH",
"590 270 OFFCURVE",
"551 176 OFFCURVE",
"444 176 CURVE SMOOTH",
"340 176 OFFCURVE",
"301 270 OFFCURVE",
"301 442 CURVE SMOOTH",
"301 510 LINE SMOOTH",
"301 682 OFFCURVE",
"340 776 OFFCURVE",
"444 776 CURVE SMOOTH"
);
},
{
closed = 1;
nodes = (
"1114 1016 LINE",
"1114 1241 LINE",
"864 1241 LINE",
"864 993 LINE",
"963 993 LINE",
"864 711 LINE",
"993 711 LINE"
);
}
);
width = 1067;
}
);
unicode = 010F;
},
{
glyphname = dcroat;
layers = (
{
layerId = "3CB5DA74-10A0-4C7B-8F49-8E762609D01C";
name = Bold;
paths = (
{
closed = 1;
nodes = (
"807 1309 LINE",
"590 1309 LINE",
"590 1212 LINE",
"350 1212 LINE",
"350 1055 LINE",
"590 1055 LINE",
"590 854 LINE",
"582 854 LINE",
"547 930 OFFCURVE",
"465 975 OFFCURVE",
"369 975 CURVE SMOOTH",
"201 975 OFFCURVE",
"74 823 OFFCURVE",
"74 477 CURVE SMOOTH",
"74 133 OFFCURVE",
"193 -23 OFFCURVE",
"381 -23 CURVE SMOOTH",
"471 -23 OFFCURVE",
"549 25 OFFCURVE",
"596 117 CURVE",
"604 117 LINE",
"627 0 LINE",
"807 0 LINE",
"807 1055 LINE",
"905 1055 LINE",
"905 1212 LINE",
"807 1212 LINE"
);
},
{
closed = 1;
nodes = (
"551 776 OFFCURVE",
"590 678 OFFCURVE",
"590 508 CURVE SMOOTH",
"590 442 LINE SMOOTH",
"590 270 OFFCURVE",
"551 176 OFFCURVE",
"444 176 CURVE SMOOTH",
"340 176 OFFCURVE",
"301 270 OFFCURVE",
"301 442 CURVE SMOOTH",
"301 510 LINE SMOOTH",
"301 682 OFFCURVE",
"340 776 OFFCURVE",
"444 776 CURVE SMOOTH"
);
}
);
width = 913;
}
);
unicode = 0111;
},
{
glyphname = e;
layers = (
{
anchors = (
{
name = bottom;
position = "{414, 0}";
},
{
name = ogonek;
position = "{741, 18}";
},
{
name = top;
position = "{414, 952}";
}
);
layerId = "3CB5DA74-10A0-4C7B-8F49-8E762609D01C";
name = Bold;
paths = (
{
closed = 1;
nodes = (
"186 975 OFFCURVE",
"55 819 OFFCURVE",
"55 475 CURVE SMOOTH",
"55 133 OFFCURVE",
"184 -23 OFFCURVE",
"430 -23 CURVE SMOOTH",
"623 -23 OFFCURVE",
"766 92 OFFCURVE",
"766 336 CURVE",
"551 336 LINE",
"551 223 OFFCURVE",
"504 156 OFFCURVE",
"430 156 CURVE SMOOTH",
"322 156 OFFCURVE",
"285 252 OFFCURVE",
"283 422 CURVE",
"766 422 LINE",
"766 475 LINE SMOOTH",
"766 819 OFFCURVE",
"651 975 OFFCURVE",
"422 975 CURVE SMOOTH"
);
},
{
closed = 1;
nodes = (
"502 797 OFFCURVE",
"539 717 OFFCURVE",
"539 580 CURVE",
"285 580 LINE",
"291 717 OFFCURVE",
"330 797 OFFCURVE",
"422 797 CURVE SMOOTH"
);
}
);
width = 825;
}
);
unicode = 0065;
},
{
glyphname = eacute;
layers = (
{
layerId = "3CB5DA74-10A0-4C7B-8F49-8E762609D01C";
name = Bold;
paths = (
{
closed = 1;
nodes = (
"186 975 OFFCURVE",
"55 819 OFFCURVE",
"55 475 CURVE SMOOTH",
"55 133 OFFCURVE",
"184 -23 OFFCURVE",
"430 -23 CURVE SMOOTH",
"623 -23 OFFCURVE",
"766 92 OFFCURVE",
"766 336 CURVE",
"551 336 LINE",
"551 223 OFFCURVE",
"504 156 OFFCURVE",
"430 156 CURVE SMOOTH",
"322 156 OFFCURVE",
"285 252 OFFCURVE",
"283 422 CURVE",
"766 422 LINE",
"766 475 LINE SMOOTH",
"766 819 OFFCURVE",
"651 975 OFFCURVE",
"422 975 CURVE SMOOTH"
);
},
{
closed = 1;
nodes = (
"502 797 OFFCURVE",
"539 717 OFFCURVE",
"539 580 CURVE",
"285 580 LINE",
"291 717 OFFCURVE",
"330 797 OFFCURVE",
"422 797 CURVE SMOOTH"
);
},
{
closed = 1;
nodes = (
"662 1309 LINE",
"444 1309 LINE",
"289 1069 LINE",
"467 1069 LINE",
"664 1303 LINE"
);
}
);
width = 825;
}
);
unicode = 00E9;
},
{
glyphname = ebreve;
layers = (
{
layerId = "3CB5DA74-10A0-4C7B-8F49-8E762609D01C";
name = Bold;
paths = (
{
closed = 1;
nodes = (
"186 975 OFFCURVE",
"55 819 OFFCURVE",
"55 475 CURVE SMOOTH",
"55 133 OFFCURVE",
"184 -23 OFFCURVE",
"430 -23 CURVE SMOOTH",
"623 -23 OFFCURVE",
"766 92 OFFCURVE",
"766 336 CURVE",
"551 336 LINE",
"551 223 OFFCURVE",
"504 156 OFFCURVE",
"430 156 CURVE SMOOTH",
"322 156 OFFCURVE",
"285 252 OFFCURVE",
"283 422 CURVE",
"766 422 LINE",
"766 475 LINE SMOOTH",
"766 819 OFFCURVE",
"651 975 OFFCURVE",
"422 975 CURVE SMOOTH"
);
},
{
closed = 1;
nodes = (
"502 797 OFFCURVE",
"539 717 OFFCURVE",
"539 580 CURVE",
"285 580 LINE",
"291 717 OFFCURVE",
"330 797 OFFCURVE",
"422 797 CURVE SMOOTH"
);
},
{
closed = 1;
nodes = (
"522 1309 LINE",
"518 1284 OFFCURVE",
"475 1249 OFFCURVE",
"414 1249 CURVE SMOOTH",
"352 1249 OFFCURVE",
"311 1284 OFFCURVE",
"305 1309 CURVE",
"172 1309 LINE",
"172 1219 OFFCURVE",
"264 1116 OFFCURVE",
"414 1116 CURVE SMOOTH",
"563 1116 OFFCURVE",
"655 1219 OFFCURVE",
"655 1309 CURVE"
);
}
);
width = 825;
}
);
unicode = 0115;
},
{
glyphname = ecaron;
layers = (
{
layerId = "3CB5DA74-10A0-4C7B-8F49-8E762609D01C";
name = Bold;
paths = (
{
closed = 1;
nodes = (
"186 975 OFFCURVE",
"55 819 OFFCURVE",
"55 475 CURVE SMOOTH",
"55 133 OFFCURVE",
"184 -23 OFFCURVE",
"430 -23 CURVE SMOOTH",
"623 -23 OFFCURVE",
"766 92 OFFCURVE",
"766 336 CURVE",
"551 336 LINE",
"551 223 OFFCURVE",
"504 156 OFFCURVE",
"430 156 CURVE SMOOTH",
"322 156 OFFCURVE",
"285 252 OFFCURVE",
"283 422 CURVE",
"766 422 LINE",
"766 475 LINE SMOOTH",
"766 819 OFFCURVE",
"651 975 OFFCURVE",
"422 975 CURVE SMOOTH"
);
},
{
closed = 1;
nodes = (
"502 797 OFFCURVE",
"539 717 OFFCURVE",
"539 580 CURVE",
"285 580 LINE",
"291 717 OFFCURVE",
"330 797 OFFCURVE",
"422 797 CURVE SMOOTH"
);
},
{
closed = 1;
nodes = (
"504 1065 LINE",
"657 1309 LINE",
"494 1309 LINE",
"414 1184 LINE",
"334 1309 LINE",
"170 1309 LINE",
"326 1065 LINE"
);
}
);
width = 825;
}
);
unicode = 011B;
},
{
glyphname = ecircumflex;
layers = (
{
layerId = "3CB5DA74-10A0-4C7B-8F49-8E762609D01C";
name = Bold;
paths = (
{
closed = 1;
nodes = (
"186 975 OFFCURVE",
"55 819 OFFCURVE",
"55 475 CURVE SMOOTH",
"55 133 OFFCURVE",
"184 -23 OFFCURVE",
"430 -23 CURVE SMOOTH",
"623 -23 OFFCURVE",
"766 92 OFFCURVE",
"766 336 CURVE",
"551 336 LINE",
"551 223 OFFCURVE",
"504 156 OFFCURVE",
"430 156 CURVE SMOOTH",
"322 156 OFFCURVE",
"285 252 OFFCURVE",
"283 422 CURVE",
"766 422 LINE",
"766 475 LINE SMOOTH",
"766 819 OFFCURVE",
"651 975 OFFCURVE",
"422 975 CURVE SMOOTH"
);
},
{
closed = 1;
nodes = (
"502 797 OFFCURVE",
"539 717 OFFCURVE",
"539 580 CURVE",
"285 580 LINE",
"291 717 OFFCURVE",
"330 797 OFFCURVE",
"422 797 CURVE SMOOTH"
);
},
{
closed = 1;
nodes = (
"657 1065 LINE",
"504 1309 LINE",
"326 1309 LINE",
"170 1065 LINE",
"334 1065 LINE",
"414 1190 LINE",
"494 1065 LINE"
);
}
);
width = 825;
}
);
unicode = 00EA;
},
{
glyphname = edieresis;
layers = (
{
layerId = "3CB5DA74-10A0-4C7B-8F49-8E762609D01C";
name = Bold;
paths = (
{
closed = 1;
nodes = (
"186 975 OFFCURVE",
"55 819 OFFCURVE",
"55 475 CURVE SMOOTH",
"55 133 OFFCURVE",
"184 -23 OFFCURVE",
"430 -23 CURVE SMOOTH",
"623 -23 OFFCURVE",
"766 92 OFFCURVE",
"766 336 CURVE",
"551 336 LINE",
"551 223 OFFCURVE",
"504 156 OFFCURVE",
"430 156 CURVE SMOOTH",
"322 156 OFFCURVE",
"285 252 OFFCURVE",
"283 422 CURVE",
"766 422 LINE",
"766 475 LINE SMOOTH",
"766 819 OFFCURVE",
"651 975 OFFCURVE",
"422 975 CURVE SMOOTH"
);
},
{
closed = 1;
nodes = (
"502 797 OFFCURVE",
"539 717 OFFCURVE",
"539 580 CURVE",
"285 580 LINE",
"291 717 OFFCURVE",
"330 797 OFFCURVE",
"422 797 CURVE SMOOTH"
);
},
{
closed = 1;
nodes = (
"346 1309 LINE",
"164 1309 LINE",
"164 1112 LINE",
"346 1112 LINE"
);
},
{
closed = 1;
nodes = (
"664 1309 LINE",
"481 1309 LINE",
"481 1112 LINE",
"664 1112 LINE"
);
}
);
width = 825;
}
);
unicode = 00EB;
},
{
glyphname = edotaccent;
layers = (
{
layerId = "3CB5DA74-10A0-4C7B-8F49-8E762609D01C";
name = Bold;
paths = (
{
closed = 1;
nodes = (
"186 975 OFFCURVE",
"55 819 OFFCURVE",
"55 475 CURVE SMOOTH",
"55 133 OFFCURVE",
"184 -23 OFFCURVE",
"430 -23 CURVE SMOOTH",
"623 -23 OFFCURVE",
"766 92 OFFCURVE",
"766 336 CURVE",
"551 336 LINE",
"551 223 OFFCURVE",
"504 156 OFFCURVE",
"430 156 CURVE SMOOTH",
"322 156 OFFCURVE",
"285 252 OFFCURVE",
"283 422 CURVE",
"766 422 LINE",
"766 475 LINE SMOOTH",
"766 819 OFFCURVE",
"651 975 OFFCURVE",
"422 975 CURVE SMOOTH"
);
},
{
closed = 1;
nodes = (
"502 797 OFFCURVE",
"539 717 OFFCURVE",
"539 580 CURVE",
"285 580 LINE",
"291 717 OFFCURVE",
"330 797 OFFCURVE",
"422 797 CURVE SMOOTH"
);
},
{
closed = 1;
nodes = (
"510 1100 LINE",
"510 1309 LINE",
"317 1309 LINE",
"317 1100 LINE"
);
}
);
width = 825;
}
);
unicode = 0117;
},
{
glyphname = egrave;
layers = (
{
layerId = "3CB5DA74-10A0-4C7B-8F49-8E762609D01C";
name = Bold;
paths = (
{
closed = 1;
nodes = (
"186 975 OFFCURVE",
"55 819 OFFCURVE",
"55 475 CURVE SMOOTH",
"55 133 OFFCURVE",
"184 -23 OFFCURVE",
"430 -23 CURVE SMOOTH",
"623 -23 OFFCURVE",
"766 92 OFFCURVE",
"766 336 CURVE",
"551 336 LINE",
"551 223 OFFCURVE",
"504 156 OFFCURVE",
"430 156 CURVE SMOOTH",
"322 156 OFFCURVE",
"285 252 OFFCURVE",
"283 422 CURVE",
"766 422 LINE",
"766 475 LINE SMOOTH",
"766 819 OFFCURVE",
"651 975 OFFCURVE",
"422 975 CURVE SMOOTH"
);
},
{
closed = 1;
nodes = (
"502 797 OFFCURVE",
"539 717 OFFCURVE",
"539 580 CURVE",
"285 580 LINE",
"291 717 OFFCURVE",
"330 797 OFFCURVE",
"422 797 CURVE SMOOTH"
);
},
{
closed = 1;
nodes = (
"383 1309 LINE",
"164 1309 LINE",
"164 1303 LINE",
"358 1069 LINE",
"539 1069 LINE"
);
}
);
width = 825;
}
);
unicode = 00E8;
},
{
glyphname = emacron;
layers = (
{
layerId = "3CB5DA74-10A0-4C7B-8F49-8E762609D01C";
name = Bold;
paths = (
{
closed = 1;
nodes = (
"186 975 OFFCURVE",
"55 819 OFFCURVE",
"55 475 CURVE SMOOTH",
"55 133 OFFCURVE",
"184 -23 OFFCURVE",
"430 -23 CURVE SMOOTH",
"623 -23 OFFCURVE",
"766 92 OFFCURVE",
"766 336 CURVE",
"551 336 LINE",
"551 223 OFFCURVE",
"504 156 OFFCURVE",
"430 156 CURVE SMOOTH",
"322 156 OFFCURVE",
"285 252 OFFCURVE",
"283 422 CURVE",
"766 422 LINE",
"766 475 LINE SMOOTH",
"766 819 OFFCURVE",
"651 975 OFFCURVE",
"422 975 CURVE SMOOTH"
);
},
{
closed = 1;
nodes = (
"502 797 OFFCURVE",
"539 717 OFFCURVE",
"539 580 CURVE",
"285 580 LINE",
"291 717 OFFCURVE",
"330 797 OFFCURVE",
"422 797 CURVE SMOOTH"
);
},
{
closed = 1;
nodes = (
"645 1085 LINE",
"645 1241 LINE",
"182 1241 LINE",
"182 1085 LINE"
);
}
);
width = 825;
}
);
unicode = 0113;
},
{
glyphname = eogonek;
layers = (
{
layerId = "3CB5DA74-10A0-4C7B-8F49-8E762609D01C";
name = Bold;
paths = (
{
closed = 1;
nodes = (
"186 975 OFFCURVE",
"55 819 OFFCURVE",
"55 475 CURVE SMOOTH",
"55 133 OFFCURVE",
"184 -23 OFFCURVE",
"430 -23 CURVE SMOOTH",
"444 -23 OFFCURVE",
"461 -23 OFFCURVE",
"475 -20 CURVE",
"446 23 LINE",
"397 -27 OFFCURVE",
"354 -78 OFFCURVE",
"354 -172 CURVE SMOOTH",
"354 -297 OFFCURVE",
"453 -336 OFFCURVE",
"535 -336 CURVE SMOOTH",
"573 -336 OFFCURVE",
"612 -326 OFFCURVE",
"653 -309 CURVE",
"653 -211 LINE",
"614 -211 LINE SMOOTH",
"555 -211 OFFCURVE",
"532 -164 OFFCURVE",
"532 -117 CURVE SMOOTH",
"532 -68 OFFCURVE",
"565 -16 OFFCURVE",
"586 8 CURVE",
"694 57 OFFCURVE",
"766 164 OFFCURVE",
"766 336 CURVE",
"551 336 LINE",
"551 223 OFFCURVE",
"504 156 OFFCURVE",
"430 156 CURVE SMOOTH",
"322 156 OFFCURVE",
"285 252 OFFCURVE",
"283 422 CURVE",
"766 422 LINE",
"766 475 LINE SMOOTH",
"766 819 OFFCURVE",
"651 975 OFFCURVE",
"422 975 CURVE SMOOTH"
);
},
{
closed = 1;
nodes = (
"502 797 OFFCURVE",
"539 717 OFFCURVE",
"539 580 CURVE",
"285 580 LINE",
"291 717 OFFCURVE",
"330 797 OFFCURVE",
"422 797 CURVE SMOOTH"
);
}
);
width = 825;
}
);
unicode = 0119;
},
{
glyphname = f;
layers = (
{
layerId = "3CB5DA74-10A0-4C7B-8F49-8E762609D01C";
name = Bold;
paths = (
{
closed = 1;
nodes = (
"164 1323 OFFCURVE",
"113 1194 OFFCURVE",
"113 1069 CURVE SMOOTH",
"113 952 LINE",
"16 952 LINE",
"16 770 LINE",
"113 770 LINE",
"113 0 LINE",
"330 0 LINE",
"330 770 LINE",
"494 770 LINE",
"494 952 LINE",
"330 952 LINE",
"330 1063 LINE SMOOTH",
"330 1114 OFFCURVE",
"356 1141 OFFCURVE",
"406 1141 CURVE SMOOTH",
"494 1141 LINE",
"494 1303 LINE",
"459 1313 OFFCURVE",
"387 1323 OFFCURVE",
"336 1323 CURVE SMOOTH"
);
}
);
width = 494;
}
);
unicode = 0066;
},
{
glyphname = g;
layers = (
{
anchors = (
{
name = top;
position = "{455, 952}";
}
);
layerId = "3CB5DA74-10A0-4C7B-8F49-8E762609D01C";
name = Bold;
paths = (
{
closed = 1;
nodes = (
"700 1112 LINE",
"700 1077 OFFCURVE",
"680 999 OFFCURVE",
"608 946 CURVE",
"563 965 OFFCURVE",
"508 975 OFFCURVE",
"449 975 CURVE SMOOTH",
"221 975 OFFCURVE",
"98 846 OFFCURVE",
"98 649 CURVE SMOOTH",
"98 539 OFFCURVE",
"137 449 OFFCURVE",
"213 393 CURVE",
"137 367 OFFCURVE",
"74 309 OFFCURVE",
"74 225 CURVE SMOOTH",
"74 162 OFFCURVE",
"102 113 OFFCURVE",
"150 84 CURVE",
"82 45 OFFCURVE",
"29 -16 OFFCURVE",
"29 -111 CURVE SMOOTH",
"29 -242 OFFCURVE",
"123 -330 OFFCURVE",
"240 -330 CURVE SMOOTH",
"588 -330 LINE SMOOTH",
"758 -330 OFFCURVE",
"897 -213 OFFCURVE",
"897 -37 CURVE SMOOTH",
"897 117 OFFCURVE",
"799 211 OFFCURVE",
"678 211 CURVE SMOOTH",
"350 211 LINE SMOOTH",
"317 211 OFFCURVE",
"293 236 OFFCURVE",
"293 268 CURVE SMOOTH",
"293 301 OFFCURVE",
"319 326 OFFCURVE",
"358 326 CURVE SMOOTH",
"449 326 LINE SMOOTH",
"678 326 OFFCURVE",
"803 455 OFFCURVE",
"803 649 CURVE SMOOTH",
"803 739 OFFCURVE",
"774 815 OFFCURVE",
"725 868 CURVE",
"821 897 OFFCURVE",
"881 975 OFFCURVE",
"881 1112 CURVE"
);
},
{
closed = 1;
nodes = (
"588 10 LINE",
"637 10 OFFCURVE",
"678 -23 OFFCURVE",
"678 -76 CURVE SMOOTH",
"678 -131 OFFCURVE",
"633 -164 OFFCURVE",
"580 -164 CURVE SMOOTH",
"336 -164 LINE SMOOTH",
"287 -164 OFFCURVE",
"248 -131 OFFCURVE",
"248 -76 CURVE SMOOTH",
"248 -29 OFFCURVE",
"287 10 OFFCURVE",
"336 10 CURVE SMOOTH"
);
},
{
closed = 1;
nodes = (
"539 813 OFFCURVE",
"586 752 OFFCURVE",
"586 649 CURVE SMOOTH",
"586 549 OFFCURVE",
"539 487 OFFCURVE",
"449 487 CURVE SMOOTH",
"360 487 OFFCURVE",
"315 549 OFFCURVE",
"315 649 CURVE SMOOTH",
"315 752 OFFCURVE",
"360 813 OFFCURVE",
"449 813 CURVE SMOOTH"
);
}
);
width = 907;
}
);
unicode = 0067;
},
{
glyphname = gbreve;
layers = (
{
layerId = "3CB5DA74-10A0-4C7B-8F49-8E762609D01C";
name = Bold;
paths = (
{
closed = 1;
nodes = (
"700 1112 LINE",
"700 1077 OFFCURVE",
"680 999 OFFCURVE",
"608 946 CURVE",
"563 965 OFFCURVE",
"508 975 OFFCURVE",
"449 975 CURVE SMOOTH",
"221 975 OFFCURVE",
"98 846 OFFCURVE",
"98 649 CURVE SMOOTH",
"98 539 OFFCURVE",
"137 449 OFFCURVE",
"213 393 CURVE",
"137 367 OFFCURVE",
"74 309 OFFCURVE",
"74 225 CURVE SMOOTH",
"74 162 OFFCURVE",
"102 113 OFFCURVE",
"150 84 CURVE",
"82 45 OFFCURVE",
"29 -16 OFFCURVE",
"29 -111 CURVE SMOOTH",
"29 -242 OFFCURVE",
"123 -330 OFFCURVE",
"240 -330 CURVE SMOOTH",
"588 -330 LINE SMOOTH",
"758 -330 OFFCURVE",
"897 -213 OFFCURVE",
"897 -37 CURVE SMOOTH",
"897 117 OFFCURVE",
"799 211 OFFCURVE",
"678 211 CURVE SMOOTH",
"350 211 LINE SMOOTH",
"317 211 OFFCURVE",
"293 236 OFFCURVE",
"293 268 CURVE SMOOTH",
"293 301 OFFCURVE",
"319 326 OFFCURVE",
"358 326 CURVE SMOOTH",
"449 326 LINE SMOOTH",
"678 326 OFFCURVE",
"803 455 OFFCURVE",
"803 649 CURVE SMOOTH",
"803 739 OFFCURVE",
"774 815 OFFCURVE",
"725 868 CURVE",
"821 897 OFFCURVE",
"881 975 OFFCURVE",
"881 1112 CURVE"
);
},
{
closed = 1;
nodes = (
"588 10 LINE",
"637 10 OFFCURVE",
"678 -23 OFFCURVE",
"678 -76 CURVE SMOOTH",
"678 -131 OFFCURVE",
"633 -164 OFFCURVE",
"580 -164 CURVE SMOOTH",
"336 -164 LINE SMOOTH",
"287 -164 OFFCURVE",
"248 -131 OFFCURVE",
"248 -76 CURVE SMOOTH",
"248 -29 OFFCURVE",
"287 10 OFFCURVE",
"336 10 CURVE SMOOTH"
);
},
{
closed = 1;
nodes = (
"539 813 OFFCURVE",
"586 752 OFFCURVE",
"586 649 CURVE SMOOTH",
"586 549 OFFCURVE",
"539 487 OFFCURVE",
"449 487 CURVE SMOOTH",
"360 487 OFFCURVE",
"315 549 OFFCURVE",
"315 649 CURVE SMOOTH",
"315 752 OFFCURVE",
"360 813 OFFCURVE",
"449 813 CURVE SMOOTH"
);
},
{
closed = 1;
nodes = (
"561 1309 LINE",
"557 1284 OFFCURVE",
"514 1249 OFFCURVE",
"453 1249 CURVE SMOOTH",
"393 1249 OFFCURVE",
"350 1284 OFFCURVE",
"346 1309 CURVE",
"211 1309 LINE",
"211 1219 OFFCURVE",
"305 1116 OFFCURVE",
"453 1116 CURVE SMOOTH",
"602 1116 OFFCURVE",
"694 1219 OFFCURVE",
"694 1309 CURVE"
);
}
);
width = 907;
}
);
unicode = 011F;
},
{
glyphname = gcircumflex;
layers = (
{
layerId = "3CB5DA74-10A0-4C7B-8F49-8E762609D01C";
name = Bold;
paths = (
{
closed = 1;
nodes = (
"739 1112 LINE",
"739 1077 OFFCURVE",
"741 952 OFFCURVE",
"608 946 CURVE",
"563 965 OFFCURVE",
"508 975 OFFCURVE",
"449 975 CURVE SMOOTH",
"221 975 OFFCURVE",
"98 846 OFFCURVE",
"98 649 CURVE SMOOTH",
"98 539 OFFCURVE",
"137 449 OFFCURVE",
"213 393 CURVE",
"137 367 OFFCURVE",
"74 309 OFFCURVE",
"74 225 CURVE SMOOTH",
"74 162 OFFCURVE",
"102 113 OFFCURVE",
"150 84 CURVE",
"82 45 OFFCURVE",
"29 -16 OFFCURVE",
"29 -111 CURVE SMOOTH",
"29 -242 OFFCURVE",
"123 -330 OFFCURVE",
"240 -330 CURVE SMOOTH",
"588 -330 LINE SMOOTH",
"758 -330 OFFCURVE",
"897 -213 OFFCURVE",
"897 -37 CURVE SMOOTH",
"897 117 OFFCURVE",
"799 211 OFFCURVE",
"678 211 CURVE SMOOTH",
"350 211 LINE SMOOTH",
"317 211 OFFCURVE",
"293 236 OFFCURVE",
"293 268 CURVE SMOOTH",
"293 301 OFFCURVE",
"319 326 OFFCURVE",
"358 326 CURVE SMOOTH",
"449 326 LINE SMOOTH",
"678 326 OFFCURVE",
"803 455 OFFCURVE",
"803 649 CURVE SMOOTH",
"803 739 OFFCURVE",
"774 815 OFFCURVE",
"725 868 CURVE",
"821 897 OFFCURVE",
"881 975 OFFCURVE",
"881 1112 CURVE"
);
},
{
closed = 1;
nodes = (
"588 10 LINE",
"637 10 OFFCURVE",
"678 -23 OFFCURVE",
"678 -76 CURVE SMOOTH",
"678 -131 OFFCURVE",
"633 -164 OFFCURVE",
"580 -164 CURVE SMOOTH",
"336 -164 LINE SMOOTH",
"287 -164 OFFCURVE",
"248 -131 OFFCURVE",
"248 -76 CURVE SMOOTH",
"248 -29 OFFCURVE",
"287 10 OFFCURVE",
"336 10 CURVE SMOOTH"
);
},
{
closed = 1;
nodes = (
"539 813 OFFCURVE",
"586 752 OFFCURVE",
"586 649 CURVE SMOOTH",
"586 549 OFFCURVE",
"539 487 OFFCURVE",
"449 487 CURVE SMOOTH",
"360 487 OFFCURVE",
"315 549 OFFCURVE",
"315 649 CURVE SMOOTH",
"315 752 OFFCURVE",
"360 813 OFFCURVE",
"449 813 CURVE SMOOTH"
);
},
{
closed = 1;
nodes = (
"696 1065 LINE",
"543 1309 LINE",
"367 1309 LINE",
"211 1065 LINE",
"373 1065 LINE",
"455 1190 LINE",
"535 1065 LINE"
);
}
);
width = 907;
}
);
unicode = 011D;
},
{
glyphname = gcommaaccent;
layers = (
{
layerId = "3CB5DA74-10A0-4C7B-8F49-8E762609D01C";
name = Bold;
paths = (
{
closed = 1;
nodes = (
"700 1112 LINE",
"700 1077 OFFCURVE",
"680 999 OFFCURVE",
"608 946 CURVE",
"563 965 OFFCURVE",
"508 975 OFFCURVE",
"449 975 CURVE SMOOTH",
"221 975 OFFCURVE",
"98 846 OFFCURVE",
"98 649 CURVE SMOOTH",
"98 539 OFFCURVE",
"137 449 OFFCURVE",
"213 393 CURVE",
"137 367 OFFCURVE",
"74 309 OFFCURVE",
"74 225 CURVE SMOOTH",
"74 162 OFFCURVE",
"102 113 OFFCURVE",
"150 84 CURVE",
"82 45 OFFCURVE",
"29 -16 OFFCURVE",
"29 -111 CURVE SMOOTH",
"29 -242 OFFCURVE",
"123 -330 OFFCURVE",
"240 -330 CURVE SMOOTH",
"588 -330 LINE SMOOTH",
"758 -330 OFFCURVE",
"897 -213 OFFCURVE",
"897 -37 CURVE SMOOTH",
"897 117 OFFCURVE",
"799 211 OFFCURVE",
"678 211 CURVE SMOOTH",
"350 211 LINE SMOOTH",
"317 211 OFFCURVE",
"293 236 OFFCURVE",
"293 268 CURVE SMOOTH",
"293 301 OFFCURVE",
"319 326 OFFCURVE",
"358 326 CURVE SMOOTH",
"449 326 LINE SMOOTH",
"678 326 OFFCURVE",
"803 455 OFFCURVE",
"803 649 CURVE SMOOTH",
"803 739 OFFCURVE",
"774 815 OFFCURVE",
"725 868 CURVE",
"821 897 OFFCURVE",
"881 975 OFFCURVE",
"881 1112 CURVE"
);
},
{
closed = 1;
nodes = (
"588 10 LINE",
"637 10 OFFCURVE",
"678 -23 OFFCURVE",
"678 -76 CURVE SMOOTH",
"678 -131 OFFCURVE",
"633 -164 OFFCURVE",
"580 -164 CURVE SMOOTH",
"336 -164 LINE SMOOTH",
"287 -164 OFFCURVE",
"248 -131 OFFCURVE",
"248 -76 CURVE SMOOTH",
"248 -29 OFFCURVE",
"287 10 OFFCURVE",
"336 10 CURVE SMOOTH"
);
},
{
closed = 1;
nodes = (
"539 813 OFFCURVE",
"586 752 OFFCURVE",
"586 649 CURVE SMOOTH",
"586 549 OFFCURVE",
"539 487 OFFCURVE",
"449 487 CURVE SMOOTH",
"360 487 OFFCURVE",
"315 549 OFFCURVE",
"315 649 CURVE SMOOTH",
"315 752 OFFCURVE",
"360 813 OFFCURVE",
"449 813 CURVE SMOOTH"
);
},
{
closed = 1;
nodes = (
"522 1444 LINE",
"403 1444 LINE",
"319 1272 LINE",
"319 1069 LINE",
"545 1069 LINE",
"545 1290 LINE",
"457 1290 LINE"
);
}
);
width = 907;
}
);
unicode = 0123;
},
{
glyphname = gdotaccent;
layers = (
{
layerId = "3CB5DA74-10A0-4C7B-8F49-8E762609D01C";
name = Bold;
paths = (
{
closed = 1;
nodes = (
"700 1112 LINE",
"700 1077 OFFCURVE",
"680 999 OFFCURVE",
"608 946 CURVE",
"563 965 OFFCURVE",
"508 975 OFFCURVE",
"449 975 CURVE SMOOTH",
"221 975 OFFCURVE",
"98 846 OFFCURVE",
"98 649 CURVE SMOOTH",
"98 539 OFFCURVE",
"137 449 OFFCURVE",
"213 393 CURVE",
"137 367 OFFCURVE",
"74 309 OFFCURVE",
"74 225 CURVE SMOOTH",
"74 162 OFFCURVE",
"102 113 OFFCURVE",
"150 84 CURVE",
"82 45 OFFCURVE",
"29 -16 OFFCURVE",
"29 -111 CURVE SMOOTH",
"29 -242 OFFCURVE",
"123 -330 OFFCURVE",
"240 -330 CURVE SMOOTH",
"588 -330 LINE SMOOTH",
"758 -330 OFFCURVE",
"897 -213 OFFCURVE",
"897 -37 CURVE SMOOTH",
"897 117 OFFCURVE",
"799 211 OFFCURVE",
"678 211 CURVE SMOOTH",
"350 211 LINE SMOOTH",
"317 211 OFFCURVE",
"293 236 OFFCURVE",
"293 268 CURVE SMOOTH",
"293 301 OFFCURVE",
"319 326 OFFCURVE",
"358 326 CURVE SMOOTH",
"449 326 LINE SMOOTH",
"678 326 OFFCURVE",
"803 455 OFFCURVE",
"803 649 CURVE SMOOTH",
"803 739 OFFCURVE",
"774 815 OFFCURVE",
"725 868 CURVE",
"821 897 OFFCURVE",
"881 975 OFFCURVE",
"881 1112 CURVE"
);
},
{
closed = 1;
nodes = (
"588 10 LINE",
"637 10 OFFCURVE",
"678 -23 OFFCURVE",
"678 -76 CURVE SMOOTH",
"678 -131 OFFCURVE",
"633 -164 OFFCURVE",
"580 -164 CURVE SMOOTH",
"336 -164 LINE SMOOTH",
"287 -164 OFFCURVE",
"248 -131 OFFCURVE",
"248 -76 CURVE SMOOTH",
"248 -29 OFFCURVE",
"287 10 OFFCURVE",
"336 10 CURVE SMOOTH"
);
},
{
closed = 1;
nodes = (
"539 813 OFFCURVE",
"586 752 OFFCURVE",
"586 649 CURVE SMOOTH",
"586 549 OFFCURVE",
"539 487 OFFCURVE",
"449 487 CURVE SMOOTH",
"360 487 OFFCURVE",
"315 549 OFFCURVE",
"315 649 CURVE SMOOTH",
"315 752 OFFCURVE",
"360 813 OFFCURVE",
"449 813 CURVE SMOOTH"
);
},
{
closed = 1;
nodes = (
"551 1100 LINE",
"551 1309 LINE",
"356 1309 LINE",
"356 1100 LINE"
);
}
);
width = 907;
}
);
unicode = 0121;
},
{
glyphname = h;
layers = (
{
anchors = (
{
name = center;
position = "{455, 475}";
},
{
name = top;
position = "{455, 952}";
}
);
layerId = "3CB5DA74-10A0-4C7B-8F49-8E762609D01C";
name = Bold;
paths = (
{
closed = 1;
nodes = (
"317 850 LINE",
"317 1309 LINE",
"100 1309 LINE",
"100 0 LINE",
"317 0 LINE",
"317 586 LINE SMOOTH",
"317 694 OFFCURVE",
"381 776 OFFCURVE",
"465 776 CURVE SMOOTH",
"543 776 OFFCURVE",
"590 731 OFFCURVE",
"590 608 CURVE SMOOTH",
"590 0 LINE",
"807 0 LINE",
"807 668 LINE SMOOTH",
"807 893 OFFCURVE",
"700 975 OFFCURVE",
"555 975 CURVE SMOOTH",
"442 975 OFFCURVE",
"367 911 OFFCURVE",
"324 850 CURVE"
);
}
);
width = 907;
}
);
unicode = 0068;
},
{
glyphname = hbar;
layers = (
{
layerId = "3CB5DA74-10A0-4C7B-8F49-8E762609D01C";
name = Bold;
paths = (
{
closed = 1;
nodes = (
"317 1309 LINE",
"100 1309 LINE",
"100 1212 LINE",
"0 1212 LINE",
"0 1055 LINE",
"100 1055 LINE",
"100 0 LINE",
"317 0 LINE",
"317 586 LINE SMOOTH",
"317 694 OFFCURVE",
"381 776 OFFCURVE",
"465 776 CURVE SMOOTH",
"543 776 OFFCURVE",
"590 731 OFFCURVE",
"590 608 CURVE SMOOTH",
"590 0 LINE",
"807 0 LINE",
"807 668 LINE SMOOTH",
"807 893 OFFCURVE",
"700 975 OFFCURVE",
"555 975 CURVE SMOOTH",
"442 975 OFFCURVE",
"367 911 OFFCURVE",
"324 850 CURVE",
"317 850 LINE",
"317 1055 LINE",
"555 1055 LINE",
"555 1212 LINE",
"317 1212 LINE"
);
}
);
width = 907;
}
);
unicode = 0127;
},
{
glyphname = hcircumflex;
layers = (
{
layerId = "3CB5DA74-10A0-4C7B-8F49-8E762609D01C";
name = Bold;
paths = (
{
closed = 1;
nodes = (
"317 850 LINE",
"317 1309 LINE",
"100 1309 LINE",
"100 0 LINE",
"317 0 LINE",
"317 586 LINE SMOOTH",
"317 694 OFFCURVE",
"381 776 OFFCURVE",
"465 776 CURVE SMOOTH",
"543 776 OFFCURVE",
"590 731 OFFCURVE",
"590 608 CURVE SMOOTH",
"590 0 LINE",
"807 0 LINE",
"807 668 LINE SMOOTH",
"807 893 OFFCURVE",
"700 975 OFFCURVE",
"555 975 CURVE SMOOTH",
"442 975 OFFCURVE",
"367 911 OFFCURVE",
"324 850 CURVE"
);
},
{
closed = 1;
nodes = (
"446 1354 LINE",
"293 1599 LINE",
"117 1599 LINE",
"-39 1354 LINE",
"123 1354 LINE",
"205 1479 LINE",
"285 1354 LINE"
);
}
);
width = 907;
}
);
unicode = 0125;
},
{
glyphname = i;
layers = (
{
layerId = "3CB5DA74-10A0-4C7B-8F49-8E762609D01C";
name = Bold;
paths = (
{
closed = 1;
nodes = (
"315 0 LINE",
"315 952 LINE",
"98 952 LINE",
"98 0 LINE"
);
},
{
closed = 1;
nodes = (
"315 1112 LINE",
"315 1309 LINE",
"98 1309 LINE",
"98 1112 LINE"
);
}
);
width = 414;
}
);
unicode = 0069;
},
{
glyphname = dotlessi;
layers = (
{
anchors = (
{
name = ogonek;
position = "{371, 18}";
},
{
name = top;
position = "{207, 952}";
}
);
layerId = "3CB5DA74-10A0-4C7B-8F49-8E762609D01C";
name = Bold;
paths = (
{
closed = 1;
nodes = (
"315 0 LINE",
"315 952 LINE",
"98 952 LINE",
"98 0 LINE"
);
}
);
width = 414;
}
);
unicode = 0131;
},
{
glyphname = iacute;
layers = (
{
layerId = "3CB5DA74-10A0-4C7B-8F49-8E762609D01C";
name = Bold;
paths = (
{
closed = 1;
nodes = (
"315 952 LINE",
"98 952 LINE",
"98 0 LINE",
"315 0 LINE"
);
},
{
closed = 1;
nodes = (
"455 1309 LINE",
"238 1309 LINE",
"82 1069 LINE",
"262 1069 LINE",
"457 1303 LINE"
);
}
);
width = 414;
}
);
unicode = 00ED;
},
{
glyphname = ibreve;
layers = (
{
layerId = "3CB5DA74-10A0-4C7B-8F49-8E762609D01C";
name = Bold;
paths = (
{
closed = 1;
nodes = (
"315 0 LINE",
"315 952 LINE",
"98 952 LINE",
"98 0 LINE"
);
},
{
closed = 1;
nodes = (
"315 1309 LINE",
"311 1284 OFFCURVE",
"268 1249 OFFCURVE",
"207 1249 CURVE SMOOTH",
"147 1249 OFFCURVE",
"104 1284 OFFCURVE",
"100 1309 CURVE",
"-37 1309 LINE",
"-37 1219 OFFCURVE",
"57 1116 OFFCURVE",
"207 1116 CURVE SMOOTH",
"356 1116 OFFCURVE",
"449 1219 OFFCURVE",
"449 1309 CURVE"
);
}
);
width = 414;
}
);
unicode = 012D;
},
{
glyphname = icircumflex;
layers = (
{
layerId = "3CB5DA74-10A0-4C7B-8F49-8E762609D01C";
name = Bold;
paths = (
{
closed = 1;
nodes = (
"315 0 LINE",
"315 952 LINE",
"98 952 LINE",
"98 0 LINE"
);
},
{
closed = 1;
nodes = (
"451 1065 LINE",
"297 1309 LINE",
"119 1309 LINE",
"-39 1065 LINE",
"127 1065 LINE",
"209 1190 LINE",
"289 1065 LINE"
);
}
);
width = 414;
}
);
unicode = 00EE;
},
{
glyphname = idieresis;
layers = (
{
layerId = "3CB5DA74-10A0-4C7B-8F49-8E762609D01C";
name = Bold;
paths = (
{
closed = 1;
nodes = (
"315 952 LINE",
"98 952 LINE",
"98 0 LINE",
"315 0 LINE"
);
},
{
closed = 1;
nodes = (
"139 1309 LINE",
"-41 1309 LINE",
"-41 1112 LINE",
"139 1112 LINE"
);
},
{
closed = 1;
nodes = (
"457 1309 LINE",
"274 1309 LINE",
"274 1112 LINE",
"457 1112 LINE"
);
}
);
width = 414;
}
);
unicode = 00EF;
},
{
glyphname = igrave;
layers = (
{
layerId = "3CB5DA74-10A0-4C7B-8F49-8E762609D01C";
name = Bold;
paths = (
{
closed = 1;
nodes = (
"315 952 LINE",
"98 952 LINE",
"98 0 LINE",
"315 0 LINE"
);
},
{
closed = 1;
nodes = (
"176 1309 LINE",
"-41 1309 LINE",
"-43 1303 LINE",
"152 1069 LINE",
"332 1069 LINE"
);
}
);
width = 414;
}
);
unicode = 00EC;
},
{
glyphname = ij;
layers = (
{
layerId = "3CB5DA74-10A0-4C7B-8F49-8E762609D01C";
name = Bold;
paths = (
{
closed = 1;
nodes = (
"727 952 LINE",
"510 952 LINE",
"510 -59 LINE SMOOTH",
"510 -117 OFFCURVE",
"481 -147 OFFCURVE",
"426 -147 CURVE SMOOTH",
"346 -147 LINE",
"346 -307 LINE",
"383 -319 OFFCURVE",
"453 -330 OFFCURVE",
"508 -330 CURVE SMOOTH",
"680 -330 OFFCURVE",
"727 -201 OFFCURVE",
"727 -74 CURVE SMOOTH"
);
},
{
closed = 1;
nodes = (
"315 952 LINE",
"98 952 LINE",
"98 0 LINE",
"315 0 LINE"
);
},
{
closed = 1;
nodes = (
"315 1309 LINE",
"98 1309 LINE",
"98 1112 LINE",
"315 1112 LINE"
);
},
{
closed = 1;
nodes = (
"727 1309 LINE",
"510 1309 LINE",
"510 1112 LINE",
"727 1112 LINE"
);
}
);
width = 825;
}
);
unicode = 0133;
},
{
glyphname = imacron;
layers = (
{
layerId = "3CB5DA74-10A0-4C7B-8F49-8E762609D01C";
name = Bold;
paths = (
{
closed = 1;
nodes = (
"315 0 LINE",
"315 952 LINE",
"98 952 LINE",
"98 0 LINE"
);
},
{
closed = 1;
nodes = (
"438 1085 LINE",
"438 1241 LINE",
"-25 1241 LINE",
"-25 1085 LINE"
);
}
);
width = 414;
}
);
unicode = 012B;
},
{
glyphname = iogonek;
layers = (
{
layerId = "3CB5DA74-10A0-4C7B-8F49-8E762609D01C";
name = Bold;
paths = (
{
closed = 1;
nodes = (
"315 952 LINE",
"98 952 LINE",
"98 0 LINE",
"164 0 LINE",
"119 -45 OFFCURVE",
"84 -96 OFFCURVE",
"84 -180 CURVE SMOOTH",
"84 -305 OFFCURVE",
"180 -344 OFFCURVE",
"262 -344 CURVE SMOOTH",
"303 -344 OFFCURVE",
"340 -336 OFFCURVE",
"383 -319 CURVE",
"383 -219 LINE",
"342 -219 LINE SMOOTH",
"283 -219 OFFCURVE",
"260 -174 OFFCURVE",
"260 -127 CURVE SMOOTH",
"260 -76 OFFCURVE",
"293 -25 OFFCURVE",
"315 0 CURVE"
);
},
{
closed = 1;
nodes = (
"305 1309 LINE",
"111 1309 LINE",
"111 1100 LINE",
"305 1100 LINE"
);
}
);
width = 414;
}
);
unicode = 012F;
},
{
glyphname = itilde;
layers = (
{
layerId = "3CB5DA74-10A0-4C7B-8F49-8E762609D01C";
name = Bold;
paths = (
{
closed = 1;
nodes = (
"315 0 LINE",
"315 952 LINE",
"98 952 LINE",
"98 0 LINE"
);
},
{
closed = 1;
nodes = (
"391 1309 LINE",
"383 1257 OFFCURVE",
"360 1241 OFFCURVE",
"322 1241 CURVE SMOOTH",
"240 1241 OFFCURVE",
"170 1309 OFFCURVE",
"80 1309 CURVE SMOOTH",
"-47 1309 OFFCURVE",
"-98 1188 OFFCURVE",
"-98 1087 CURVE",
"23 1087 LINE",
"31 1137 OFFCURVE",
"55 1155 OFFCURVE",
"94 1155 CURVE SMOOTH",
"176 1155 OFFCURVE",
"246 1087 OFFCURVE",
"334 1087 CURVE SMOOTH",
"461 1087 OFFCURVE",
"512 1210 OFFCURVE",
"512 1309 CURVE"
);
}
);
width = 414;
}
);
unicode = 0129;
},
{
glyphname = j;
layers = (
{
layerId = "3CB5DA74-10A0-4C7B-8F49-8E762609D01C";
name = Bold;
paths = (
{
closed = 1;
nodes = (
"315 952 LINE",
"98 952 LINE",
"98 -59 LINE SMOOTH",
"98 -117 OFFCURVE",
"70 -147 OFFCURVE",
"12 -147 CURVE SMOOTH",
"-68 -147 LINE",
"-68 -307 LINE",
"-29 -319 OFFCURVE",
"39 -330 OFFCURVE",
"94 -330 CURVE SMOOTH",
"268 -330 OFFCURVE",
"315 -201 OFFCURVE",
"315 -74 CURVE SMOOTH"
);
},
{
closed = 1;
nodes = (
"315 1112 LINE",
"315 1309 LINE",
"98 1309 LINE",
"98 1112 LINE"
);
}
);
width = 414;
}
);
unicode = 006A;
},
{
glyphname = jcircumflex;
layers = (
{
layerId = "3CB5DA74-10A0-4C7B-8F49-8E762609D01C";
name = Bold;
paths = (
{
closed = 1;
nodes = (
"315 952 LINE",
"98 952 LINE",
"98 -59 LINE SMOOTH",
"98 -117 OFFCURVE",
"70 -147 OFFCURVE",
"12 -147 CURVE SMOOTH",
"-68 -147 LINE",
"-68 -307 LINE",
"-29 -319 OFFCURVE",
"39 -330 OFFCURVE",
"94 -330 CURVE SMOOTH",
"268 -330 OFFCURVE",
"315 -201 OFFCURVE",
"315 -74 CURVE SMOOTH"
);
},
{
closed = 1;
nodes = (
"453 1065 LINE",
"301 1309 LINE",
"121 1309 LINE",
"-35 1065 LINE",
"129 1065 LINE",
"211 1190 LINE",
"291 1065 LINE"
);
}
);
width = 414;
}
);
unicode = 0135;
},
{
glyphname = k;
layers = (
{
anchors = (
{
name = bottom;
position = "{414, 0}";
}
);
layerId = "3CB5DA74-10A0-4C7B-8F49-8E762609D01C";
name = Bold;
paths = (
{
closed = 1;
nodes = (
"315 573 LINE",
"315 1309 LINE",
"98 1309 LINE",
"98 0 LINE",
"315 0 LINE",
"315 297 LINE",
"395 395 LINE",
"586 0 LINE",
"827 0 LINE",
"530 565 LINE",
"813 952 LINE",
"582 952 LINE"
);
}
);
width = 825;
}
);
unicode = 006B;
},
{
glyphname = kcommaaccent;
layers = (
{
layerId = "3CB5DA74-10A0-4C7B-8F49-8E762609D01C";
name = Bold;
paths = (
{
closed = 1;
nodes = (
"315 573 LINE",
"315 1309 LINE",
"98 1309 LINE",
"98 0 LINE",
"315 0 LINE",
"315 297 LINE",
"395 395 LINE",
"586 0 LINE",
"827 0 LINE",
"530 565 LINE",
"813 952 LINE",
"582 952 LINE"
);
},
{
closed = 1;
nodes = (
"524 -303 LINE",
"524 -100 LINE",
"303 -100 LINE",
"303 -322 LINE",
"389 -322 LINE",
"326 -475 LINE",
"444 -475 LINE"
);
}
);
width = 825;
}
);
unicode = 0137;
},
{
glyphname = kgreenlandic;
layers = (
{
layerId = "3CB5DA74-10A0-4C7B-8F49-8E762609D01C";
name = Bold;
paths = (
{
closed = 1;
nodes = (
"530 565 LINE",
"813 952 LINE",
"582 952 LINE",
"315 573 LINE",
"315 952 LINE",
"98 952 LINE",
"98 0 LINE",
"315 0 LINE",
"315 297 LINE",
"395 395 LINE",
"586 0 LINE",
"827 0 LINE"
);
}
);
width = 827;
}
);
unicode = 0138;
},
{
glyphname = l;
layers = (
{
anchors = (
{
name = bottom;
position = "{207, 0}";
},
{
name = top;
position = "{207, 952}";
},
{
name = topright;
position = "{377, 952}";
}
);
layerId = "3CB5DA74-10A0-4C7B-8F49-8E762609D01C";
name = Bold;
paths = (
{
closed = 1;
nodes = (
"315 0 LINE",
"315 1309 LINE",
"98 1309 LINE",
"98 0 LINE"
);
}
);
width = 414;
}
);
unicode = 006C;
},
{
glyphname = lacute;
layers = (
{
layerId = "3CB5DA74-10A0-4C7B-8F49-8E762609D01C";
name = Bold;
paths = (
{
closed = 1;
nodes = (
"315 1309 LINE",
"98 1309 LINE",
"98 0 LINE",
"315 0 LINE"
);
},
{
closed = 1;
nodes = (
"455 1599 LINE",
"238 1599 LINE",
"82 1360 LINE",
"262 1360 LINE",
"457 1593 LINE"
);
}
);
width = 414;
}
);
unicode = 013A;
},
{
glyphname = lcaron;
layers = (
{
layerId = "3CB5DA74-10A0-4C7B-8F49-8E762609D01C";
name = Bold;
paths = (
{
closed = 1;
nodes = (
"315 0 LINE",
"315 1309 LINE",
"98 1309 LINE",
"98 0 LINE"
);
},
{
closed = 1;
nodes = (
"659 1016 LINE",
"659 1241 LINE",
"410 1241 LINE",
"410 993 LINE",
"508 993 LINE",
"410 711 LINE",
"539 711 LINE"
);
}
);
width = 571;
}
);
unicode = 013E;
},
{
glyphname = lcommaaccent;
layers = (
{
layerId = "3CB5DA74-10A0-4C7B-8F49-8E762609D01C";
name = Bold;
paths = (
{
closed = 1;
nodes = (
"315 0 LINE",
"315 1309 LINE",
"98 1309 LINE",
"98 0 LINE"
);
},
{
closed = 1;
nodes = (
"319 -303 LINE",
"319 -100 LINE",
"96 -100 LINE",
"96 -322 LINE",
"184 -322 LINE",
"119 -475 LINE",
"238 -475 LINE"
);
}
);
width = 414;
}
);
unicode = 013C;
},
{
glyphname = ldot;
layers = (
{
layerId = "3CB5DA74-10A0-4C7B-8F49-8E762609D01C";
name = Bold;
paths = (
{
closed = 1;
nodes = (
"315 0 LINE",
"315 1309 LINE",
"98 1309 LINE",
"98 0 LINE"
);
},
{
closed = 1;
nodes = (
"604 504 LINE",
"604 741 LINE",
"385 741 LINE",
"385 504 LINE"
);
}
);
width = 604;
}
);
unicode = 0140;
},
{
glyphname = lslash;
layers = (
{
layerId = "3CB5DA74-10A0-4C7B-8F49-8E762609D01C";
name = Bold;
paths = (
{
closed = 1;
nodes = (
"315 786 LINE",
"315 1309 LINE",
"98 1309 LINE",
"98 592 LINE",
"-25 483 LINE",
"-25 309 LINE",
"98 418 LINE",
"98 0 LINE",
"315 0 LINE",
"315 612 LINE",
"459 739 LINE",
"459 913 LINE"
);
}
);
width = 414;
}
);
unicode = 0142;
},
{
glyphname = m;
layers = (
{
layerId = "3CB5DA74-10A0-4C7B-8F49-8E762609D01C";
name = Bold;
paths = (
{
closed = 1;
nodes = (
"877 975 OFFCURVE",
"793 909 OFFCURVE",
"743 836 CURVE",
"707 934 OFFCURVE",
"633 975 OFFCURVE",
"539 975 CURVE SMOOTH",
"434 975 OFFCURVE",
"358 909 OFFCURVE",
"313 836 CURVE",
"303 836 LINE",
"281 952 LINE",
"100 952 LINE",
"100 0 LINE",
"317 0 LINE",
"317 586 LINE SMOOTH",
"317 698 OFFCURVE",
"373 776 OFFCURVE",
"446 776 CURVE SMOOTH",
"520 776 OFFCURVE",
"555 731 OFFCURVE",
"555 608 CURVE SMOOTH",
"555 0 LINE",
"770 0 LINE",
"770 600 LINE SMOOTH",
"770 707 OFFCURVE",
"831 776 OFFCURVE",
"901 776 CURVE SMOOTH",
"975 776 OFFCURVE",
"1008 731 OFFCURVE",
"1008 608 CURVE SMOOTH",
"1008 0 LINE",
"1225 0 LINE",
"1225 668 LINE SMOOTH",
"1225 897 OFFCURVE",
"1126 975 OFFCURVE",
"991 975 CURVE SMOOTH"
);
}
);
width = 1319;
}
);
unicode = 006D;
},
{
glyphname = n;
layers = (
{
anchors = (
{
name = bottom;
position = "{455, 0}";
},
{
name = top;
position = "{455, 952}";
}
);
layerId = "3CB5DA74-10A0-4C7B-8F49-8E762609D01C";
name = Bold;
paths = (
{
closed = 1;
nodes = (
"440 975 OFFCURVE",
"362 909 OFFCURVE",
"313 836 CURVE",
"303 836 LINE",
"281 952 LINE",
"100 952 LINE",
"100 0 LINE",
"317 0 LINE",
"317 586 LINE SMOOTH",
"317 694 OFFCURVE",
"381 776 OFFCURVE",
"465 776 CURVE SMOOTH",
"543 776 OFFCURVE",
"590 731 OFFCURVE",
"590 608 CURVE SMOOTH",
"590 0 LINE",
"807 0 LINE",
"807 668 LINE SMOOTH",
"807 893 OFFCURVE",
"700 975 OFFCURVE",
"555 975 CURVE SMOOTH"
);
}
);
width = 907;
}
);
unicode = 006E;
},
{
glyphname = nacute;
layers = (
{
layerId = "3CB5DA74-10A0-4C7B-8F49-8E762609D01C";
name = Bold;
paths = (
{
closed = 1;
nodes = (
"440 975 OFFCURVE",
"362 909 OFFCURVE",
"313 836 CURVE",
"303 836 LINE",
"281 952 LINE",
"100 952 LINE",
"100 0 LINE",
"317 0 LINE",
"317 586 LINE SMOOTH",
"317 694 OFFCURVE",
"381 776 OFFCURVE",
"465 776 CURVE SMOOTH",
"543 776 OFFCURVE",
"590 731 OFFCURVE",
"590 608 CURVE SMOOTH",
"590 0 LINE",
"807 0 LINE",
"807 668 LINE SMOOTH",
"807 893 OFFCURVE",
"700 975 OFFCURVE",
"555 975 CURVE SMOOTH"
);
},
{
closed = 1;
nodes = (
"702 1309 LINE",
"485 1309 LINE",
"330 1069 LINE",
"508 1069 LINE",
"705 1303 LINE"
);
}
);
width = 907;
}
);
unicode = 0144;
},
{
glyphname = napostrophe;
layers = (
{
layerId = "3CB5DA74-10A0-4C7B-8F49-8E762609D01C";
name = Bold;
paths = (
{
closed = 1;
nodes = (
"758 975 OFFCURVE",
"678 909 OFFCURVE",
"631 836 CURVE",
"618 836 LINE",
"598 952 LINE",
"416 952 LINE",
"416 0 LINE",
"633 0 LINE",
"633 586 LINE SMOOTH",
"633 694 OFFCURVE",
"696 776 OFFCURVE",
"782 776 CURVE SMOOTH",
"860 776 OFFCURVE",
"907 731 OFFCURVE",
"907 608 CURVE SMOOTH",
"907 0 LINE",
"1124 0 LINE",
"1124 668 LINE SMOOTH",
"1124 893 OFFCURVE",
"1018 975 OFFCURVE",
"870 975 CURVE SMOOTH"
);
},
{
closed = 1;
nodes = (
"346 1241 LINE",
"121 1241 LINE",
"121 1020 LINE",
"211 1020 LINE",
"147 866 LINE",
"264 866 LINE",
"346 1038 LINE"
);
}
);
width = 1225;
}
);
unicode = 0149;
},
{
glyphname = ncaron;
layers = (
{
layerId = "3CB5DA74-10A0-4C7B-8F49-8E762609D01C";
name = Bold;
paths = (
{
closed = 1;
nodes = (
"440 975 OFFCURVE",
"362 909 OFFCURVE",
"313 836 CURVE",
"303 836 LINE",
"281 952 LINE",
"100 952 LINE",
"100 0 LINE",
"317 0 LINE",
"317 586 LINE SMOOTH",
"317 694 OFFCURVE",
"381 776 OFFCURVE",
"465 776 CURVE SMOOTH",
"543 776 OFFCURVE",
"590 731 OFFCURVE",
"590 608 CURVE SMOOTH",
"590 0 LINE",
"807 0 LINE",
"807 668 LINE SMOOTH",
"807 893 OFFCURVE",
"700 975 OFFCURVE",
"555 975 CURVE SMOOTH"
);
},
{
closed = 1;
nodes = (
"543 1065 LINE",
"696 1309 LINE",
"535 1309 LINE",
"455 1184 LINE",
"373 1309 LINE",
"211 1309 LINE",
"367 1065 LINE"
);
}
);
width = 907;
}
);
unicode = 0148;
},
{
glyphname = ncommaaccent;
layers = (
{
layerId = "3CB5DA74-10A0-4C7B-8F49-8E762609D01C";
name = Bold;
paths = (
{
closed = 1;
nodes = (
"440 975 OFFCURVE",
"362 909 OFFCURVE",
"313 836 CURVE",
"303 836 LINE",
"281 952 LINE",
"100 952 LINE",
"100 0 LINE",
"317 0 LINE",
"317 586 LINE SMOOTH",
"317 694 OFFCURVE",
"381 776 OFFCURVE",
"465 776 CURVE SMOOTH",
"543 776 OFFCURVE",
"590 731 OFFCURVE",
"590 608 CURVE SMOOTH",
"590 0 LINE",
"807 0 LINE",
"807 668 LINE SMOOTH",
"807 893 OFFCURVE",
"700 975 OFFCURVE",
"555 975 CURVE SMOOTH"
);
},
{
closed = 1;
nodes = (
"565 -303 LINE",
"565 -100 LINE",
"342 -100 LINE",
"342 -322 LINE",
"430 -322 LINE",
"367 -475 LINE",
"483 -475 LINE"
);
}
);
width = 907;
}
);
unicode = 0146;
},
{
glyphname = eng;
layers = (
{
layerId = "3CB5DA74-10A0-4C7B-8F49-8E762609D01C";
name = Bold;
paths = (
{
closed = 1;
nodes = (
"440 975 OFFCURVE",
"362 909 OFFCURVE",
"313 836 CURVE",
"303 836 LINE",
"281 952 LINE",
"100 952 LINE",
"100 0 LINE",
"317 0 LINE",
"317 586 LINE SMOOTH",
"317 694 OFFCURVE",
"381 776 OFFCURVE",
"465 776 CURVE SMOOTH",
"543 776 OFFCURVE",
"590 731 OFFCURVE",
"590 608 CURVE SMOOTH",
"590 -59 LINE SMOOTH",
"590 -117 OFFCURVE",
"561 -147 OFFCURVE",
"506 -147 CURVE SMOOTH",
"426 -147 LINE",
"426 -307 LINE",
"463 -319 OFFCURVE",
"532 -330 OFFCURVE",
"586 -330 CURVE SMOOTH",
"760 -330 OFFCURVE",
"807 -201 OFFCURVE",
"807 -74 CURVE SMOOTH",
"807 668 LINE SMOOTH",
"807 893 OFFCURVE",
"700 975 OFFCURVE",
"555 975 CURVE SMOOTH"
);
}
);
width = 907;
}
);
unicode = 014B;
},
{
glyphname = ntilde;
layers = (
{
layerId = "3CB5DA74-10A0-4C7B-8F49-8E762609D01C";
name = Bold;
paths = (
{
closed = 1;
nodes = (
"440 975 OFFCURVE",
"362 909 OFFCURVE",
"313 836 CURVE",
"303 836 LINE",
"281 952 LINE",
"100 952 LINE",
"100 0 LINE",
"317 0 LINE",
"317 586 LINE SMOOTH",
"317 694 OFFCURVE",
"381 776 OFFCURVE",
"465 776 CURVE SMOOTH",
"543 776 OFFCURVE",
"590 731 OFFCURVE",
"590 608 CURVE SMOOTH",
"590 0 LINE",
"807 0 LINE",
"807 668 LINE SMOOTH",
"807 893 OFFCURVE",
"700 975 OFFCURVE",
"555 975 CURVE SMOOTH"
);
},
{
closed = 1;
nodes = (
"639 1309 LINE",
"633 1257 OFFCURVE",
"606 1241 OFFCURVE",
"569 1241 CURVE SMOOTH",
"487 1241 OFFCURVE",
"416 1309 OFFCURVE",
"328 1309 CURVE SMOOTH",
"201 1309 OFFCURVE",
"150 1188 OFFCURVE",
"150 1087 CURVE",
"270 1087 LINE",
"276 1137 OFFCURVE",
"303 1155 OFFCURVE",
"340 1155 CURVE SMOOTH",
"422 1155 OFFCURVE",
"492 1087 OFFCURVE",
"580 1087 CURVE SMOOTH",
"709 1087 OFFCURVE",
"758 1210 OFFCURVE",
"758 1309 CURVE"
);
}
);
width = 907;
}
);
unicode = 00F1;
},
{
glyphname = o;
layers = (
{
anchors = (
{
name = top;
position = "{455, 952}";
}
);
layerId = "3CB5DA74-10A0-4C7B-8F49-8E762609D01C";
name = Bold;
paths = (
{
closed = 1;
nodes = (
"201 975 OFFCURVE",
"74 819 OFFCURVE",
"74 475 CURVE SMOOTH",
"74 133 OFFCURVE",
"201 -23 OFFCURVE",
"455 -23 CURVE SMOOTH",
"709 -23 OFFCURVE",
"836 133 OFFCURVE",
"836 475 CURVE SMOOTH",
"836 819 OFFCURVE",
"709 975 OFFCURVE",
"455 975 CURVE SMOOTH"
);
},
{
closed = 1;
nodes = (
"567 791 OFFCURVE",
"608 694 OFFCURVE",
"608 510 CURVE SMOOTH",
"608 442 LINE SMOOTH",
"608 258 OFFCURVE",
"567 162 OFFCURVE",
"455 162 CURVE SMOOTH",
"342 162 OFFCURVE",
"301 258 OFFCURVE",
"301 442 CURVE SMOOTH",
"301 510 LINE SMOOTH",
"301 694 OFFCURVE",
"342 791 OFFCURVE",
"455 791 CURVE SMOOTH"
);
}
);
width = 907;
}
);
unicode = 006F;
},
{
glyphname = oacute;
layers = (
{
layerId = "3CB5DA74-10A0-4C7B-8F49-8E762609D01C";
name = Bold;
paths = (
{
closed = 1;
nodes = (
"201 975 OFFCURVE",
"74 819 OFFCURVE",
"74 475 CURVE SMOOTH",
"74 133 OFFCURVE",
"201 -23 OFFCURVE",
"455 -23 CURVE SMOOTH",
"709 -23 OFFCURVE",
"836 133 OFFCURVE",
"836 475 CURVE SMOOTH",
"836 819 OFFCURVE",
"709 975 OFFCURVE",
"455 975 CURVE SMOOTH"
);
},
{
closed = 1;
nodes = (
"567 791 OFFCURVE",
"608 694 OFFCURVE",
"608 510 CURVE SMOOTH",
"608 442 LINE SMOOTH",
"608 258 OFFCURVE",
"567 162 OFFCURVE",
"455 162 CURVE SMOOTH",
"342 162 OFFCURVE",
"301 258 OFFCURVE",
"301 442 CURVE SMOOTH",
"301 510 LINE SMOOTH",
"301 694 OFFCURVE",
"342 791 OFFCURVE",
"455 791 CURVE SMOOTH"
);
},
{
closed = 1;
nodes = (
"702 1309 LINE",
"485 1309 LINE",
"330 1069 LINE",
"508 1069 LINE",
"705 1303 LINE"
);
}
);
width = 907;
}
);
unicode = 00F3;
},
{
glyphname = obreve;
layers = (
{
layerId = "3CB5DA74-10A0-4C7B-8F49-8E762609D01C";
name = Bold;
paths = (
{
closed = 1;
nodes = (
"201 975 OFFCURVE",
"74 819 OFFCURVE",
"74 475 CURVE SMOOTH",
"74 133 OFFCURVE",
"201 -23 OFFCURVE",
"455 -23 CURVE SMOOTH",
"709 -23 OFFCURVE",
"836 133 OFFCURVE",
"836 475 CURVE SMOOTH",
"836 819 OFFCURVE",
"709 975 OFFCURVE",
"455 975 CURVE SMOOTH"
);
},
{
closed = 1;
nodes = (
"567 791 OFFCURVE",
"608 694 OFFCURVE",
"608 510 CURVE SMOOTH",
"608 442 LINE SMOOTH",
"608 258 OFFCURVE",
"567 162 OFFCURVE",
"455 162 CURVE SMOOTH",
"342 162 OFFCURVE",
"301 258 OFFCURVE",
"301 442 CURVE SMOOTH",
"301 510 LINE SMOOTH",
"301 694 OFFCURVE",
"342 791 OFFCURVE",
"455 791 CURVE SMOOTH"
);
},
{
closed = 1;
nodes = (
"561 1309 LINE",
"557 1284 OFFCURVE",
"514 1249 OFFCURVE",
"453 1249 CURVE SMOOTH",
"393 1249 OFFCURVE",
"350 1284 OFFCURVE",
"346 1309 CURVE",
"211 1309 LINE",
"211 1219 OFFCURVE",
"305 1116 OFFCURVE",
"453 1116 CURVE SMOOTH",
"602 1116 OFFCURVE",
"694 1219 OFFCURVE",
"694 1309 CURVE"
);
}
);
width = 907;
}
);
unicode = 014F;
},
{
glyphname = ocircumflex;
layers = (
{
layerId = "3CB5DA74-10A0-4C7B-8F49-8E762609D01C";
name = Bold;
paths = (
{
closed = 1;
nodes = (
"201 975 OFFCURVE",
"74 819 OFFCURVE",
"74 475 CURVE SMOOTH",
"74 133 OFFCURVE",
"201 -23 OFFCURVE",
"455 -23 CURVE SMOOTH",
"709 -23 OFFCURVE",
"836 133 OFFCURVE",
"836 475 CURVE SMOOTH",
"836 819 OFFCURVE",
"709 975 OFFCURVE",
"455 975 CURVE SMOOTH"
);
},
{
closed = 1;
nodes = (
"567 791 OFFCURVE",
"608 694 OFFCURVE",
"608 510 CURVE SMOOTH",
"608 442 LINE SMOOTH",
"608 258 OFFCURVE",
"567 162 OFFCURVE",
"455 162 CURVE SMOOTH",
"342 162 OFFCURVE",
"301 258 OFFCURVE",
"301 442 CURVE SMOOTH",
"301 510 LINE SMOOTH",
"301 694 OFFCURVE",
"342 791 OFFCURVE",
"455 791 CURVE SMOOTH"
);
},
{
closed = 1;
nodes = (
"696 1065 LINE",
"543 1309 LINE",
"367 1309 LINE",
"211 1065 LINE",
"373 1065 LINE",
"455 1190 LINE",
"535 1065 LINE"
);
}
);
width = 907;
}
);
unicode = 00F4;
},
{
glyphname = odieresis;
layers = (
{
layerId = "3CB5DA74-10A0-4C7B-8F49-8E762609D01C";
name = Bold;
paths = (
{
closed = 1;
nodes = (
"201 975 OFFCURVE",
"74 819 OFFCURVE",
"74 475 CURVE SMOOTH",
"74 133 OFFCURVE",
"201 -23 OFFCURVE",
"455 -23 CURVE SMOOTH",
"709 -23 OFFCURVE",
"836 133 OFFCURVE",
"836 475 CURVE SMOOTH",
"836 819 OFFCURVE",
"709 975 OFFCURVE",
"455 975 CURVE SMOOTH"
);
},
{
closed = 1;
nodes = (
"567 791 OFFCURVE",
"608 694 OFFCURVE",
"608 510 CURVE SMOOTH",
"608 442 LINE SMOOTH",
"608 258 OFFCURVE",
"567 162 OFFCURVE",
"455 162 CURVE SMOOTH",
"342 162 OFFCURVE",
"301 258 OFFCURVE",
"301 442 CURVE SMOOTH",
"301 510 LINE SMOOTH",
"301 694 OFFCURVE",
"342 791 OFFCURVE",
"455 791 CURVE SMOOTH"
);
},
{
closed = 1;
nodes = (
"385 1309 LINE",
"205 1309 LINE",
"205 1112 LINE",
"385 1112 LINE"
);
},
{
closed = 1;
nodes = (
"702 1309 LINE",
"522 1309 LINE",
"522 1112 LINE",
"702 1112 LINE"
);
}
);
width = 907;
}
);
unicode = 00F6;
},
{
glyphname = ograve;
layers = (
{
layerId = "3CB5DA74-10A0-4C7B-8F49-8E762609D01C";
name = Bold;
paths = (
{
closed = 1;
nodes = (
"201 975 OFFCURVE",
"74 819 OFFCURVE",
"74 475 CURVE SMOOTH",
"74 133 OFFCURVE",
"201 -23 OFFCURVE",
"455 -23 CURVE SMOOTH",
"709 -23 OFFCURVE",
"836 133 OFFCURVE",
"836 475 CURVE SMOOTH",
"836 819 OFFCURVE",
"709 975 OFFCURVE",
"455 975 CURVE SMOOTH"
);
},
{
closed = 1;
nodes = (
"567 791 OFFCURVE",
"608 694 OFFCURVE",
"608 510 CURVE SMOOTH",
"608 442 LINE SMOOTH",
"608 258 OFFCURVE",
"567 162 OFFCURVE",
"455 162 CURVE SMOOTH",
"342 162 OFFCURVE",
"301 258 OFFCURVE",
"301 442 CURVE SMOOTH",
"301 510 LINE SMOOTH",
"301 694 OFFCURVE",
"342 791 OFFCURVE",
"455 791 CURVE SMOOTH"
);
},
{
closed = 1;
nodes = (
"422 1309 LINE",
"205 1309 LINE",
"203 1303 LINE",
"397 1069 LINE",
"578 1069 LINE"
);
}
);
width = 907;
}
);
unicode = 00F2;
},
{
glyphname = ohungarumlaut;
layers = (
{
layerId = "3CB5DA74-10A0-4C7B-8F49-8E762609D01C";
name = Bold;
paths = (
{
closed = 1;
nodes = (
"201 975 OFFCURVE",
"74 819 OFFCURVE",
"74 475 CURVE SMOOTH",
"74 133 OFFCURVE",
"201 -23 OFFCURVE",
"455 -23 CURVE SMOOTH",
"709 -23 OFFCURVE",
"836 133 OFFCURVE",
"836 475 CURVE SMOOTH",
"836 819 OFFCURVE",
"709 975 OFFCURVE",
"455 975 CURVE SMOOTH"
);
},
{
closed = 1;
nodes = (
"567 791 OFFCURVE",
"608 694 OFFCURVE",
"608 510 CURVE SMOOTH",
"608 442 LINE SMOOTH",
"608 258 OFFCURVE",
"567 162 OFFCURVE",
"455 162 CURVE SMOOTH",
"342 162 OFFCURVE",
"301 258 OFFCURVE",
"301 442 CURVE SMOOTH",
"301 510 LINE SMOOTH",
"301 694 OFFCURVE",
"342 791 OFFCURVE",
"455 791 CURVE SMOOTH"
);
},
{
closed = 1;
nodes = (
"545 1303 LINE",
"543 1309 LINE",
"362 1309 LINE",
"250 1069 LINE",
"393 1069 LINE"
);
},
{
closed = 1;
nodes = (
"799 1303 LINE",
"797 1309 LINE",
"616 1309 LINE",
"504 1069 LINE",
"647 1069 LINE"
);
}
);
width = 907;
}
);
unicode = 0151;
},
{
glyphname = omacron;
layers = (
{
layerId = "3CB5DA74-10A0-4C7B-8F49-8E762609D01C";
name = Bold;
paths = (
{
closed = 1;
nodes = (
"201 975 OFFCURVE",
"74 819 OFFCURVE",
"74 475 CURVE SMOOTH",
"74 133 OFFCURVE",
"201 -23 OFFCURVE",
"455 -23 CURVE SMOOTH",
"709 -23 OFFCURVE",
"836 133 OFFCURVE",
"836 475 CURVE SMOOTH",
"836 819 OFFCURVE",
"709 975 OFFCURVE",
"455 975 CURVE SMOOTH"
);
},
{
closed = 1;
nodes = (
"567 791 OFFCURVE",
"608 694 OFFCURVE",
"608 510 CURVE SMOOTH",
"608 442 LINE SMOOTH",
"608 258 OFFCURVE",
"567 162 OFFCURVE",
"455 162 CURVE SMOOTH",
"342 162 OFFCURVE",
"301 258 OFFCURVE",
"301 442 CURVE SMOOTH",
"301 510 LINE SMOOTH",
"301 694 OFFCURVE",
"342 791 OFFCURVE",
"455 791 CURVE SMOOTH"
);
},
{
closed = 1;
nodes = (
"684 1085 LINE",
"684 1241 LINE",
"223 1241 LINE",
"223 1085 LINE"
);
}
);
width = 907;
}
);
unicode = 014D;
},
{
glyphname = oslash;
layers = (
{
anchors = (
{
name = top;
position = "{455, 952}";
}
);
layerId = "3CB5DA74-10A0-4C7B-8F49-8E762609D01C";
name = Bold;
paths = (
{
closed = 1;
nodes = (
"811 1010 LINE",
"676 1010 LINE",
"635 936 LINE",
"586 961 OFFCURVE",
"524 975 OFFCURVE",
"455 975 CURVE SMOOTH",
"201 975 OFFCURVE",
"74 819 OFFCURVE",
"74 475 CURVE SMOOTH",
"74 299 OFFCURVE",
"109 172 OFFCURVE",
"176 90 CURVE",
"94 -57 LINE",
"229 -57 LINE",
"270 16 LINE",
"322 -8 OFFCURVE",
"383 -23 OFFCURVE",
"455 -23 CURVE SMOOTH",
"709 -23 OFFCURVE",
"836 133 OFFCURVE",
"836 475 CURVE SMOOTH",
"836 653 OFFCURVE",
"801 782 OFFCURVE",
"731 864 CURVE"
);
},
{
closed = 1;
nodes = (
"600 625 LINE",
"604 590 OFFCURVE",
"608 553 OFFCURVE",
"608 510 CURVE SMOOTH",
"608 442 LINE SMOOTH",
"608 258 OFFCURVE",
"567 162 OFFCURVE",
"455 162 CURVE SMOOTH",
"418 162 OFFCURVE",
"389 172 OFFCURVE",
"367 193 CURVE"
);
},
{
closed = 1;
nodes = (
"489 791 OFFCURVE",
"518 780 OFFCURVE",
"539 762 CURVE",
"305 332 LINE",
"303 365 OFFCURVE",
"301 399 OFFCURVE",
"301 442 CURVE SMOOTH",
"301 510 LINE SMOOTH",
"301 694 OFFCURVE",
"342 791 OFFCURVE",
"455 791 CURVE SMOOTH"
);
}
);
width = 907;
}
);
unicode = 00F8;
},
{
glyphname = oslashacute;
layers = (
{
layerId = "3CB5DA74-10A0-4C7B-8F49-8E762609D01C";
name = Bold;
paths = (
{
closed = 1;
nodes = (
"811 1010 LINE",
"676 1010 LINE",
"635 936 LINE",
"586 961 OFFCURVE",
"524 975 OFFCURVE",
"455 975 CURVE SMOOTH",
"201 975 OFFCURVE",
"74 819 OFFCURVE",
"74 475 CURVE SMOOTH",
"74 299 OFFCURVE",
"109 172 OFFCURVE",
"176 90 CURVE",
"94 -57 LINE",
"229 -57 LINE",
"270 16 LINE",
"322 -8 OFFCURVE",
"383 -23 OFFCURVE",
"455 -23 CURVE SMOOTH",
"709 -23 OFFCURVE",
"836 133 OFFCURVE",
"836 475 CURVE SMOOTH",
"836 653 OFFCURVE",
"801 782 OFFCURVE",
"731 864 CURVE"
);
},
{
closed = 1;
nodes = (
"600 625 LINE",
"604 590 OFFCURVE",
"608 553 OFFCURVE",
"608 510 CURVE SMOOTH",
"608 442 LINE SMOOTH",
"608 258 OFFCURVE",
"567 162 OFFCURVE",
"455 162 CURVE SMOOTH",
"418 162 OFFCURVE",
"389 172 OFFCURVE",
"367 193 CURVE"
);
},
{
closed = 1;
nodes = (
"489 791 OFFCURVE",
"518 780 OFFCURVE",
"539 762 CURVE",
"305 332 LINE",
"303 365 OFFCURVE",
"301 399 OFFCURVE",
"301 442 CURVE SMOOTH",
"301 510 LINE SMOOTH",
"301 694 OFFCURVE",
"342 791 OFFCURVE",
"455 791 CURVE SMOOTH"
);
},
{
closed = 1;
nodes = (
"702 1309 LINE",
"485 1309 LINE",
"330 1069 LINE",
"508 1069 LINE",
"705 1303 LINE"
);
}
);
width = 907;
}
);
unicode = 01FF;
},
{
glyphname = otilde;
layers = (
{
layerId = "3CB5DA74-10A0-4C7B-8F49-8E762609D01C";
name = Bold;
paths = (
{
closed = 1;
nodes = (
"201 975 OFFCURVE",
"74 819 OFFCURVE",
"74 475 CURVE SMOOTH",
"74 133 OFFCURVE",
"201 -23 OFFCURVE",
"455 -23 CURVE SMOOTH",
"709 -23 OFFCURVE",
"836 133 OFFCURVE",
"836 475 CURVE SMOOTH",
"836 819 OFFCURVE",
"709 975 OFFCURVE",
"455 975 CURVE SMOOTH"
);
},
{
closed = 1;
nodes = (
"567 791 OFFCURVE",
"608 694 OFFCURVE",
"608 510 CURVE SMOOTH",
"608 442 LINE SMOOTH",
"608 258 OFFCURVE",
"567 162 OFFCURVE",
"455 162 CURVE SMOOTH",
"342 162 OFFCURVE",
"301 258 OFFCURVE",
"301 442 CURVE SMOOTH",
"301 510 LINE SMOOTH",
"301 694 OFFCURVE",
"342 791 OFFCURVE",
"455 791 CURVE SMOOTH"
);
},
{
closed = 1;
nodes = (
"639 1309 LINE",
"633 1257 OFFCURVE",
"606 1241 OFFCURVE",
"569 1241 CURVE SMOOTH",
"487 1241 OFFCURVE",
"416 1309 OFFCURVE",
"328 1309 CURVE SMOOTH",
"201 1309 OFFCURVE",
"150 1188 OFFCURVE",
"150 1087 CURVE",
"270 1087 LINE",
"276 1137 OFFCURVE",
"303 1155 OFFCURVE",
"340 1155 CURVE SMOOTH",
"422 1155 OFFCURVE",
"492 1087 OFFCURVE",
"580 1087 CURVE SMOOTH",
"709 1087 OFFCURVE",
"758 1210 OFFCURVE",
"758 1309 CURVE"
);
}
);
width = 907;
}
);
unicode = 00F5;
},
{
glyphname = oe;
layers = (
{
anchors = (
{
name = top;
position = "{700, 952}";
}
);
layerId = "3CB5DA74-10A0-4C7B-8F49-8E762609D01C";
name = Bold;
paths = (
{
closed = 1;
nodes = (
"866 975 OFFCURVE",
"782 936 OFFCURVE",
"721 854 CURVE",
"659 936 OFFCURVE",
"569 975 OFFCURVE",
"455 975 CURVE SMOOTH",
"201 975 OFFCURVE",
"74 819 OFFCURVE",
"74 475 CURVE SMOOTH",
"74 133 OFFCURVE",
"201 -23 OFFCURVE",
"455 -23 CURVE SMOOTH",
"569 -23 OFFCURVE",
"659 16 OFFCURVE",
"723 96 CURVE",
"784 16 OFFCURVE",
"870 -23 OFFCURVE",
"983 -23 CURVE SMOOTH",
"1178 -23 OFFCURVE",
"1319 92 OFFCURVE",
"1319 336 CURVE",
"1104 336 LINE",
"1104 223 OFFCURVE",
"1057 156 OFFCURVE",
"983 156 CURVE SMOOTH",
"877 156 OFFCURVE",
"838 252 OFFCURVE",
"836 422 CURVE",
"1319 422 LINE",
"1319 475 LINE SMOOTH",
"1319 819 OFFCURVE",
"1206 975 OFFCURVE",
"975 975 CURVE SMOOTH"
);
},
{
closed = 1;
nodes = (
"567 791 OFFCURVE",
"608 694 OFFCURVE",
"608 510 CURVE SMOOTH",
"608 442 LINE SMOOTH",
"608 258 OFFCURVE",
"567 162 OFFCURVE",
"455 162 CURVE SMOOTH",
"342 162 OFFCURVE",
"301 258 OFFCURVE",
"301 442 CURVE SMOOTH",
"301 510 LINE SMOOTH",
"301 694 OFFCURVE",
"342 791 OFFCURVE",
"455 791 CURVE SMOOTH"
);
},
{
closed = 1;
nodes = (
"1055 797 OFFCURVE",
"1092 717 OFFCURVE",
"1092 580 CURVE",
"838 580 LINE",
"846 717 OFFCURVE",
"883 797 OFFCURVE",
"975 797 CURVE SMOOTH"
);
}
);
width = 1401;
}
);
unicode = 0153;
},
{
glyphname = p;
layers = (
{
layerId = "3CB5DA74-10A0-4C7B-8F49-8E762609D01C";
name = Bold;
paths = (
{
closed = 1;
nodes = (
"436 975 OFFCURVE",
"358 928 OFFCURVE",
"311 836 CURVE",
"303 836 LINE",
"281 952 LINE",
"100 952 LINE",
"100 -313 LINE",
"317 -313 LINE",
"317 98 LINE",
"326 98 LINE",
"360 23 OFFCURVE",
"442 -23 OFFCURVE",
"539 -23 CURVE SMOOTH",
"707 -23 OFFCURVE",
"834 129 OFFCURVE",
"834 475 CURVE SMOOTH",
"834 819 OFFCURVE",
"715 975 OFFCURVE",
"526 975 CURVE SMOOTH"
);
},
{
closed = 1;
nodes = (
"567 776 OFFCURVE",
"606 682 OFFCURVE",
"606 510 CURVE SMOOTH",
"606 442 LINE SMOOTH",
"606 270 OFFCURVE",
"567 176 OFFCURVE",
"461 176 CURVE SMOOTH",
"356 176 OFFCURVE",
"317 272 OFFCURVE",
"317 444 CURVE SMOOTH",
"317 510 LINE SMOOTH",
"317 682 OFFCURVE",
"356 776 OFFCURVE",
"461 776 CURVE SMOOTH"
);
}
);
width = 907;
}
);
unicode = 0070;
},
{
glyphname = thorn;
layers = (
{
layerId = "3CB5DA74-10A0-4C7B-8F49-8E762609D01C";
name = Bold;
paths = (
{
closed = 1;
nodes = (
"317 1309 LINE",
"100 1309 LINE",
"100 -313 LINE",
"317 -313 LINE",
"317 98 LINE",
"326 98 LINE",
"360 23 OFFCURVE",
"442 -23 OFFCURVE",
"539 -23 CURVE SMOOTH",
"707 -23 OFFCURVE",
"834 129 OFFCURVE",
"834 475 CURVE SMOOTH",
"834 819 OFFCURVE",
"715 975 OFFCURVE",
"526 975 CURVE SMOOTH",
"436 975 OFFCURVE",
"358 928 OFFCURVE",
"311 834 CURVE",
"317 831 LINE"
);
},
{
closed = 1;
nodes = (
"567 776 OFFCURVE",
"606 682 OFFCURVE",
"606 510 CURVE SMOOTH",
"606 442 LINE SMOOTH",
"606 270 OFFCURVE",
"567 176 OFFCURVE",
"461 176 CURVE SMOOTH",
"356 176 OFFCURVE",
"317 272 OFFCURVE",
"317 444 CURVE SMOOTH",
"317 510 LINE SMOOTH",
"317 682 OFFCURVE",
"356 776 OFFCURVE",
"461 776 CURVE SMOOTH"
);
}
);
width = 907;
}
);
unicode = 00FE;
},
{
glyphname = q;
layers = (
{
layerId = "3CB5DA74-10A0-4C7B-8F49-8E762609D01C";
name = Bold;
paths = (
{
closed = 1;
nodes = (
"193 975 OFFCURVE",
"74 819 OFFCURVE",
"74 475 CURVE SMOOTH",
"74 129 OFFCURVE",
"201 -23 OFFCURVE",
"369 -23 CURVE SMOOTH",
"465 -23 OFFCURVE",
"547 23 OFFCURVE",
"582 98 CURVE",
"590 98 LINE",
"590 -313 LINE",
"807 -313 LINE",
"807 952 LINE",
"627 952 LINE",
"604 836 LINE",
"596 836 LINE",
"549 928 OFFCURVE",
"471 975 OFFCURVE",
"381 975 CURVE SMOOTH"
);
},
{
closed = 1;
nodes = (
"551 776 OFFCURVE",
"590 682 OFFCURVE",
"590 510 CURVE SMOOTH",
"590 444 LINE SMOOTH",
"590 272 OFFCURVE",
"551 176 OFFCURVE",
"444 176 CURVE SMOOTH",
"340 176 OFFCURVE",
"301 270 OFFCURVE",
"301 442 CURVE SMOOTH",
"301 510 LINE SMOOTH",
"301 682 OFFCURVE",
"340 776 OFFCURVE",
"444 776 CURVE SMOOTH"
);
}
);
width = 907;
}
);
unicode = 0071;
},
{
glyphname = r;
layers = (
{
anchors = (
{
name = bottom;
position = "{289, 0}";
},
{
name = top;
position = "{289, 952}";
}
);
layerId = "3CB5DA74-10A0-4C7B-8F49-8E762609D01C";
name = Bold;
paths = (
{
closed = 1;
nodes = (
"385 975 OFFCURVE",
"342 893 OFFCURVE",
"317 813 CURVE",
"305 813 LINE",
"281 952 LINE",
"100 952 LINE",
"100 0 LINE",
"317 0 LINE",
"317 530 LINE SMOOTH",
"317 698 OFFCURVE",
"399 750 OFFCURVE",
"494 750 CURVE SMOOTH",
"571 750 LINE",
"571 961 LINE",
"571 961 OFFCURVE",
"539 975 OFFCURVE",
"481 975 CURVE SMOOTH"
);
}
);
width = 578;
}
);
unicode = 0072;
},
{
glyphname = racute;
layers = (
{
layerId = "3CB5DA74-10A0-4C7B-8F49-8E762609D01C";
name = Bold;
paths = (
{
closed = 1;
nodes = (
"385 975 OFFCURVE",
"342 893 OFFCURVE",
"317 813 CURVE",
"305 813 LINE",
"281 952 LINE",
"100 952 LINE",
"100 0 LINE",
"317 0 LINE",
"317 530 LINE SMOOTH",
"317 698 OFFCURVE",
"399 750 OFFCURVE",
"494 750 CURVE SMOOTH",
"571 750 LINE",
"571 961 LINE",
"571 961 OFFCURVE",
"539 975 OFFCURVE",
"481 975 CURVE SMOOTH"
);
},
{
closed = 1;
nodes = (
"451 1309 LINE",
"231 1309 LINE",
"76 1069 LINE",
"258 1069 LINE",
"453 1303 LINE"
);
}
);
width = 578;
}
);
unicode = 0155;
},
{
glyphname = rcaron;
layers = (
{
layerId = "3CB5DA74-10A0-4C7B-8F49-8E762609D01C";
name = Bold;
paths = (
{
closed = 1;
nodes = (
"385 975 OFFCURVE",
"342 893 OFFCURVE",
"317 813 CURVE",
"305 813 LINE",
"281 952 LINE",
"100 952 LINE",
"100 0 LINE",
"317 0 LINE",
"317 530 LINE SMOOTH",
"317 698 OFFCURVE",
"399 750 OFFCURVE",
"494 750 CURVE SMOOTH",
"571 750 LINE",
"571 961 LINE",
"571 961 OFFCURVE",
"539 975 OFFCURVE",
"481 975 CURVE SMOOTH"
);
},
{
closed = 1;
nodes = (
"291 1065 LINE",
"444 1309 LINE",
"283 1309 LINE",
"203 1184 LINE",
"121 1309 LINE",
"-41 1309 LINE",
"115 1065 LINE"
);
}
);
width = 578;
}
);
unicode = 0159;
},
{
glyphname = rcommaaccent;
layers = (
{
layerId = "3CB5DA74-10A0-4C7B-8F49-8E762609D01C";
name = Bold;
paths = (
{
closed = 1;
nodes = (
"385 975 OFFCURVE",
"342 893 OFFCURVE",
"317 813 CURVE",
"305 813 LINE",
"281 952 LINE",
"100 952 LINE",
"100 0 LINE",
"317 0 LINE",
"317 530 LINE SMOOTH",
"317 698 OFFCURVE",
"399 750 OFFCURVE",
"494 750 CURVE SMOOTH",
"571 750 LINE",
"571 961 LINE",
"571 961 OFFCURVE",
"539 975 OFFCURVE",
"481 975 CURVE SMOOTH"
);
},
{
closed = 1;
nodes = (
"332 -303 LINE",
"332 -100 LINE",
"106 -100 LINE",
"106 -322 LINE",
"195 -322 LINE",
"131 -475 LINE",
"248 -475 LINE"
);
}
);
width = 578;
}
);
unicode = 0157;
},
{
glyphname = s;
layers = (
{
anchors = (
{
name = bottom;
position = "{414, 0}";
},
{
name = top;
position = "{414, 952}";
}
);
layerId = "3CB5DA74-10A0-4C7B-8F49-8E762609D01C";
name = Bold;
paths = (
{
closed = 1;
nodes = (
"225 975 OFFCURVE",
"74 879 OFFCURVE",
"74 684 CURVE SMOOTH",
"74 317 OFFCURVE",
"539 461 OFFCURVE",
"539 258 CURVE SMOOTH",
"539 180 OFFCURVE",
"471 156 OFFCURVE",
"414 156 CURVE SMOOTH",
"350 156 OFFCURVE",
"285 188 OFFCURVE",
"283 289 CURVE SMOOTH",
"283 303 LINE",
"61 303 LINE",
"61 303 OFFCURVE",
"59 289 OFFCURVE",
"59 281 CURVE SMOOTH",
"59 100 OFFCURVE",
"186 -23 OFFCURVE",
"406 -23 CURVE SMOOTH",
"608 -23 OFFCURVE",
"760 55 OFFCURVE",
"760 287 CURVE SMOOTH",
"760 664 OFFCURVE",
"295 518 OFFCURVE",
"295 702 CURVE SMOOTH",
"295 760 OFFCURVE",
"340 797 OFFCURVE",
"408 797 CURVE SMOOTH",
"473 797 OFFCURVE",
"512 758 OFFCURVE",
"514 678 CURVE SMOOTH",
"514 674 LINE",
"735 674 LINE",
"735 676 OFFCURVE",
"737 694 OFFCURVE",
"737 715 CURVE SMOOTH",
"737 879 OFFCURVE",
"596 975 OFFCURVE",
"414 975 CURVE SMOOTH"
);
}
);
width = 825;
}
);
unicode = 0073;
},
{
glyphname = sacute;
layers = (
{
layerId = "3CB5DA74-10A0-4C7B-8F49-8E762609D01C";
name = Bold;
paths = (
{
closed = 1;
nodes = (
"225 975 OFFCURVE",
"74 879 OFFCURVE",
"74 684 CURVE SMOOTH",
"74 317 OFFCURVE",
"539 461 OFFCURVE",
"539 258 CURVE SMOOTH",
"539 180 OFFCURVE",
"471 156 OFFCURVE",
"414 156 CURVE SMOOTH",
"350 156 OFFCURVE",
"285 188 OFFCURVE",
"283 289 CURVE SMOOTH",
"283 303 LINE",
"61 303 LINE",
"61 303 OFFCURVE",
"59 289 OFFCURVE",
"59 281 CURVE SMOOTH",
"59 100 OFFCURVE",
"186 -23 OFFCURVE",
"406 -23 CURVE SMOOTH",
"608 -23 OFFCURVE",
"760 55 OFFCURVE",
"760 287 CURVE SMOOTH",
"760 664 OFFCURVE",
"295 518 OFFCURVE",
"295 702 CURVE SMOOTH",
"295 760 OFFCURVE",
"340 797 OFFCURVE",
"408 797 CURVE SMOOTH",
"473 797 OFFCURVE",
"512 758 OFFCURVE",
"514 678 CURVE SMOOTH",
"514 674 LINE",
"735 674 LINE",
"735 676 OFFCURVE",
"737 694 OFFCURVE",
"737 715 CURVE SMOOTH",
"737 879 OFFCURVE",
"596 975 OFFCURVE",
"414 975 CURVE SMOOTH"
);
},
{
closed = 1;
nodes = (
"662 1309 LINE",
"444 1309 LINE",
"289 1069 LINE",
"467 1069 LINE",
"664 1303 LINE"
);
}
);
width = 825;
}
);
unicode = 015B;
},
{
glyphname = scaron;
layers = (
{
layerId = "3CB5DA74-10A0-4C7B-8F49-8E762609D01C";
name = Bold;
paths = (
{
closed = 1;
nodes = (
"225 975 OFFCURVE",
"74 879 OFFCURVE",
"74 684 CURVE SMOOTH",
"74 317 OFFCURVE",
"539 461 OFFCURVE",
"539 258 CURVE SMOOTH",
"539 180 OFFCURVE",
"471 156 OFFCURVE",
"414 156 CURVE SMOOTH",
"350 156 OFFCURVE",
"285 188 OFFCURVE",
"283 289 CURVE SMOOTH",
"283 303 LINE",
"61 303 LINE",
"61 303 OFFCURVE",
"59 289 OFFCURVE",
"59 281 CURVE SMOOTH",
"59 100 OFFCURVE",
"186 -23 OFFCURVE",
"406 -23 CURVE SMOOTH",
"608 -23 OFFCURVE",
"760 55 OFFCURVE",
"760 287 CURVE SMOOTH",
"760 664 OFFCURVE",
"295 518 OFFCURVE",
"295 702 CURVE SMOOTH",
"295 760 OFFCURVE",
"340 797 OFFCURVE",
"408 797 CURVE SMOOTH",
"473 797 OFFCURVE",
"512 758 OFFCURVE",
"514 678 CURVE SMOOTH",
"514 674 LINE",
"735 674 LINE",
"735 676 OFFCURVE",
"737 694 OFFCURVE",
"737 715 CURVE SMOOTH",
"737 879 OFFCURVE",
"596 975 OFFCURVE",
"414 975 CURVE SMOOTH"
);
},
{
closed = 1;
nodes = (
"657 1309 LINE",
"494 1309 LINE",
"414 1184 LINE",
"334 1309 LINE",
"170 1309 LINE",
"326 1065 LINE",
"504 1065 LINE"
);
}
);
width = 825;
}
);
unicode = 0161;
},
{
glyphname = scedilla;
layers = (
{
layerId = "3CB5DA74-10A0-4C7B-8F49-8E762609D01C";
name = Bold;
paths = (
{
closed = 1;
nodes = (
"225 975 OFFCURVE",
"74 879 OFFCURVE",
"74 684 CURVE SMOOTH",
"74 317 OFFCURVE",
"539 461 OFFCURVE",
"539 258 CURVE SMOOTH",
"539 180 OFFCURVE",
"471 156 OFFCURVE",
"414 156 CURVE SMOOTH",
"350 156 OFFCURVE",
"285 188 OFFCURVE",
"283 289 CURVE SMOOTH",
"283 303 LINE",
"61 303 LINE",
"61 303 OFFCURVE",
"59 289 OFFCURVE",
"59 281 CURVE SMOOTH",
"59 121 OFFCURVE",
"156 8 OFFCURVE",
"326 -16 CURVE",
"311 -139 LINE",
"371 -139 LINE SMOOTH",
"416 -139 OFFCURVE",
"432 -154 OFFCURVE",
"432 -182 CURVE SMOOTH",
"432 -217 OFFCURVE",
"408 -227 OFFCURVE",
"367 -227 CURVE SMOOTH",
"240 -227 LINE",
"240 -315 LINE",
"283 -324 OFFCURVE",
"338 -330 OFFCURVE",
"391 -330 CURVE SMOOTH",
"469 -330 OFFCURVE",
"588 -305 OFFCURVE",
"588 -182 CURVE SMOOTH",
"588 -100 OFFCURVE",
"522 -66 OFFCURVE",
"444 -59 CURVE",
"449 -20 LINE",
"629 -8 OFFCURVE",
"760 70 OFFCURVE",
"760 287 CURVE SMOOTH",
"760 664 OFFCURVE",
"295 518 OFFCURVE",
"295 702 CURVE SMOOTH",
"295 760 OFFCURVE",
"340 797 OFFCURVE",
"408 797 CURVE SMOOTH",
"473 797 OFFCURVE",
"512 758 OFFCURVE",
"514 678 CURVE SMOOTH",
"514 674 LINE",
"735 674 LINE",
"735 676 OFFCURVE",
"737 694 OFFCURVE",
"737 715 CURVE SMOOTH",
"737 879 OFFCURVE",
"596 975 OFFCURVE",
"414 975 CURVE SMOOTH"
);
}
);
width = 825;
}
);
unicode = 015F;
},
{
glyphname = scircumflex;
layers = (
{
layerId = "3CB5DA74-10A0-4C7B-8F49-8E762609D01C";
name = Bold;
paths = (
{
closed = 1;
nodes = (
"225 975 OFFCURVE",
"74 879 OFFCURVE",
"74 684 CURVE SMOOTH",
"74 317 OFFCURVE",
"539 461 OFFCURVE",
"539 258 CURVE SMOOTH",
"539 180 OFFCURVE",
"471 156 OFFCURVE",
"414 156 CURVE SMOOTH",
"350 156 OFFCURVE",
"285 188 OFFCURVE",
"283 289 CURVE SMOOTH",
"283 303 LINE",
"61 303 LINE",
"61 303 OFFCURVE",
"59 289 OFFCURVE",
"59 281 CURVE SMOOTH",
"59 100 OFFCURVE",
"186 -23 OFFCURVE",
"406 -23 CURVE SMOOTH",
"608 -23 OFFCURVE",
"760 55 OFFCURVE",
"760 287 CURVE SMOOTH",
"760 664 OFFCURVE",
"295 518 OFFCURVE",
"295 702 CURVE SMOOTH",
"295 760 OFFCURVE",
"340 797 OFFCURVE",
"408 797 CURVE SMOOTH",
"473 797 OFFCURVE",
"512 758 OFFCURVE",
"514 678 CURVE SMOOTH",
"514 674 LINE",
"735 674 LINE",
"735 676 OFFCURVE",
"737 694 OFFCURVE",
"737 715 CURVE SMOOTH",
"737 879 OFFCURVE",
"596 975 OFFCURVE",
"414 975 CURVE SMOOTH"
);
},
{
closed = 1;
nodes = (
"504 1309 LINE",
"326 1309 LINE",
"170 1065 LINE",
"334 1065 LINE",
"414 1190 LINE",
"494 1065 LINE",
"657 1065 LINE"
);
}
);
width = 825;
}
);
unicode = 015D;
},
{
glyphname = germandbls;
layers = (
{
layerId = "3CB5DA74-10A0-4C7B-8F49-8E762609D01C";
name = Bold;
paths = (
{
closed = 1;
nodes = (
"242 1331 OFFCURVE",
"72 1219 OFFCURVE",
"72 942 CURVE SMOOTH",
"72 0 LINE",
"289 0 LINE",
"289 956 LINE SMOOTH",
"289 1079 OFFCURVE",
"354 1147 OFFCURVE",
"451 1147 CURVE SMOOTH",
"549 1147 OFFCURVE",
"600 1081 OFFCURVE",
"600 987 CURVE SMOOTH",
"600 881 OFFCURVE",
"539 791 OFFCURVE",
"465 791 CURVE SMOOTH",
"377 791 LINE",
"377 586 LINE",
"471 586 LINE SMOOTH",
"563 586 OFFCURVE",
"637 498 OFFCURVE",
"637 389 CURVE SMOOTH",
"637 279 OFFCURVE",
"563 184 OFFCURVE",
"471 184 CURVE SMOOTH",
"377 184 LINE",
"377 0 LINE",
"494 0 LINE SMOOTH",
"696 0 OFFCURVE",
"856 154 OFFCURVE",
"856 387 CURVE SMOOTH",
"856 526 OFFCURVE",
"770 664 OFFCURVE",
"647 709 CURVE",
"647 715 LINE",
"748 756 OFFCURVE",
"819 872 OFFCURVE",
"819 991 CURVE SMOOTH",
"819 1204 OFFCURVE",
"666 1331 OFFCURVE",
"461 1331 CURVE SMOOTH"
);
}
);
width = 907;
}
);
unicode = 00DF;
},
{
glyphname = longs;
layers = (
{
layerId = "3CB5DA74-10A0-4C7B-8F49-8E762609D01C";
name = Bold;
paths = (
{
closed = 1;
nodes = (
"164 1323 OFFCURVE",
"113 1194 OFFCURVE",
"113 1069 CURVE SMOOTH",
"113 952 LINE",
"16 952 LINE",
"16 770 LINE",
"113 770 LINE",
"113 0 LINE",
"330 0 LINE",
"330 1063 LINE SMOOTH",
"330 1114 OFFCURVE",
"356 1141 OFFCURVE",
"406 1141 CURVE SMOOTH",
"494 1141 LINE",
"494 1303 LINE",
"459 1313 OFFCURVE",
"387 1323 OFFCURVE",
"336 1323 CURVE SMOOTH"
);
}
);
width = 414;
}
);
unicode = 017F;
},
{
glyphname = t;
layers = (
{
anchors = (
{
name = bottom;
position = "{299, 0}";
},
{
name = center;
position = "{248, 475}";
}
);
layerId = "3CB5DA74-10A0-4C7B-8F49-8E762609D01C";
name = Bold;
paths = (
{
closed = 1;
nodes = (
"330 952 LINE",
"330 1221 LINE",
"145 1221 LINE",
"113 952 LINE",
"16 952 LINE",
"16 770 LINE",
"113 770 LINE",
"113 233 LINE SMOOTH",
"113 106 OFFCURVE",
"164 -23 OFFCURVE",
"336 -23 CURVE SMOOTH",
"379 -23 OFFCURVE",
"436 -10 OFFCURVE",
"467 0 CURVE",
"467 162 LINE",
"406 162 LINE SMOOTH",
"356 162 OFFCURVE",
"330 188 OFFCURVE",
"330 240 CURVE SMOOTH",
"330 770 LINE",
"467 770 LINE",
"467 952 LINE"
);
}
);
width = 494;
}
);
unicode = 0074;
},
{
glyphname = tbar;
layers = (
{
layerId = "3CB5DA74-10A0-4C7B-8F49-8E762609D01C";
name = Bold;
paths = (
{
closed = 1;
nodes = (
"330 1221 LINE",
"145 1221 LINE",
"113 952 LINE",
"16 952 LINE",
"16 770 LINE",
"113 770 LINE",
"113 633 LINE",
"20 633 LINE",
"20 475 LINE",
"113 475 LINE",
"113 233 LINE SMOOTH",
"113 106 OFFCURVE",
"164 -23 OFFCURVE",
"336 -23 CURVE SMOOTH",
"379 -23 OFFCURVE",
"436 -10 OFFCURVE",
"467 0 CURVE",
"467 162 LINE",
"406 162 LINE SMOOTH",
"356 162 OFFCURVE",
"330 188 OFFCURVE",
"330 240 CURVE SMOOTH",
"330 475 LINE",
"461 475 LINE",
"461 633 LINE",
"330 633 LINE",
"330 770 LINE",
"467 770 LINE",
"467 952 LINE",
"330 952 LINE"
);
}
);
width = 494;
}
);
unicode = 0167;
},
{
glyphname = tcaron;
layers = (
{
layerId = "3CB5DA74-10A0-4C7B-8F49-8E762609D01C";
name = Bold;
paths = (
{
closed = 1;
nodes = (
"330 952 LINE",
"330 1221 LINE",
"145 1221 LINE",
"113 952 LINE",
"16 952 LINE",
"16 770 LINE",
"113 770 LINE",
"113 233 LINE SMOOTH",
"113 106 OFFCURVE",
"164 -23 OFFCURVE",
"336 -23 CURVE SMOOTH",
"379 -23 OFFCURVE",
"436 -10 OFFCURVE",
"467 0 CURVE",
"467 162 LINE",
"406 162 LINE SMOOTH",
"356 162 OFFCURVE",
"330 188 OFFCURVE",
"330 240 CURVE SMOOTH",
"330 770 LINE",
"467 770 LINE",
"467 952 LINE"
);
},
{
closed = 1;
nodes = (
"793 1016 LINE",
"793 1241 LINE",
"543 1241 LINE",
"543 993 LINE",
"643 993 LINE",
"565 770 LINE",
"694 770 LINE"
);
}
);
width = 711;
}
);
unicode = 0165;
},
{
glyphname = tcommaaccent;
layers = (
{
layerId = "3CB5DA74-10A0-4C7B-8F49-8E762609D01C";
name = Bold;
paths = (
{
closed = 1;
nodes = (
"330 952 LINE",
"330 1221 LINE",
"145 1221 LINE",
"113 952 LINE",
"16 952 LINE",
"16 770 LINE",
"113 770 LINE",
"113 233 LINE SMOOTH",
"113 106 OFFCURVE",
"164 -23 OFFCURVE",
"336 -23 CURVE SMOOTH",
"379 -23 OFFCURVE",
"436 -10 OFFCURVE",
"467 0 CURVE",
"467 162 LINE",
"406 162 LINE SMOOTH",
"356 162 OFFCURVE",
"330 188 OFFCURVE",
"330 240 CURVE SMOOTH",
"330 770 LINE",
"467 770 LINE",
"467 952 LINE"
);
},
{
closed = 1;
nodes = (
"360 -303 LINE",
"360 -100 LINE",
"135 -100 LINE",
"135 -322 LINE",
"225 -322 LINE",
"160 -475 LINE",
"276 -475 LINE"
);
}
);
width = 494;
}
);
unicode = 021B;
},
{
glyphname = u;
layers = (
{
anchors = (
{
name = ogonek;
position = "{817, 18}";
},
{
name = top;
position = "{455, 952}";
}
);
layerId = "3CB5DA74-10A0-4C7B-8F49-8E762609D01C";
name = Bold;
paths = (
{
closed = 1;
nodes = (
"807 0 LINE",
"807 952 LINE",
"590 952 LINE",
"590 362 LINE SMOOTH",
"590 256 OFFCURVE",
"526 176 OFFCURVE",
"442 176 CURVE SMOOTH",
"360 176 OFFCURVE",
"317 221 OFFCURVE",
"317 344 CURVE SMOOTH",
"317 952 LINE",
"100 952 LINE",
"100 285 LINE SMOOTH",
"100 59 OFFCURVE",
"207 -23 OFFCURVE",
"352 -23 CURVE SMOOTH",
"467 -23 OFFCURVE",
"545 43 OFFCURVE",
"594 117 CURVE",
"604 117 LINE",
"627 0 LINE"
);
}
);
width = 907;
}
);
unicode = 0075;
},
{
glyphname = uacute;
layers = (
{
layerId = "3CB5DA74-10A0-4C7B-8F49-8E762609D01C";
name = Bold;
paths = (
{
closed = 1;
nodes = (
"807 952 LINE",
"590 952 LINE",
"590 362 LINE SMOOTH",
"590 256 OFFCURVE",
"526 176 OFFCURVE",
"442 176 CURVE SMOOTH",
"360 176 OFFCURVE",
"317 221 OFFCURVE",
"317 344 CURVE SMOOTH",
"317 952 LINE",
"100 952 LINE",
"100 285 LINE SMOOTH",
"100 59 OFFCURVE",
"207 -23 OFFCURVE",
"352 -23 CURVE SMOOTH",
"467 -23 OFFCURVE",
"545 43 OFFCURVE",
"594 117 CURVE",
"604 117 LINE",
"627 0 LINE",
"807 0 LINE"
);
},
{
closed = 1;
nodes = (
"702 1309 LINE",
"485 1309 LINE",
"330 1069 LINE",
"508 1069 LINE",
"705 1303 LINE"
);
}
);
width = 907;
}
);
unicode = 00FA;
},
{
glyphname = ubreve;
layers = (
{
layerId = "3CB5DA74-10A0-4C7B-8F49-8E762609D01C";
name = Bold;
paths = (
{
closed = 1;
nodes = (
"807 0 LINE",
"807 952 LINE",
"590 952 LINE",
"590 362 LINE SMOOTH",
"590 256 OFFCURVE",
"526 176 OFFCURVE",
"442 176 CURVE SMOOTH",
"360 176 OFFCURVE",
"317 221 OFFCURVE",
"317 344 CURVE SMOOTH",
"317 952 LINE",
"100 952 LINE",
"100 285 LINE SMOOTH",
"100 59 OFFCURVE",
"207 -23 OFFCURVE",
"352 -23 CURVE SMOOTH",
"467 -23 OFFCURVE",
"545 43 OFFCURVE",
"594 117 CURVE",
"604 117 LINE",
"627 0 LINE"
);
},
{
closed = 1;
nodes = (
"561 1309 LINE",
"557 1284 OFFCURVE",
"514 1249 OFFCURVE",
"453 1249 CURVE SMOOTH",
"393 1249 OFFCURVE",
"350 1284 OFFCURVE",
"346 1309 CURVE",
"211 1309 LINE",
"211 1219 OFFCURVE",
"305 1116 OFFCURVE",
"453 1116 CURVE SMOOTH",
"602 1116 OFFCURVE",
"694 1219 OFFCURVE",
"694 1309 CURVE"
);
}
);
width = 907;
}
);
unicode = 016D;
},
{
glyphname = ucircumflex;
layers = (
{
layerId = "3CB5DA74-10A0-4C7B-8F49-8E762609D01C";
name = Bold;
paths = (
{
closed = 1;
nodes = (
"807 0 LINE",
"807 952 LINE",
"590 952 LINE",
"590 362 LINE SMOOTH",
"590 256 OFFCURVE",
"526 176 OFFCURVE",
"442 176 CURVE SMOOTH",
"360 176 OFFCURVE",
"317 221 OFFCURVE",
"317 344 CURVE SMOOTH",
"317 952 LINE",
"100 952 LINE",
"100 285 LINE SMOOTH",
"100 59 OFFCURVE",
"207 -23 OFFCURVE",
"352 -23 CURVE SMOOTH",
"467 -23 OFFCURVE",
"545 43 OFFCURVE",
"594 117 CURVE",
"604 117 LINE",
"627 0 LINE"
);
},
{
closed = 1;
nodes = (
"696 1065 LINE",
"543 1309 LINE",
"367 1309 LINE",
"211 1065 LINE",
"373 1065 LINE",
"455 1190 LINE",
"535 1065 LINE"
);
}
);
width = 907;
}
);
unicode = 00FB;
},
{
glyphname = udieresis;
layers = (
{
layerId = "3CB5DA74-10A0-4C7B-8F49-8E762609D01C";
name = Bold;
paths = (
{
closed = 1;
nodes = (
"807 952 LINE",
"590 952 LINE",
"590 362 LINE SMOOTH",
"590 256 OFFCURVE",
"526 176 OFFCURVE",
"442 176 CURVE SMOOTH",
"360 176 OFFCURVE",
"317 221 OFFCURVE",
"317 344 CURVE SMOOTH",
"317 952 LINE",
"100 952 LINE",
"100 285 LINE SMOOTH",
"100 59 OFFCURVE",
"207 -23 OFFCURVE",
"352 -23 CURVE SMOOTH",
"467 -23 OFFCURVE",
"545 43 OFFCURVE",
"594 117 CURVE",
"604 117 LINE",
"627 0 LINE",
"807 0 LINE"
);
},
{
closed = 1;
nodes = (
"385 1309 LINE",
"205 1309 LINE",
"205 1112 LINE",
"385 1112 LINE"
);
},
{
closed = 1;
nodes = (
"702 1309 LINE",
"522 1309 LINE",
"522 1112 LINE",
"702 1112 LINE"
);
}
);
width = 907;
}
);
unicode = 00FC;
},
{
glyphname = ugrave;
layers = (
{
layerId = "3CB5DA74-10A0-4C7B-8F49-8E762609D01C";
name = Bold;
paths = (
{
closed = 1;
nodes = (
"807 952 LINE",
"590 952 LINE",
"590 362 LINE SMOOTH",
"590 256 OFFCURVE",
"526 176 OFFCURVE",
"442 176 CURVE SMOOTH",
"360 176 OFFCURVE",
"317 221 OFFCURVE",
"317 344 CURVE SMOOTH",
"317 952 LINE",
"100 952 LINE",
"100 285 LINE SMOOTH",
"100 59 OFFCURVE",
"207 -23 OFFCURVE",
"352 -23 CURVE SMOOTH",
"467 -23 OFFCURVE",
"545 43 OFFCURVE",
"594 117 CURVE",
"604 117 LINE",
"627 0 LINE",
"807 0 LINE"
);
},
{
closed = 1;
nodes = (
"422 1309 LINE",
"205 1309 LINE",
"203 1303 LINE",
"397 1069 LINE",
"578 1069 LINE"
);
}
);
width = 907;
}
);
unicode = 00F9;
},
{
glyphname = uhungarumlaut;
layers = (
{
layerId = "3CB5DA74-10A0-4C7B-8F49-8E762609D01C";
name = Bold;
paths = (
{
closed = 1;
nodes = (
"807 952 LINE",
"590 952 LINE",
"590 362 LINE SMOOTH",
"590 256 OFFCURVE",
"526 176 OFFCURVE",
"442 176 CURVE SMOOTH",
"360 176 OFFCURVE",
"317 221 OFFCURVE",
"317 344 CURVE SMOOTH",
"317 952 LINE",
"100 952 LINE",
"100 285 LINE SMOOTH",
"100 59 OFFCURVE",
"207 -23 OFFCURVE",
"352 -23 CURVE SMOOTH",
"467 -23 OFFCURVE",
"545 43 OFFCURVE",
"594 117 CURVE",
"604 117 LINE",
"627 0 LINE",
"807 0 LINE"
);
},
{
closed = 1;
nodes = (
"543 1309 LINE",
"362 1309 LINE",
"250 1069 LINE",
"393 1069 LINE",
"545 1303 LINE"
);
},
{
closed = 1;
nodes = (
"797 1309 LINE",
"616 1309 LINE",
"504 1069 LINE",
"647 1069 LINE",
"799 1303 LINE"
);
}
);
width = 907;
}
);
unicode = 0171;
},
{
glyphname = umacron;
layers = (
{
layerId = "3CB5DA74-10A0-4C7B-8F49-8E762609D01C";
name = Bold;
paths = (
{
closed = 1;
nodes = (
"807 0 LINE",
"807 952 LINE",
"590 952 LINE",
"590 362 LINE SMOOTH",
"590 256 OFFCURVE",
"526 176 OFFCURVE",
"442 176 CURVE SMOOTH",
"360 176 OFFCURVE",
"317 221 OFFCURVE",
"317 344 CURVE SMOOTH",
"317 952 LINE",
"100 952 LINE",
"100 285 LINE SMOOTH",
"100 59 OFFCURVE",
"207 -23 OFFCURVE",
"352 -23 CURVE SMOOTH",
"467 -23 OFFCURVE",
"545 43 OFFCURVE",
"594 117 CURVE",
"604 117 LINE",
"627 0 LINE"
);
},
{
closed = 1;
nodes = (
"684 1085 LINE",
"684 1241 LINE",
"223 1241 LINE",
"223 1085 LINE"
);
}
);
width = 907;
}
);
unicode = 016B;
},
{
glyphname = uogonek;
layers = (
{
layerId = "3CB5DA74-10A0-4C7B-8F49-8E762609D01C";
name = Bold;
paths = (
{
closed = 1;
nodes = (
"807 952 LINE",
"590 952 LINE",
"590 362 LINE SMOOTH",
"590 256 OFFCURVE",
"526 176 OFFCURVE",
"442 176 CURVE SMOOTH",
"360 176 OFFCURVE",
"317 221 OFFCURVE",
"317 344 CURVE SMOOTH",
"317 952 LINE",
"100 952 LINE",
"100 285 LINE SMOOTH",
"100 59 OFFCURVE",
"207 -23 OFFCURVE",
"352 -23 CURVE SMOOTH",
"467 -23 OFFCURVE",
"545 43 OFFCURVE",
"594 117 CURVE",
"604 117 LINE",
"627 0 LINE",
"666 0 LINE",
"664 8 LINE",
"616 -39 OFFCURVE",
"575 -90 OFFCURVE",
"575 -180 CURVE SMOOTH",
"575 -305 OFFCURVE",
"672 -344 OFFCURVE",
"756 -344 CURVE SMOOTH",
"795 -344 OFFCURVE",
"834 -336 OFFCURVE",
"874 -319 CURVE",
"874 -219 LINE",
"836 -219 LINE SMOOTH",
"774 -219 OFFCURVE",
"754 -174 OFFCURVE",
"754 -127 CURVE SMOOTH",
"754 -76 OFFCURVE",
"786 -25 OFFCURVE",
"807 0 CURVE"
);
}
);
width = 907;
}
);
unicode = 0173;
},
{
glyphname = uring;
layers = (
{
layerId = "3CB5DA74-10A0-4C7B-8F49-8E762609D01C";
name = Bold;
paths = (
{
closed = 1;
nodes = (
"807 0 LINE",
"807 952 LINE",
"590 952 LINE",
"590 362 LINE SMOOTH",
"590 256 OFFCURVE",
"526 176 OFFCURVE",
"442 176 CURVE SMOOTH",
"360 176 OFFCURVE",
"317 221 OFFCURVE",
"317 344 CURVE SMOOTH",
"317 952 LINE",
"100 952 LINE",
"100 285 LINE SMOOTH",
"100 59 OFFCURVE",
"207 -23 OFFCURVE",
"352 -23 CURVE SMOOTH",
"467 -23 OFFCURVE",
"545 43 OFFCURVE",
"594 117 CURVE",
"604 117 LINE",
"627 0 LINE"
);
},
{
closed = 1;
nodes = (
"358 1364 OFFCURVE",
"281 1286 OFFCURVE",
"281 1190 CURVE SMOOTH",
"281 1092 OFFCURVE",
"360 1016 OFFCURVE",
"455 1016 CURVE SMOOTH",
"551 1016 OFFCURVE",
"629 1094 OFFCURVE",
"629 1190 CURVE SMOOTH",
"629 1284 OFFCURVE",
"553 1364 OFFCURVE",
"455 1364 CURVE SMOOTH"
);
},
{
closed = 1;
nodes = (
"500 1272 OFFCURVE",
"539 1237 OFFCURVE",
"539 1190 CURVE SMOOTH",
"539 1143 OFFCURVE",
"500 1106 OFFCURVE",
"455 1106 CURVE SMOOTH",
"408 1106 OFFCURVE",
"371 1143 OFFCURVE",
"371 1190 CURVE SMOOTH",
"371 1237 OFFCURVE",
"408 1272 OFFCURVE",
"455 1272 CURVE SMOOTH"
);
}
);
width = 907;
}
);
unicode = 016F;
},
{
glyphname = utilde;
layers = (
{
layerId = "3CB5DA74-10A0-4C7B-8F49-8E762609D01C";
name = Bold;
paths = (
{
closed = 1;
nodes = (
"807 0 LINE",
"807 952 LINE",
"590 952 LINE",
"590 362 LINE SMOOTH",
"590 256 OFFCURVE",
"526 176 OFFCURVE",
"442 176 CURVE SMOOTH",
"360 176 OFFCURVE",
"317 221 OFFCURVE",
"317 344 CURVE SMOOTH",
"317 952 LINE",
"100 952 LINE",
"100 285 LINE SMOOTH",
"100 59 OFFCURVE",
"207 -23 OFFCURVE",
"352 -23 CURVE SMOOTH",
"467 -23 OFFCURVE",
"545 43 OFFCURVE",
"594 117 CURVE",
"604 117 LINE",
"627 0 LINE"
);
},
{
closed = 1;
nodes = (
"639 1309 LINE",
"633 1257 OFFCURVE",
"606 1241 OFFCURVE",
"569 1241 CURVE SMOOTH",
"487 1241 OFFCURVE",
"416 1309 OFFCURVE",
"328 1309 CURVE SMOOTH",
"201 1309 OFFCURVE",
"150 1188 OFFCURVE",
"150 1087 CURVE",
"270 1087 LINE",
"276 1137 OFFCURVE",
"303 1155 OFFCURVE",
"340 1155 CURVE SMOOTH",
"422 1155 OFFCURVE",
"492 1087 OFFCURVE",
"580 1087 CURVE SMOOTH",
"709 1087 OFFCURVE",
"758 1210 OFFCURVE",
"758 1309 CURVE"
);
}
);
width = 907;
}
);
unicode = 0169;
},
{
glyphname = v;
layers = (
{
layerId = "3CB5DA74-10A0-4C7B-8F49-8E762609D01C";
name = Bold;
paths = (
{
closed = 1;
nodes = (
"819 952 LINE",
"600 952 LINE",
"479 543 LINE SMOOTH",
"453 449 OFFCURVE",
"444 352 OFFCURVE",
"426 258 CURVE",
"418 258 LINE",
"397 352 OFFCURVE",
"387 449 OFFCURVE",
"358 543 CURVE SMOOTH",
"236 952 LINE",
"8 952 LINE",
"303 0 LINE",
"522 0 LINE"
);
}
);
width = 825;
}
);
unicode = 0076;
},
{
glyphname = w;
layers = (
{
anchors = (
{
name = top;
position = "{578, 952}";
}
);
layerId = "3CB5DA74-10A0-4C7B-8F49-8E762609D01C";
name = Bold;
paths = (
{
closed = 1;
nodes = (
"924 0 LINE",
"1153 952 LINE",
"952 952 LINE",
"868 557 LINE SMOOTH",
"848 451 OFFCURVE",
"821 262 OFFCURVE",
"821 262 CURVE SMOOTH",
"815 262 LINE SMOOTH",
"815 262 OFFCURVE",
"795 465 OFFCURVE",
"774 557 CURVE SMOOTH",
"694 952 LINE",
"475 952 LINE",
"395 559 LINE SMOOTH",
"367 424 OFFCURVE",
"354 262 OFFCURVE",
"354 262 CURVE SMOOTH",
"348 262 LINE SMOOTH",
"348 262 OFFCURVE",
"338 432 OFFCURVE",
"309 561 CURVE SMOOTH",
"219 952 LINE",
"2 952 LINE",
"233 0 LINE",
"453 0 LINE",
"545 457 LINE SMOOTH",
"565 555 OFFCURVE",
"571 690 OFFCURVE",
"571 690 CURVE",
"584 690 LINE",
"584 690 OFFCURVE",
"590 551 OFFCURVE",
"610 455 CURVE SMOOTH",
"705 0 LINE"
);
}
);
width = 1155;
}
);
unicode = 0077;
},
{
glyphname = wacute;
layers = (
{
layerId = "3CB5DA74-10A0-4C7B-8F49-8E762609D01C";
name = Bold;
paths = (
{
closed = 1;
nodes = (
"1153 952 LINE",
"952 952 LINE",
"868 557 LINE SMOOTH",
"848 451 OFFCURVE",
"821 262 OFFCURVE",
"821 262 CURVE SMOOTH",
"815 262 LINE SMOOTH",
"815 262 OFFCURVE",
"795 465 OFFCURVE",
"774 557 CURVE SMOOTH",
"694 952 LINE",
"475 952 LINE",
"395 559 LINE SMOOTH",
"367 424 OFFCURVE",
"354 262 OFFCURVE",
"354 262 CURVE SMOOTH",
"348 262 LINE SMOOTH",
"348 262 OFFCURVE",
"338 432 OFFCURVE",
"309 561 CURVE SMOOTH",
"219 952 LINE",
"2 952 LINE",
"233 0 LINE",
"453 0 LINE",
"545 457 LINE SMOOTH",
"565 555 OFFCURVE",
"571 690 OFFCURVE",
"571 690 CURVE",
"584 690 LINE",
"584 690 OFFCURVE",
"590 551 OFFCURVE",
"610 455 CURVE SMOOTH",
"705 0 LINE",
"924 0 LINE"
);
},
{
closed = 1;
nodes = (
"827 1309 LINE",
"608 1309 LINE",
"453 1069 LINE",
"633 1069 LINE",
"829 1303 LINE"
);
}
);
width = 1155;
}
);
unicode = 1E83;
},
